<svg xmlns="http://www.w3.org/2000/svg" xmlns:xlink="http://www.w3.org/1999/xlink" width="77" height="64" viewBox="0 0 77 64">
    <defs>
        <linearGradient id="b" x1="50%" x2="50%" y1="0%" y2="100%">
            <stop offset="0%" stop-color="#8BA2FE"/>
            <stop offset="100%" stop-color="#657EFA"/>
        </linearGradient>
        <path id="a" d="M41.687 0c6.425 0 9.637 0 13.095 1.093a13.593 13.593 0 0 1 8.125 8.125C64 12.676 64 15.888 64 22.313v19.374c0 6.425 0 9.637-1.093 13.095a13.59 13.59 0 0 1-8.125 8.124C51.324 64 48.112 64 41.687 64H22.313c-6.425 0-9.637 0-13.095-1.094a13.59 13.59 0 0 1-8.125-8.124C0 51.324 0 48.112 0 41.687V22.313c0-6.424 0-9.637 1.093-13.095a13.593 13.593 0 0 1 8.125-8.125C12.676 0 15.888 0 22.313 0h19.374z"/>
        <path id="d" d="M0 1.619V0h7.57v3.238H0z"/>
    </defs>
    <g fill="none" fill-rule="evenodd">
        <g>
            <mask id="c" fill="#fff">
                <use xlink:href="#a"/>
            </mask>
            <use fill="url(#b)" xlink:href="#a"/>
            <g mask="url(#c)">
                <g transform="translate(-11.75 8.65)">
                    <path fill="#FFF" d="M62.669 15.672c-.284-2.07-1.233-3.664-2.1-4.847-.42-.573-1.98-2.133-2.552-2.552-1.183-.867-2.78-1.817-4.849-2.101-3.07-.421-7.114 4.46-9.245 6.652-2.132 2.19-7.63 8.127-11.255 11.334-3.626 3.207-4.671 5.509-4.18 6.976.49 1.466 3.982 5.236 3.982 5.236s3.773 3.494 5.238 3.984c1.466.49 3.77-.554 6.975-4.18 3.207-3.627 9.145-9.123 11.335-11.255 2.192-2.131 7.073-6.175 6.65-9.247"/>
                    <path fill="#7991FC" d="M45.255 13.04l-2.614 4.358-4.26 4.248-.865-.851z"/>
                    <path fill="#7991FC" d="M38.388 21.65l-3.277 3.278-2.615.871 5.02-5.02z"/>
                    <path fill="#FFF" d="M56.75 7.946a.495.495 0 0 1-.64.279l-2.758-1.081a.494.494 0 0 1 .358-.92l2.759 1.082c.253.099.38.386.281.64M56.06 22.43c-.255.255-.292.63-.084.838l1.927 1.927c.208.208.582.17.837-.084.255-.255.293-.63.085-.838l-1.927-1.928c-.208-.207-.584-.17-.838.085M46.153 12.387c-.255.255-.63.292-.838.085l-1.927-1.927c-.208-.208-.17-.583.084-.838.254-.254.63-.293.838-.085l1.927 1.927c.208.208.17.584-.084.838"/>
                    <path fill="#829AFD" d="M55.11 18.691c-1.068-1.514-2.281-2.68-2.281-2.68s-1.165-1.212-2.678-2.28c-1.055-.744-2.28-1.42-3.397-1.562l-3.067 5.16s1.747.77 3.074 2.097l2.655 2.655c1.327 1.327 2.095 3.072 2.095 3.072l5.162-3.065c-.144-1.119-.818-2.342-1.562-3.397"/>
                    <path fill="#7991FC" d="M55.802 23.587l-4.36 2.613-4.263 4.267.881.86z"/>
                    <path fill="#7991FC" d="M47.19 30.453l-3.277 3.277-.87 2.616 5.02-5.02zM33.608 27.608l-2.022 2.022s.767 1.325 1.956 2.653l1.188 1.328.501.5 1.328 1.19c1.326 1.186 2.653 1.955 2.653 1.955l2.022-2.021c-1.512-.897-3.68-2.993-4.162-3.467-.474-.482-2.568-2.648-3.464-4.16z"/>
                    <path fill="#FFF" d="M60.925 12.08a.493.493 0 0 0-.289.635l1.037 2.776a.491.491 0 0 0 .633.29.49.49 0 0 0 .29-.634l-1.034-2.775a.497.497 0 0 0-.637-.292M43.35 33.119c-.976.976-1.635 1.432-2.754.78-1.668-.97-4.566-3.868-5.702-5.702-.681-1.1-.147-1.73.83-2.705l6.296-6.297c.976-.976 1.912-1.207 3.011-.522 1.627 1.012 3.582 3.108 5.043 5.126.759 1.05.549 2.047-.427 3.023l-6.297 6.297z"/>
                    <g transform="scale(1 -1) rotate(-45 12.274 -68.357)">
                        <mask id="e" fill="#fff">
                            <use xlink:href="#d"/>
                        </mask>
                        <path fill="#8097FD" d="M7.57.18V1.62c0 .1-.082.18-.181.18H6.128v1.259c0 .1-.081.18-.181.18H4.505a.18.18 0 0 1-.18-.18V1.799h-1.08v1.259c0 .1-.082.18-.181.18H1.622a.18.18 0 0 1-.18-.18V1.799H.18A.18.18 0 0 1 0 1.62V.18C0 .08.08 0 .18 0h1.442c.1 0 .18.08.18.18V1.44h1.081V.18c0-.1.081-.18.18-.18h1.442c.1 0 .18.08.18.18V1.44h1.081V.18c0-.1.081-.18.181-.18h1.442c.1 0 .18.08.18.18" mask="url(#e)"/>
                    </g>
                    <rect width="1.707" height="37.899" x="13.175" y="27.743" fill="#FFF" rx=".852" transform="scale(-1 1) rotate(-45 0 80.56)"/>
                    <rect width="1.707" height="37.899" x="21.068" y="36.047" fill="#FFF" rx=".852" transform="scale(-1 1) rotate(-45 0 107.92)"/>
                </g>
            </g>
        </g>
        <path fill="#F8667F" d="M12 10h65v20H12z"/>
        <text fill="#FFF" font-family="Roboto-Bold, Roboto" font-size="12" font-weight="bold" letter-spacing=".24" transform="translate(12 10)">
            <tspan x="4" y="15">MONTHLY</tspan>
        </text>
        <path fill="#D95169" d="M64 30h13l-13 4z"/>
    </g>
</svg>
