<svg xmlns="http://www.w3.org/2000/svg" width="38" height="48" viewBox="0 0 38 48">
    <g fill="none" fill-rule="evenodd">
        <path fill="#30D28F" d="M22.902 0c.74.036 1.477.281 2.042.76.757.609 1.167 1.567 1.154 2.517.009 6.026.001 12.051.005 18.077.583.577 1.478 1.453 2.685 2.63 1.915 1.955 3.945 3.77 5.846 5.738a12.242 12.242 0 0 1 3.294 7.782c.004.321.079.673-.084.97-.212.366-.777.44-1.08.145-.248-.204-.23-.548-.254-.834-.043-2.06-.716-4.095-1.88-5.81-.823-1.23-1.948-2.217-3-3.252-1.836-1.805-3.688-3.598-5.527-5.4-.004.932-.001 1.865.008 2.799 1.274 1.23 2.53 2.478 3.807 3.706.173.179.374.38.372.644.024.383-.337.734-.729.711-.218.003-.4-.132-.554-.267-2.655-2.596-5.312-5.19-7.968-7.782-.567-.579-1.414-.9-2.23-.752-1.052.155-1.93 1.054-2.028 2.09-.098.737.207 1.487.741 2.007 1.194 1.178 2.402 2.342 3.597 3.52.795.782 1.243 1.897 1.158 3.001-.026.65-.315 1.244-.55 1.84-.611 1.572-.399 3.412.529 4.824.696 1.045 1.737 1.805 2.57 2.737.328.356.108.975-.358 1.087-.318.104-.62-.09-.831-.302-.59-.576-1.175-1.159-1.77-1.73-2.981.011-5.964-.006-8.946.005 1.842.958 3.701 1.884 5.547 2.835 1.334.662 2.633 1.428 4.083 1.829 1.39.437 2.867.503 4.318.477.315.009.647-.034.949.08.364.155.514.63.313.962-.107.194-.324.282-.522.356h-1.947c-1.594-.053-3.184-.336-4.664-.924-1.577-.66-3.062-1.503-4.59-2.259-2.102-1.069-4.202-2.141-6.302-3.213a1.086 1.086 0 0 0-.504-.141c-.993-.022-1.987.017-2.979-.018-1.077-.03-2.111-.63-2.658-1.538-.315-.494-.46-1.077-.468-1.655-.014-.961.008-1.923-.01-2.883-.773-.71-1.654-1.41-2.005-2.425-.414-1.124-.145-2.414.596-3.349-.468-.461-.974-.892-1.368-1.418C-.059 27.14-.16 25.679.46 24.55c.321-.63.878-1.095 1.462-1.486C1.3 22.413.562 21.792.323 20.892a3.423 3.423 0 0 1 .754-3.344c.605-.69 1.5-1.077 2.414-1.17.006-4.364-.002-8.728.005-13.093-.005-.788.262-1.582.798-2.177C4.88.434 5.76.046 6.656 0h16.246z"/>
        <path fill="#FFF" d="M4.93 33.507h-.007c-.003-2.194.011-11.132.017-13.326 0-10.775-.007-16.32-.022-16.635.023-.424-.02-.848.022-1.271.08-.503.957-.904 1.874-.88 5.151-.002 10.302 0 15.453-.002.412.003.842-.016 1.234.07.658.134 1.14.491 1.165.876.026.403.002.806.01 1.209-.003.232-.005 1.676-.005 4.33.011 2.686.004 5.374.004 8.06.009 2.258.005 6.5-.004 8.759-.628-.59-1.233-1.201-1.853-1.8-.547-.519-.916-1.042-1.721-1.475-.362-.194-.976-.346-1.686-.467-1.172-.021-2.381.42-3.132 1.322-.686.753-.992 1.778-.94 2.776l-.005.004c.103.504.239 1.07.474 1.526.196.294.404.581.657.832 1.225 1.21 2.468 2.402 3.687 3.616.653.635.842 1.611.6 2.463h.004c-.414 1.102-.236.68-.561 1.407-.48 1.72-.244 3.6.624 5.165-4.478.002-8.957-.003-13.436.002-.445-.003-.91.029-1.33-.14-.65-.259-1.116-.905-1.123-1.593-.015-1.118.002-3.645 0-4.828z"/>
        <path fill="#F7F7F7" d="M1.937 27.46c.385.44.82.84 1.258 1.231l.295-.104c.007-1.511.004-3.021.001-4.532-.574.073-1.144.313-1.511.764-.648.725-.671 1.896-.043 2.64zM3.485 33.438c.016-1.085.01-2.17 0-3.253-.519.445-.836 1.12-.763 1.8.033.565.35 1.072.763 1.453zM2.13 21.259c.436.46.898.893 1.36 1.328.006-1.605.005-3.209.002-4.813-.781.105-1.491.622-1.765 1.351a2.06 2.06 0 0 0 .403 2.134z"/>
        <path fill="#30D28F" fill-rule="nonzero" d="M12.595 2.474c1.336-.02 2.674-.002 4.01-.01.286.006.612-.024.844.172.317.247.33.764.028 1.027-.23.227-.58.194-.88.2-1.309-.014-2.618.017-3.926-.005-.39.027-.766-.28-.77-.667-.027-.378.308-.718.694-.717z"/>
    </g>
</svg>
