<svg xmlns="http://www.w3.org/2000/svg" width="40" height="48" viewBox="0 0 40 48">
    <g fill="none" fill-rule="evenodd">
        <path fill="#F8976A" fill-rule="nonzero" d="M11.215.5H28.22c.265.052.517.172.706.367 3.016 2.885 6.034 5.767 9.048 8.653.27.249.41.614.394.978v24.847c.002.472-.027.948-.143 1.407a4.914 4.914 0 0 1-2.308 3.077 4.995 4.995 0 0 1-2.334.671H11.218a4.963 4.963 0 0 1-3.546-1.66 4.893 4.893 0 0 1-1.239-3.338c-.002-10.001-.002-20.003 0-30.004a4.906 4.906 0 0 1 1.278-3.38A4.967 4.967 0 0 1 11.215.5zm17.49 2.3c-.006 1.02-.007 2.042 0 3.062.007.81.246 1.628.759 2.264a3.599 3.599 0 0 0 2.797 1.377c1.146.016 2.293.002 3.439.004-2.328-2.238-4.661-4.473-6.995-6.707z"/>
        <path fill="#FFF" d="M8.037 4.493c-.055.434-.03.87-.036 1.306l.001 30.224a2.796 2.796 0 0 0 1.123 2.305c.524.404 1.196.582 1.857.57 7.56.004 15.121.001 22.68.001.277 0 .554-.011.827-.055a2.821 2.821 0 0 0 2.061-1.606c.322-.686.235-1.457.248-2.19-.007-7.962.015-15.926-.01-23.888-1.452.01-2.904 0-4.355.006a5.27 5.27 0 0 1-2.847-.81c-1.112-.7-1.943-1.83-2.236-3.099-.113-.45-.142-.917-.143-1.38V2.103c-5.384-.005-10.767-.003-16.151-.001-.467-.003-.944.049-1.371.244-.876.373-1.527 1.216-1.648 2.147z"/>
        <path stroke="#F8976A" stroke-linecap="round" stroke-linejoin="round" stroke-width="1.6" d="M1.34 19.206v22.651a4 4 0 0 0 4 4h18.956"/>
        <g fill="#F8976A" fill-rule="nonzero">
            <path d="M30.888 22.564h-3.36v3.391a.176.176 0 0 1-.176.176h-3.567a.176.176 0 0 1-.176-.176v-3.391h-3.154v3.391a.176.176 0 0 1-.176.176h-3.567a.176.176 0 0 1-.176-.176v-3.391h-3.36a.176.176 0 0 1-.176-.176V18.82c0-.098.079-.176.176-.176h3.567c.097 0 .176.078.176.176v3.39h3.153v-3.39c0-.098.08-.176.176-.176h3.567c.097 0 .176.078.176.176v3.39h3.154v-3.39c0-.098.078-.176.175-.176h3.568c.097 0 .175.078.175.176v3.567a.175.175 0 0 1-.175.176z"/>
        </g>
    </g>
</svg>
