<svg xmlns="http://www.w3.org/2000/svg" width="40" height="48" viewBox="0 0 40 48">
    <g fill="#F8667F" fill-rule="nonzero" stroke="#FFF" stroke-width=".857">
        <path d="M20.455 1a14.55 14.55 0 0 1 1.776.234c1.834.384 3.584 1.327 4.819 2.787 1.555 1.776 2.247 4.172 2.384 6.517.16 1.77.095 3.557-.136 5.317-.294 2.014-.886 4.021-1.999 5.725-.628.975-1.468 1.788-2.405 2.445.171.414.419.788.701 1.13.94 1.012 2.037 1.712 3.171 2.284 1.877.94 3.88 1.582 5.898 2.114.79.21 1.548.578 2.166 1.131.863.763 1.439 1.828 1.727 2.95.572 2.119.395 4.338.43 6.51.05.627-.42 1.252-1.043 1.296-.625.085-1.249-.432-1.28-1.08-.056-1.753.089-3.518-.163-5.259-.147-.954-.45-1.963-1.186-2.616-.635-.575-1.51-.664-2.29-.91-2.36-.69-4.708-1.532-6.802-2.866-1.417-.913-2.78-2.085-3.453-3.698a10.215 10.215 0 0 1-5.546.003c-.624 1.499-1.856 2.612-3.147 3.503-2.487 1.642-5.333 2.586-8.174 3.351-.597.147-1.166.462-1.553.959-.448.58-.678 1.305-.813 2.023-.268 1.522-.171 3.076-.188 4.615-.017.5.088 1.067-.234 1.494-.378.55-1.227.645-1.706.182-.331-.286-.42-.75-.396-1.173.041-2.207-.167-4.475.486-6.615.385-1.266 1.153-2.445 2.272-3.14.787-.513 1.714-.699 2.597-.957.8-.209 1.58-.486 2.361-.754 1.804-.68 3.61-1.484 5.089-2.77.516-.466 1.004-1.005 1.257-1.672-.302-.346-.74-.548-1.05-.893-1.127-1.04-1.926-2.407-2.47-3.848-.852-2.272-1.104-4.73-1.084-7.15.052-1.353.11-2.72.437-4.038.443-1.932 1.445-3.751 2.949-5.02 1.6-1.376 3.693-2.02 5.757-2.111h.84zM18.72 3.482c-1.59.202-3.134.988-4.15 2.275-.926 1.142-1.397 2.598-1.595 4.052-.133 1.284-.229 2.578-.147 3.87.115 1.907.403 3.847 1.233 5.578.62 1.302 1.589 2.483 2.888 3.103 1.481.71 3.198.801 4.784.46 1.401-.3 2.666-1.163 3.49-2.363 1.022-1.45 1.54-3.215 1.762-4.974.304-1.943.243-3.929.002-5.875-.09-.5-.176-1-.341-1.48-.449-1.545-1.432-2.949-2.806-3.758-1.53-.923-3.385-1.128-5.12-.888z"/>
        <path d="M24.408 34.238c.303-.311.612-.697 1.073-.734.658-.101 1.3.497 1.29 1.174.015.35-.157.674-.395.914l-7.82 8.02a1.593 1.593 0 0 1-.646.388h-.336a1.408 1.408 0 0 1-.725-.39c-1-1.017-1.989-2.043-2.987-3.06-.297-.296-.637-.622-.663-1.074-.082-.697.54-1.365 1.224-1.302.508.006.845.432 1.174.768.701.724 1.414 1.437 2.115 2.162 2.234-2.286 4.464-4.576 6.696-6.866z"/>
    </g>
</svg>
