<svg xmlns="http://www.w3.org/2000/svg" xmlns:xlink="http://www.w3.org/1999/xlink" width="315" height="144" viewBox="0 0 315 144">
    <defs>
        <path id="a" d="M0 0h316v163H0z"/>
        <linearGradient id="c" x1="13.863%" x2="47.541%" y1="45.045%" y2="108.155%">
            <stop offset="0%" stop-color="#D3DCFE" stop-opacity=".6"/>
            <stop offset="100%" stop-color="#91A3FB" stop-opacity=".6"/>
        </linearGradient>
    </defs>
    <g fill="none" fill-rule="evenodd">
        <mask id="b" fill="#fff">
            <use xlink:href="#a"/>
        </mask>
        <g fill="url(#c)" mask="url(#b)" opacity=".7">
            <path d="M448.454-120.963c-18.678 0-34.229-5.427-47.227-16.423-29.095-24.611-57.996-47.222-91.628-53.485-39.172-7.296-77.301 9.941-116.568 52.695-31.926 34.763-62.847 41.27-95.585 48.158-28.904 6.082-58.793 12.372-89.852 39.834C-46.908-1.993-47.284 56.776-23.477 93.642c19.04 29.488 45.153 46.24 75.514 48.444 40.717 2.958 88.558-20.954 124.834-62.397 19.477-22.25 42.296-40.552 67.823-54.396 22.915-12.428 48.122-21.55 77.06-27.886 53.491-11.713 110.153-11.661 164.957-11.615l8.13.006h.069c65.581 0 94.284-33.075 105.563-52.798 14.596-25.521 16.67-56.975 5.04-76.491-5.791-9.72-14.124-14.758-24.107-14.579-13.212.24-30.677 7.202-50.901 15.262-20.526 8.18-43.793 17.456-66.252 20.665-5.5.787-10.764 1.18-15.799 1.18M292.22-193.55c5.84 0 11.692.548 17.574 1.645 33.886 6.31 62.91 29.01 92.118 53.716 36.563 30.93 87.374 10.677 128.2-5.596 20.32-8.1 37.87-15.094 51.275-15.337.17-.003.343-.005.513-.005 10.018 0 18.711 5.346 24.523 15.099 5.466 9.175 8.124 21.702 7.484 35.275-.686 14.542-5.014 29.161-12.514 42.276-11.393 19.92-40.376 53.33-106.483 53.33h-.07l-8.13-.007c-111.597-.094-226.99-.201-309.042 93.536-17.458 19.946-37.986 36.316-59.363 47.34-22.5 11.602-45.438 16.934-66.346 15.414-14.814-1.074-28.653-5.52-41.133-13.216-13.378-8.249-25.22-20.262-35.194-35.708-13.33-20.642-18.19-45.725-13.685-70.63C-33.15-3.527-17.608-29.308 6.892-50.97 38.16-78.621 68.188-84.938 97.227-91.05c32.567-6.852 63.326-13.325 95.024-47.839 33.654-36.643 66.53-54.66 99.97-54.663"/>
            <path d="M489.688-15.445h-.005.005zm-48.761-102.999c-17.994 0-32.996-5.208-45.562-15.757-51.633-43.049-115.895-96.625-201.945-3.584-31.471 33.925-61.932 40.998-94.181 48.488-28.216 6.553-57.39 13.329-88.046 39.496C-36.69-9.298-49.735 48.155-20.532 89.916c18.624 27.693 42.778 42.831 71.799 45 40.248 3.008 87.056-20.034 125.208-61.645 18.486-20.462 39.171-36.701 63.233-49.643 21.316-11.463 44.724-20.01 71.561-26.126C360.9-13.81 413.551-14.674 464.47-15.51c8.296-.136 16.871-.278 25.208-.463 64.138-1.188 91.263-33.681 101.725-52.946 13.14-24.195 14.35-53.734 2.944-71.832-5.933-9.41-14.741-14.336-24.8-13.876-12.785.401-29.538 7.11-48.936 14.874-19.872 7.955-42.396 16.973-64.148 20.129-5.412.786-10.588 1.179-15.535 1.179zm-153.093-71.75c6.2 0 12.412.645 18.661 1.935 34.12 7.038 64.855 32.664 89.551 53.253 35.479 29.782 84.655 10.095 124.17-5.722 19.491-7.804 36.323-14.542 49.29-14.95 10.457-.484 19.591 4.622 25.734 14.369 11.6 18.404 10.405 48.379-2.908 72.893-10.57 19.466-37.962 52.3-102.634 53.498h.001c-8.339.185-16.915.326-25.21.462-103.465 1.697-210.453 3.452-287.231 88.434-18.037 19.671-38.787 35.806-60.01 46.659-22.623 11.57-45.466 16.872-66.06 15.33-14.015-1.048-27.127-5.202-38.971-12.347-12.678-7.649-23.991-18.788-33.622-33.11-13.668-19.546-18.563-43.889-13.775-68.537 5.16-26.563 20.96-51.659 45.687-72.575 30.85-26.334 60.153-33.139 88.492-39.72 32.087-7.452 62.393-14.49 93.644-48.177 32.04-34.642 63.359-51.693 95.19-51.695z"/>
            <path d="M484.536-17.214h-.005.005zm-51.139-98.712c-17.306 0-31.762-4.988-43.893-15.087l-2.095-1.721c-26.545-21.812-53.995-44.365-85.728-51.133-36.243-7.73-71.53 7.47-107.87 46.472-31.05 33.117-61.083 40.771-92.88 48.874C73.433-81.513 45-74.268 14.79-49.418-40.26-4.941-43.165 52.467-17.588 86.192c17.92 25.52 40.822 39.515 68.086 41.606 39.041 2.991 85.988-19.788 125.579-60.945 32.353-34.634 73.488-57.395 125.75-69.576 46.18-10.765 95.232-12.215 142.669-13.618 13.209-.39 26.867-.795 40.015-1.399l.004-.001c62.584-2.415 88.097-34.24 97.735-52.994 11.747-22.86 12.158-50.521 1-67.267-6.172-9.263-15.252-13.944-25.563-13.18-12.358.56-28.396 7.011-46.966 14.481-19.22 7.731-41.002 16.494-62.047 19.596-5.326.785-10.415 1.18-15.278 1.18zm-149.936-70.949c6.126 0 12.267.66 18.441 1.977 31.986 6.823 60.777 30.479 86.18 51.35l2.098 1.723c34.399 28.64 81.943 9.515 120.146-5.852 18.66-7.505 34.775-13.988 47.3-14.556 10.691-.794 20.113 4.056 26.505 13.649 5.344 8.018 8.299 18.986 8.32 30.884.023 12.665-3.179 25.615-9.259 37.444-9.743 18.96-35.514 51.132-98.636 53.568-13.152.605-26.816 1.008-40.028 1.4-96.2 2.845-195.678 5.788-267.682 82.864-18.673 19.413-39.652 35.313-60.672 45.989-23.075 11.718-45.198 16.865-65.756 15.283-27.594-2.117-50.763-16.261-68.86-42.038-14.011-18.472-18.939-42.076-13.862-66.446 5.42-26.026 21.472-50.438 46.425-70.597 30.39-24.998 58.939-32.272 86.546-39.307 31.644-8.065 61.531-15.681 92.369-48.572 30.446-32.675 60.2-48.76 90.425-48.763z"/>
            <path d="M479.384-18.984h-.005.005zm-53.514-94.424c-16.623 0-30.53-4.766-42.227-14.42-1.88-1.52-3.776-3.06-5.681-4.605-50.003-40.612-106.676-86.641-183.762-4.57-30.668 32.346-60.318 40.595-91.708 49.329-26.741 7.438-54.392 15.133-84.104 38.64C-9.574-27.494-26.732-.102-29.934 28.102c-2.303 20.297 3.128 39.604 15.291 54.363 17.2 23.4 38.855 36.268 64.382 38.268 38.265 2.998 84.171-18.98 125.942-60.299 30.411-31.424 68.878-52.262 117.589-63.7 43.08-10.116 88.884-11.902 133.18-13.628 17.523-.683 35.644-1.39 52.896-2.617h.006c60.964-3.656 84.855-34.736 93.671-52.937 10.59-21.863 10.274-47.103-.788-62.808-6.431-9.13-15.808-13.567-26.406-12.484-11.927.719-27.247 6.914-44.988 14.086-18.567 7.508-39.612 16.017-59.95 19.067-5.238.785-10.243 1.178-15.021 1.178zm-146.763-70.188c5.76 0 11.534.612 17.337 1.834 30.316 6.384 56.686 27.8 82.186 48.511 1.904 1.547 3.799 3.086 5.684 4.61 33.319 27.494 79.236 8.93 116.129-5.988 17.828-7.207 33.223-13.432 45.301-14.16 10.97-1.12 20.696 3.472 27.356 12.929 11.276 16.007 11.626 41.676.876 63.87-6.925 14.297-18.175 26.586-32.534 35.543-16.793 10.475-37.658 16.527-62.02 17.988-17.272 1.228-35.4 1.935-52.931 2.618-89.674 3.496-182.401 7.111-250.056 77.016-19.385 19.173-40.598 34.847-61.352 45.33-23.206 11.72-45.222 16.86-65.427 15.278-25.847-2.024-47.762-15.036-65.134-38.672-12.329-14.956-17.841-34.543-15.506-55.127C-27.751-.504-10.45-28.15 17.736-49.864c29.873-23.635 57.63-31.357 84.471-38.826 31.246-8.692 60.758-16.903 91.222-49.035 28.87-30.738 57.062-45.87 85.678-45.871z"/>
            <path d="M474.232-20.754h-.005.005zm-55.936-90.18c-14.444 0-28.305-3.73-40.513-13.707-2.99-2.373-6.065-4.852-9.038-7.248-24.253-19.539-49.33-39.746-77.773-45.71-32.309-6.776-63.837 6.632-96.384 40.986-30.34 31.626-59.66 40.492-90.702 49.878C77.947-78.892 51.125-70.78 21.985-48.65-6.462-27.793-24.431.092-27.323 27.861c-2.014 19.343 3.533 37.412 15.624 50.88 16.466 21.333 36.874 33.096 60.69 34.99 50.325 4.001 100.727-35.696 126.296-59.714C203.919 25.52 239.966 6.5 285.475-4.12c40.277-9.399 83.136-11.323 124.583-13.184 22.308-1.001 43.377-1.948 64.122-3.975l.009-.001c59.268-4.906 81.538-35.168 89.537-52.77 9.318-20.507 8.346-44.002-2.42-58.466-6.71-9.018-16.42-13.2-27.336-11.78-11.49.871-26.796 7.095-43 13.685-22.475 9.138-48.397 19.676-72.674 19.676zm-143.66-69.41c35.658 0 66.34 24.727 94.775 47.637 2.971 2.394 6.044 4.871 9.037 7.247 32.244 26.352 76.534 8.345 112.121-6.125 16.99-6.91 31.665-12.876 43.292-13.758 11.287-1.469 21.346 2.862 28.296 12.2 10.985 14.762 12.004 38.685 2.531 59.527-6.275 13.811-16.847 25.823-30.574 34.735-16.043 10.417-36.175 16.692-59.83 18.651-20.773 2.03-41.856 2.976-64.176 3.98C326.329-12.49 239.699-8.6 176.024 54.77c-20.193 18.97-41.644 34.419-62.045 44.686-23.339 11.745-45.231 16.897-65.073 15.323-24.124-1.917-44.788-13.817-61.418-35.368-12.267-13.66-17.91-32.019-15.864-51.66C-25.453-.31-7.329-28.466 21.35-49.495c29.284-22.238 56.201-30.377 82.229-38.248 30.906-9.344 60.096-18.172 90.243-49.595 29.824-31.48 56.48-43.003 80.814-43.005z"/>
            <path d="M469.08-22.524h-.005.005zm-58.314-85.89c-13.835 0-27.115-3.555-38.845-13.04-4.022-3.139-8.163-6.46-12.167-9.673-23.098-18.53-46.981-37.692-73.844-43.351-30.439-6.413-60.183 6.1-90.932 38.258-30.085 30.967-59.151 40.48-89.923 50.553-25.074 8.206-51.002 16.692-79.474 37.4C-3.766-27.83-22.09-.22-24.7 27.482-26.434 45.88-20.773 62.76-8.757 75.015c15.715 19.327 34.888 30.007 57.018 31.783 45.596 3.65 94.03-30.176 126.63-59.2 60.294-57.658 141.59-61.528 220.21-65.27 25.821-1.23 50.212-2.39 73.912-5.374l.01-.002c57.5-6.162 78.15-35.533 85.341-52.494 8.124-19.159 6.562-40.96-3.887-54.248-7.015-8.92-17.09-12.847-28.366-11.063-11.047 1.024-25.599 6.976-41.004 13.278-21.743 8.895-46.838 19.161-70.34 19.161zm-140.249-68.748c5.188 0 10.389.552 15.61 1.652 27.113 5.712 51.097 24.955 74.29 43.563 4.002 3.21 8.14 6.53 12.164 9.669 31.173 25.21 73.84 7.755 108.125-6.27 15.48-6.334 30.101-12.317 41.274-13.35 11.638-1.844 22.067 2.224 29.33 11.46 5.141 6.538 8.298 15.11 9.126 24.788.862 10.068-.9 20.62-5.096 30.517-5.64 13.298-15.536 25.004-28.62 33.853-15.283 10.335-34.656 16.822-57.58 19.28-23.74 2.988-48.147 4.15-73.989 5.38-78.425 3.732-159.52 7.593-219.54 64.99-21.43 19.079-42.537 33.897-62.748 44.054-23.469 11.795-45.232 16.982-64.688 15.423-22.43-1.799-41.85-12.61-57.72-32.132-12.205-12.444-17.972-29.62-16.208-48.33 2.638-28.012 21.125-55.9 50.72-76.51 28.597-20.798 54.607-29.31 79.76-37.543 30.643-10.03 59.588-19.505 89.488-50.282 25.763-26.945 50.872-40.21 76.302-40.212z"/>
            <path d="M463.927-24.293h-.005.005zm-60.692-81.603c-13.223 0-25.927-3.38-37.173-12.37-4.991-3.819-10.117-7.93-15.076-11.906-21.942-17.597-44.631-35.792-69.96-41.206-28.627-6.12-56.646 5.509-85.659 35.548-29.928 30.4-58.842 40.605-89.457 51.408-24.122 8.512-49.065 17.316-76.734 36.538C-.634-28.207-19.787-.23-22.066 26.963c-1.463 17.468 4.308 33.21 16.249 44.327l.04.042c40.25 46.808 100.902 36.665 180.275-30.153 56.917-52.162 133.159-55.765 206.89-59.252 28.94-1.368 56.275-2.66 82.458-6.74l.012-.003c40.648-5.417 70.205-24.41 81.092-52.106 7.118-18.11 5.077-37.8-5.2-50.164-7.344-8.839-17.819-12.505-29.499-10.326-10.6 1.17-24.393 6.85-38.995 12.866-21.016 8.655-45.284 18.65-68.02 18.65zm-136.943-68.118c4.973 0 9.953.537 14.957 1.606 25.574 5.466 48.362 23.742 70.401 41.416 4.953 3.971 10.075 8.08 15.064 11.897 30.107 24.066 71.155 7.16 104.138-6.427 14.674-6.042 28.533-11.75 39.244-12.93 12.034-2.25 22.869 1.548 30.47 10.694 10.516 12.655 12.624 32.76 5.368 51.219-5.015 12.758-14.238 24.135-26.673 32.901-14.509 10.227-33.1 16.91-55.256 19.867-26.238 4.087-53.6 5.38-82.567 6.75-73.543 3.478-149.589 7.072-206.24 58.99C95.29 109.235 34.14 119.346-6.561 72.04-18.728 60.7-24.609 44.66-23.12 26.877-20.814-.635-1.487-28.909 28.581-48.756 56.356-68.05 81.37-76.878 105.557-85.414c30.494-10.763 59.299-20.926 89.052-51.15 24.233-25.09 47.824-37.448 71.683-37.45z"/>
            <path d="M458.775-26.063h-.005.005zm-63.071-77.314c-12.612 0-24.738-3.205-35.503-11.703-5.895-4.419-11.93-9.275-17.765-13.972-20.789-16.731-42.287-34.033-66.119-39.25-26.875-5.883-53.227 4.867-80.56 32.863-29.913 29.958-58.827 40.92-89.443 52.522-23.041 8.733-46.87 17.764-73.541 35.417C2.059-28.336-17.446-.75-19.417 26.302-20.622 42.86-14.75 57.514-2.878 67.566a.335.335 0 0 1 .048.047C19.534 92.097 47.145 99.097 81.581 89.01c26.152-7.658 55.552-24.897 92.524-54.25 53.792-47.105 125.407-50.264 194.664-53.321 31.71-1.4 61.665-2.72 89.909-8.02a.045.045 0 0 0 .013-.003c39.238-6.333 67.23-25.143 76.8-51.608 6.066-16.785 3.575-34.929-6.349-46.224-7.703-8.768-18.625-12.16-30.75-9.555-10.147 1.31-23.176 6.718-36.971 12.441-20.295 8.423-43.745 18.152-65.717 18.152zm-133.785-67.576c4.829 0 9.689.542 14.625 1.623 24.076 5.269 45.672 22.65 66.558 39.46 5.828 4.691 11.854 9.54 17.745 13.956 29.043 22.926 68.479 6.563 100.167-6.586 13.863-5.753 26.956-11.186 37.198-12.506 12.476-2.685 23.759.828 31.726 9.897 10.173 11.58 12.742 30.136 6.546 47.275-4.408 12.19-12.965 23.215-24.745 31.88-13.725 10.095-31.513 16.962-52.874 20.41-28.315 5.312-58.303 6.636-90.05 8.036-69.073 3.048-140.499 6.2-194.032 53.077-37.1 29.457-66.616 46.755-92.905 54.454-16.349 4.788-31.509 5.704-45.062 2.723C21.78 89.44 8.187 81.23-3.59 68.347c-12.118-10.275-18.112-25.23-16.88-42.122.94-12.932 6.04-26.487 14.744-39.2 9.187-13.417 22.3-25.66 37.926-35.41 26.758-17.71 50.641-26.762 73.74-35.517 30.503-11.561 59.316-22.481 89.062-52.276 14.777-15.135 28.925-25.074 43.245-30.382 7.911-2.931 15.747-4.393 23.672-4.393z"/>
            <path d="M453.623-27.832h-.005.005zm-65.407-72.981c-13.189 0-24.354-3.667-33.874-11.079-6.742-4.944-13.6-10.508-20.236-15.89-39.612-32.13-80.573-65.354-137.962-7.266-30.106 29.705-59.252 41.52-90.11 54.027-21.77 8.826-44.283 17.95-69.667 33.903C5.223-28.795-15.127-.974-16.755 25.497-17.72 41.173-11.748 54.79.058 63.84a.37.37 0 0 1 .057.052c48.984 50.23 115.292 7.988 173.597-35.55 50.893-42.44 118.255-45.019 183.4-47.512 34.181-1.31 66.464-2.546 96.396-9.176l.015-.004c37.766-7.238 64.182-25.83 72.473-51.004 5.18-15.73 2.368-31.99-7.337-42.436-8.092-8.707-19.503-11.812-32.126-8.739-9.684 1.444-21.948 6.576-34.933 12.009-15.333 6.415-32.712 13.686-49.545 16.493-4.845.807-9.454 1.214-13.839 1.214zm-130.4-67.098c4.685 0 9.401.543 14.19 1.628 22.62 5.12 43.03 21.675 62.768 37.685 6.625 5.373 13.475 10.93 20.207 15.867 27.984 21.784 65.814 5.957 96.21-6.76 13.047-5.46 25.37-10.614 35.138-12.07 12.967-3.16 24.741.055 33.106 9.057C529.402-111.778 532.3-95.12 527-79.027c-3.822 11.607-11.72 22.258-22.843 30.803-12.932 9.938-29.897 16.971-50.427 20.907-30.023 6.65-62.35 7.889-96.578 9.199-64.967 2.487-132.147 5.058-182.785 47.285C115.692 72.983 48.963 115.454-.616 64.653-12.69 55.38-18.796 41.455-17.81 25.43c1.65-26.814 22.198-54.958 53.628-73.447 25.448-15.995 48.005-25.138 69.819-33.98 30.758-12.467 59.808-24.244 89.76-53.795 13.905-14.076 27.2-23.289 40.638-28.163 7.283-2.64 14.495-3.955 21.783-3.957z"/>
            <path d="M448.471-29.602h-.005.005zm-67.787-68.692c-12.501 0-23.116-3.448-32.203-10.411-7.53-5.395-15.134-11.64-22.49-17.678-18.505-15.196-37.641-30.909-58.604-35.86-23.534-5.56-46.71 3.465-70.854 27.587-30.64 29.75-59.025 41.992-91.89 56.165-20.183 8.704-41.055 17.705-64.682 31.758C8.413-29.288-12.794-1.312-14.083 24.548c-.739 14.826 5.327 27.457 17.078 35.568a.67.67 0 0 1 .066.053c48.912 46.708 113.38 1.573 170.259-38.245C221.512-16.204 284.956-18.1 346.308-19.935c36.382-1.086 70.746-2.114 102.032-10.177.003-.002.01-.003.015-.004 36.232-8.13 61.065-26.464 68.129-50.298 4.284-14.456 1.155-29.324-8.168-38.804-8.393-8.531-20.656-11.402-33.644-7.87a.328.328 0 0 1-.05.012c-9.162 1.56-20.654 6.414-32.821 11.552-14.696 6.205-31.35 13.238-47.49 16.001-4.776.818-9.315 1.229-13.627 1.229zm-126.874-66.64c26.895 0 50.11 19.061 72.855 37.737 7.34 6.029 14.932 12.261 22.449 17.646 26.935 20.648 63.164 5.349 92.273-6.943 12.215-5.16 23.753-10.03 33.032-11.617 13.359-3.623 25.989-.652 34.652 8.157 9.591 9.75 12.82 25.017 8.427 39.838-3.26 11.004-10.513 21.263-20.974 29.672-12.135 9.756-28.262 16.94-47.93 21.355C417.197-21 382.777-19.97 346.34-18.881c-61.182 1.828-124.445 3.719-172.387 41.648-28.093 19.667-59.905 41.939-90.104 52.346-32.947 11.356-59.605 6.724-81.493-14.155C-9.68 52.63-15.896 39.684-15.139 24.497-14.517 12.006-9.347-1.21-.188-13.722c9.664-13.204 23.365-24.935 39.622-33.923 23.672-14.08 44.574-23.095 64.79-31.812 32.768-14.133 61.07-26.338 91.565-55.949 21.485-21.469 40.532-29.528 58.02-29.528z"/>
            <path d="M443.319-31.371h-.005.005zm-70.17-64.404c-11.814 0-21.878-3.228-30.527-9.744-8.268-5.776-16.535-12.68-24.529-19.356-17.379-14.514-35.35-29.522-54.939-34.399-21.945-5.458-43.61 2.721-66.232 25.01-31.766 30.317-61.37 43.8-95.65 59.413-18.025 8.21-36.664 16.697-57.718 28.502C11.136-29.556-10.428-2.158-11.4 23.458c-.53 14.01 5.623 25.705 17.33 32.936a.48.48 0 0 1 .072.053c20.378 17.996 43.703 21.813 73.4 12.005 26.36-8.702 53.684-26.709 82.613-45.773 3.63-2.392 7.269-4.79 10.914-7.174 45.673-34.132 105.488-35.272 163.334-36.374 38.348-.73 74.568-1.42 106.905-11.006.005-.003.012-.004.018-.005 34.636-9.001 57.884-27.04 63.78-49.497 3.527-13.43.22-26.64-8.844-35.34-8.845-8.487-21.715-11.013-35.31-6.93a.24.24 0 0 1-.052.013c-8.676 1.676-19.392 6.247-30.736 11.088-14.06 6-29.997 12.798-45.446 15.524-4.711.83-9.183 1.247-13.429 1.247zm-123.311-66.183c25.499 0 47.44 18.323 68.933 36.276 7.979 6.663 16.228 13.55 24.473 19.314 25.894 19.508 60.532 4.73 88.363-7.144 11.387-4.86 22.143-9.448 30.925-11.15 13.962-4.189 27.2-1.57 36.324 7.186 9.345 8.967 12.758 22.562 9.133 36.365-5.996 22.834-29.515 41.147-64.53 50.247-32.47 9.625-68.76 10.317-107.177 11.049-57.678 1.098-117.32 2.235-162.745 36.182-3.672 2.402-7.31 4.8-10.94 7.19-28.988 19.104-56.37 37.148-82.86 45.895-14.273 4.713-26.916 6.251-38.655 4.702-13.137-1.733-24.83-7.258-35.748-16.888-12.019-7.442-18.336-19.459-17.791-33.847.464-12.23 5.672-25.238 15.064-37.619 9.911-13.067 23.897-24.504 40.445-33.077 21.075-11.815 39.736-20.313 57.781-28.532 34.191-15.573 63.722-29.022 95.351-59.21 19.846-19.553 37.468-26.939 53.654-26.939z"/>
            <path d="M438.167-33.141h-.005.005zm-72.553-60.115c-11.125 0-20.639-3.006-28.85-9.075-8.956-6.09-17.801-13.641-26.355-20.943-16.266-13.884-33.085-28.244-51.338-33.072-20.404-5.396-40.607 1.955-61.762 22.474-34.043 31.9-66.205 47.174-103.444 64.858-14.673 6.968-29.847 14.173-46.716 23.048C14.379-30.124-8.063-2.72-8.707 22.233-9.05 35.459-2.808 46.269 8.863 52.67a.475.475 0 0 1 .08.053c18.83 15.251 39.888 18.487 66.274 10.179 23.59-7.427 48.374-23.08 74.613-39.65 7.398-4.673 15.05-9.505 22.709-14.165 43.313-30.425 99.762-30.756 154.353-31.075 40.106-.236 77.988-.459 111.105-11.653l.018-.005c32.982-9.843 54.649-27.56 59.445-48.608 2.79-12.239-.714-24.22-9.369-32.049-9.336-8.448-22.873-10.6-37.14-5.904l-.053.014c-8.176 1.782-18.107 6.068-28.622 10.607-13.43 5.797-28.652 12.369-43.416 15.056-4.653.848-9.064 1.273-13.246 1.273zM245.98-159.154c4.413 0 8.85.597 13.362 1.792 18.487 4.89 35.4 19.327 51.755 33.29 8.532 7.282 17.355 14.814 26.28 20.884 24.862 18.375 57.918 4.105 84.479-7.363 10.551-4.555 20.518-8.857 28.79-10.664 14.63-4.804 28.535-2.572 38.156 6.132 8.941 8.089 12.563 20.45 9.69 33.063-4.883 21.426-26.812 39.426-60.163 49.38-33.278 11.248-71.24 11.47-111.43 11.705-54.429.32-110.708.65-153.78 30.902-7.68 4.676-15.328 9.505-22.723 14.176-26.299 16.608-51.14 32.296-74.86 39.764-26.74 8.42-48.102 5.136-67.224-10.336-12.008-6.604-18.43-17.741-18.077-31.366C-9.46 10.43-4.067-2.693 5.422-14.743 15.588-27.654 29.85-38.776 46.67-46.905c16.873-8.877 32.056-16.088 46.74-23.06 38.691-18.374 69.252-32.888 103.168-64.667 11.462-11.119 22.372-18.276 33.343-21.876 5.378-1.765 10.701-2.646 16.059-2.646z"/>
            <path d="M433.015-34.911h-.005.005zm-74.938-55.826c-10.435 0-19.4-2.786-27.172-8.404-9.598-6.341-18.935-14.532-27.964-22.453-15.166-13.305-30.85-27.063-47.807-31.872-19.18-5.44-37.43.913-57.437 19.987-39.024 35.85-73.603 52.497-121.462 75.536-8.153 3.925-16.584 7.985-25.495 12.36C17.654-30.722-5.676-3.398-6.01 20.873-6.18 33.36.142 43.33 11.797 48.951c.03.014.056.03.083.05 38.24 28.13 79.633 2.676 127.562-26.795 10.572-6.5 21.504-13.223 32.706-19.536 41.1-26.978 94.418-26.464 145.979-25.972 41.68.402 81.048.778 114.698-12.1l.019-.008c31.269-10.646 51.366-28.013 55.137-47.645 2.133-11.107-1.512-21.926-9.748-28.942-9.865-8.401-24.13-10.138-39.142-4.769l-.054.016c-7.66 1.871-16.799 5.868-26.473 10.101-12.805 5.603-27.32 11.954-41.405 14.609-4.602.868-8.958 1.303-13.082 1.303zm-115.858-65.64c4.363 0 8.745.633 13.204 1.898 17.188 4.874 32.962 18.712 48.217 32.094 9.003 7.9 18.312 16.065 27.868 22.379 23.843 17.24 55.332 3.463 80.631-7.607 9.706-4.247 18.874-8.258 26.62-10.155 15.369-5.49 30.005-3.679 40.16 4.97 8.53 7.266 12.306 18.459 10.1 29.94-3.844 20.012-24.192 37.668-55.823 48.442-33.837 12.948-75.136 12.553-115.08 12.167-51.402-.489-104.556-1.003-145.416 25.816-11.216 6.324-22.14 13.04-32.704 19.535C116.194 37.74 93.71 51.565 72.378 58.157c-23.92 7.392-43.332 4.763-61.086-8.28C-.725 44.063-7.243 33.76-7.068 20.859c.34-24.666 23.925-52.38 57.357-67.394 8.899-4.37 17.332-8.43 25.487-12.355 47.776-23.001 82.295-39.62 121.196-75.356 10.702-10.203 20.87-16.717 31.078-19.907 4.747-1.482 9.447-2.224 14.169-2.224z"/>
            <path d="M427.863-36.68h-.005.005zm-77.326-51.536c-9.745 0-18.157-2.564-25.489-7.738-10.195-6.525-19.937-15.356-29.357-23.898-14.734-13.358-28.65-25.976-44.352-30.789-17.72-5.433-34.641.145-53.255 17.554C155.166-94.492 117.535-73.996 54.331-45.2 16.53-29.505-3.271-.828-3.305 19.393c-.02 11.779 6.383 20.955 18.033 25.837.032.012.06.029.087.046 35.53 23.444 72.668.887 115.67-25.227C143.688 12.03 157.34 3.739 171.76-3.75c39.02-23.768 89.413-22.395 138.147-21.065 41.191 1.125 83.787 2.284 117.747-12.35l.019-.008c43.967-17 56.488-42.977 49.394-61.182-3.039-7.795-9.478-13.725-18.133-16.699-9.433-3.242-20.396-2.644-31.703 1.726a.437.437 0 0 1-.053.018c-7.125 1.944-15.456 5.644-24.277 9.564-12.191 5.416-26.008 11.556-39.42 14.185-4.56.895-8.868 1.344-12.943 1.344zm-111.972-65.462c4.326 0 8.666.676 13.085 2.03 15.927 4.883 30.58 18.169 44.753 31.017 9.388 8.512 19.097 17.314 29.236 23.805 22.84 16.109 51.523 3.364 76.83-7.88 8.847-3.931 17.205-7.646 24.403-9.612 11.535-4.453 22.739-5.053 32.405-1.73 8.955 3.075 15.622 9.225 18.774 17.314 7.285 18.69-5.346 45.278-49.987 62.541-34.174 14.725-76.882 13.56-118.187 12.432-48.579-1.326-98.814-2.695-137.598 20.928-14.419 7.49-28.055 15.77-41.242 23.78C87.74 47.241 50.352 69.951 14.273 46.182 2.235 41.12-4.384 31.606-4.362 19.392-4.344 8.232 1.153-4.343 11.115-16.02 21.81-28.558 36.608-38.981 53.908-46.164c63.086-28.745 100.652-49.201 143.459-87.698 9.968-9.321 19.42-15.21 28.89-17.996 4.126-1.214 8.21-1.82 12.308-1.82z"/>
            <path d="M422.71-38.45h-.005.005zm-79.715-47.246c-9.054 0-16.913-2.345-23.805-7.069-10.746-6.647-20.805-16.13-30.53-25.296-26.9-25.359-52.306-49.309-90.19-14.633-45.875 40.312-83.966 64.128-140.548 87.878-17.366 6.628-32.277 16.572-43.136 28.768C4.76-4.785-.705 7.233-.598 17.795c.112 11.11 6.596 19.533 18.259 23.717.03.01.059.024.087.04 15.138 8.821 31.074 10.072 50.152 3.941 17.257-5.546 35.505-16.642 54.823-28.387 15.366-9.342 31.254-19.002 48.648-27.272 37.057-20.779 84.716-18.535 130.804-16.364 42.399 1.997 86.24 4.062 120.304-12.394.006-.003.013-.005.019-.009 19.068-8.34 33.13-18.759 40.67-30.127 6.415-9.674 7.912-19.736 4.215-28.334-6.029-14.026-26.308-23.17-52.015-12.493a.771.771 0 0 1-.05.018c-6.562 1.993-14.072 5.39-22.023 8.987-11.586 5.24-24.717 11.18-37.465 13.792-4.529.927-8.8 1.394-12.835 1.394zm-107.967-65.372c4.301 0 8.606.731 12.993 2.196 14.705 4.912 27.655 17.12 41.365 30.046 9.689 9.132 19.707 18.576 30.383 25.18 21.856 14.981 49.074 2.668 73.088-8.195 7.974-3.607 15.506-7.014 22.128-9.027 7.946-3.299 15.394-4.735 22.087-4.736 15.48-.002 26.936 7.681 31.284 17.796 3.84 8.934 2.311 19.35-4.305 29.327-7.65 11.537-21.87 22.087-41.118 30.508-34.306 16.57-78.28 14.5-120.807 12.495-45.94-2.164-93.443-4.401-130.268 16.247-17.376 8.262-33.24 17.907-48.582 27.235-38.855 23.624-72.415 44.027-106.02 24.482C5.177 38.136-1.54 29.373-1.655 17.806c-.11-10.824 5.45-23.095 15.65-34.553C24.968-29.069 40.02-39.112 57.529-45.793c56.449-23.694 94.461-47.462 140.235-87.684 9.257-8.474 18.02-13.76 26.778-16.15 3.518-.96 7-1.44 10.487-1.44z"/>
            <path d="M417.558-40.22h-.005.005zM335.45-83.176c-8.361 0-15.666-2.123-22.115-6.398-11.26-6.71-21.542-16.854-31.485-26.663-24.677-24.346-47.982-47.34-82.992-16.063-43.538 37.311-78.87 65.45-137.345 87.867C44.216-38.408 28.654-28.6 17.675-16.81 7.567-5.955 1.894 6.037 2.11 16.09c.227 10.477 6.79 18.184 18.48 21.703a.5.5 0 0 1 .086.035c30.823 15.535 60.712-2.894 95.322-24.231 17.11-10.55 34.804-21.46 54.985-30.182 35.206-17.99 80.297-14.877 123.905-11.866 43.478 3.002 88.437 6.105 122.418-12.233a.068.068 0 0 0 .016-.01c40.063-19.776 46.875-42.457 40.535-55.87-3.378-7.15-10.706-12.44-20.109-14.519-10.255-2.266-22.417-.62-34.243 4.634-6.01 2.029-12.679 5.11-19.739 8.374-10.994 5.079-23.455 10.836-35.55 13.44-4.513.97-8.762 1.458-12.768 1.458zM231.49-148.572c4.331 0 8.66.81 13.044 2.416 13.521 4.96 25.44 16.72 38.06 29.169 9.898 9.767 20.134 19.865 31.305 26.523 20.899 13.853 46.678 1.943 69.423-8.567 7.086-3.274 13.78-6.367 19.799-8.396 11.986-5.33 24.383-6.999 34.859-4.683 9.722 2.15 17.318 7.652 20.836 15.097 6.542 13.845-.275 37.147-41.015 57.262-34.25 18.477-79.361 15.363-122.985 12.352-43.463-3-88.406-6.103-123.38 11.768-20.14 8.705-37.802 19.593-54.88 30.125-17.425 10.743-33.883 20.89-49.602 26.211-17.497 5.923-32.342 5.313-46.714-1.916C8.104 35.12 1.29 27.07 1.054 16.113.832 5.789 6.607-6.471 16.9-17.526c11.091-11.914 26.805-21.82 44.246-27.895 58.301-22.353 93.562-50.437 137.012-87.67 11.632-10.393 22.482-15.481 33.331-15.481z"/>
            <path d="M412.406-41.99h-.005.005zm-84.47-38.62c-7.09 0-13.984-1.65-20.456-5.774-11.733-6.71-22.147-17.54-32.217-28.012-22.516-23.412-43.783-45.525-76.022-17.51-5.24 4.371-10.43 8.782-15.45 13.047-34.4 29.24-66.893 56.857-118.69 74.81-17.451 5.503-33.255 14.887-44.514 26.428C10.252-7.028 4.505 4.602 4.821 14.289c.322 9.879 6.964 16.907 18.701 19.79.028.006.054.016.081.026 28.746 12.188 55.552-4.78 86.592-24.426C127.815-1.476 147.788-14.118 170.596-23c33.452-15.389 76.133-11.416 117.408-7.576 44.444 4.137 90.402 8.414 124.129-11.866a.094.094 0 0 0 .015-.009c16.219-9.02 27.965-19.12 33.967-29.21 5.148-8.652 5.991-17.254 2.379-24.224-6.963-13.436-30.132-19.772-56.85-7.124-5.36 2.005-11.158 4.753-17.297 7.66-14.87 7.049-31.098 14.738-46.41 14.738zm-99.71-65.544c4.312-.001 8.612.888 12.96 2.653 12.378 5.02 23.289 16.366 34.84 28.376 10.02 10.419 20.38 21.191 32.002 27.84 19.977 12.731 44.355 1.179 65.865-9.012 6.159-2.92 11.977-5.676 17.338-7.68 10.201-4.829 19.915-6.922 28.45-6.923 14.27-.001 25.251 5.846 29.754 14.532 3.785 7.305 2.93 16.27-2.409 25.244-6.097 10.25-17.977 20.48-34.355 29.59-34.024 20.454-80.153 16.159-124.766 12.009-41.136-3.83-83.672-7.788-116.894 7.494-22.743 8.857-42.668 21.47-60.248 32.598-15.643 9.902-30.417 19.254-44.655 24.42-15.84 5.745-29.466 5.78-42.88.104C11.011 32.08 4.1 24.706 3.763 14.324c-.325-9.971 5.53-21.882 16.064-32.68C31.207-30.02 47.167-39.499 64.767-45.049c51.598-17.883 84.015-45.438 118.338-74.61 5.02-4.267 10.213-8.68 15.45-13.048 10.377-9.018 20.052-13.447 29.672-13.447z"/>
            <path d="M407.254-43.759h-.005.005zM320.37-78.103c-6.473 0-12.78-1.464-18.744-5.09-12.166-6.653-22.616-18.192-32.722-29.354-10.434-11.522-20.29-22.405-31.36-27.41-12.38-5.594-24.428-2.91-37.917 8.447-8.572 6.934-16.956 14.27-25.064 21.366C145.245-84.494 114.93-57.97 68.69-43.667c-17.585 4.972-33.622 13.916-45.17 25.19C12.957-8.163 7.129 3.094 7.53 12.406c.4 9.31 7.122 15.688 18.923 17.96.026.004.048.01.072.019 26.829 9.185 50.87-6.624 78.709-24.928 18.6-12.229 39.68-26.09 64.976-34.87 31.792-12.96 72.196-8.145 111.272-3.49 45.312 5.4 92.164 10.983 125.477-11.292l.013-.009c33.378-20.897 38.58-40.134 32.321-51.17-3.772-6.65-11.923-11.09-22.364-12.179-11.349-1.182-24.543 1.652-37.147 7.985-4.642 1.922-9.53 4.31-14.705 6.84-14.301 6.988-29.93 14.626-44.707 14.626zm-95.161-65.74c16.779-.003 30.363 15 44.48 30.592 10.047 11.093 20.437 22.567 32.467 29.147 19.103 11.615 42.135.36 62.454-9.57 5.192-2.538 10.095-4.933 14.73-6.852 12.748-6.408 26.148-9.28 37.7-8.075 10.785 1.126 19.231 5.758 23.174 12.709 3.791 6.684 3.255 14.789-1.55 23.442-5.452 9.815-15.922 19.616-31.122 29.133-15.101 10.095-34.21 15.404-58.418 16.23-21.541.738-45.041-2.063-67.767-4.77-38.943-4.64-79.21-9.438-110.772 3.428-25.2 8.747-46.22 22.57-64.77 34.765C77.759 24.785 53.523 40.719 26.218 31.39c-12.309-2.38-19.32-9.105-19.743-18.94C6.06 2.838 12.002-8.709 22.78-19.23c11.67-11.395 27.87-20.434 45.608-25.448C114.4-58.908 144.63-85.36 173.865-110.936c8.116-7.1 16.509-14.443 25.087-21.386 9.721-8.184 18.345-11.522 26.257-11.522z"/>
            <path d="M402.102-45.529h-.005.005zm-89.318-30.07c-5.848 0-11.566-1.277-17.01-4.403-12.564-6.535-22.95-18.82-32.998-30.703-9.424-11.148-18.327-21.677-28.341-26.757-11.168-5.665-22.108-3.649-34.425 6.346-10.181 7.972-19.642 16.629-29.659 25.794-27.054 24.753-55.027 50.349-98.074 62.037-37.74 9.448-62.982 35.898-62.04 53.728.465 8.77 7.264 14.527 19.148 16.208.02.004.039.006.06.013 25.053 6.492 46.627-8.404 71.608-25.654 19.273-13.308 41.116-28.393 68.77-36.84 30.214-10.69 68.471-5.055 105.468.394 46.086 6.788 93.74 13.807 126.495-10.515a.07.07 0 0 0 .01-.008c13.69-9.65 23.002-19.173 27.679-28.306 4.043-7.9 4.315-15.085.783-20.782-7.675-12.38-33.692-16.314-62.34-1.083-3.825 1.751-7.744 3.742-11.893 5.849-13.803 7.008-28.916 14.683-43.241 14.683zm-90.557-66.036c15.783-.001 28.318 14.827 41.358 30.251 9.98 11.804 20.3 24.01 32.7 30.459 18.298 10.505 40.06-.545 59.26-10.295 4.159-2.112 8.086-4.107 11.903-5.854 13.166-7 27.117-10.535 39.246-9.96 11.38.547 20.297 4.714 24.463 11.433 3.736 6.028 3.48 13.57-.74 21.813-4.755 9.287-14.176 18.937-28.003 28.685-14.861 11.033-33.998 16.649-58.5 17.169-21.787.462-45.675-3.057-68.777-6.46-36.87-5.43-74.995-11.045-104.982-.436-27.517 8.405-49.29 23.44-68.5 36.706C76.47 19.266 54.72 34.29 29.208 27.69 16.785 25.925 9.674 19.82 9.18 10.497c-.488-9.242 5.551-20.41 16.57-30.637C37.727-31.251 54.154-39.833 72.01-44.304c42.788-11.62 70.665-37.127 97.625-61.793 10.032-9.18 19.508-17.85 29.714-25.841 8.454-6.86 15.979-9.696 22.878-9.697z"/>
            <path d="M396.95-47.298h-.005.005zm-91.785-25.797c-5.216 0-10.33-1.09-15.239-3.713-12.927-6.36-23.152-19.433-33.04-32.075-8.447-10.802-16.426-21.002-25.425-26.165-10.008-5.742-19.881-4.366-31.068 4.329-10.978 8.288-21.138 18.084-31.895 28.455-25.395 24.483-51.653 49.801-92.635 59.36-37.33 8.15-64.005 33.817-62.92 51.32.512 8.258 7.392 13.417 19.373 14.524 23.465 4.091 42.845-10.107 65.285-26.55 19.668-14.409 41.959-30.741 71.837-38.635 28.71-8.57 64.932-2.14 99.963 4.075 46.78 8.302 95.152 16.884 127.211-9.534l.009-.006c23.094-18.345 32.352-35.991 24.764-47.202-8.121-12-35.408-14.564-65.33 2.22-2.865 1.451-5.72 2.975-8.743 4.586-13.422 7.158-28.15 15.01-42.147 15.01zm-85.791-66.488c4.241-.001 8.413 1.212 12.614 3.623 9.18 5.265 17.22 15.545 25.732 26.429 9.816 12.549 19.965 25.526 32.69 31.785 17.599 9.404 38.213-1.59 56.402-11.289 3.028-1.615 5.89-3.14 8.744-4.584 14.976-8.402 29.342-11.99 41.066-11.99 12.098-.001 21.383 3.818 25.64 10.109 3.682 5.44 3.695 12.48.036 20.359-4.095 8.814-12.51 18.318-25.015 28.252-32.437 26.723-81.054 18.1-128.068 9.756-34.908-6.194-71.004-12.6-99.49-4.099-29.701 7.847-51.906 24.118-71.497 38.47C75.59 13.826 56.044 28.15 32.177 23.984c-12.521-1.155-19.742-6.662-20.29-15.502-.542-8.742 5.761-19.796 16.86-29.566 12.28-10.813 28.93-18.926 46.883-22.845 40.689-9.491 66.84-34.708 92.132-59.091 10.78-10.393 20.964-20.212 31.986-28.533 6.906-5.367 13.342-8.029 19.626-8.029z"/>
            <path d="M391.798-49.068h-.005.005zm-94.143-21.463c-4.6 0-9.135-.922-13.574-3.083-13.256-6.125-23.214-20.033-32.845-33.483-10.073-14.068-19.588-27.356-31.515-29.236-5.992-.94-12.189 1.024-18.95 6.011-11.326 8.212-21.778 18.876-32.842 30.165-22.942 23.41-48.947 49.946-88.48 57.634-17.856 3.333-34.55 10.886-47.01 21.27C21.36-12.019 15.081-1.706 15.645 6.333c.546 7.769 7.509 12.349 19.604 12.897C57.2 21.164 74.639 7.479 94.835-8.366c19.804-15.539 42.25-33.149 74.218-40.293 7.599-1.835 15.747-2.603 24.258-2.603 22.043 0 46.549 5.14 70.473 10.155 47.401 9.94 96.416 20.216 127.656-8.35l.004-.003c20.967-18.8 28.705-35.391 21.23-45.517-4.439-6.014-14.064-9.029-26.407-8.278-13.2.805-28.143 5.778-42.076 14.001a925.832 925.832 0 0 0-5.042 2.854c-13.78 7.834-27.913 15.869-41.494 15.869zm-80.867-67.085c1.039 0 2.07.08 3.098.243 12.366 1.948 22.005 15.412 32.212 29.665 9.55 13.34 19.425 27.132 32.437 33.143 17.053 8.304 35.881-2.4 54.089-12.75 1.689-.96 3.37-1.916 5.038-2.85 14.065-8.302 29.177-13.326 42.542-14.14 12.707-.773 22.666 2.397 27.322 8.703 7.835 10.615.044 27.718-21.372 46.923-31.639 28.93-80.926 18.595-128.588 8.604-33.046-6.93-67.22-14.095-94.273-7.557-31.74 7.092-54.087 24.625-73.804 40.093-20.373 15.984-37.967 29.796-60.31 27.82-12.68-.575-20-5.502-20.59-13.875-.586-8.374 5.832-19.017 17.172-28.468 12.596-10.496 29.461-18.131 47.49-21.495 39.205-7.625 63.97-32.896 87.922-57.334 11.097-11.323 21.576-22.018 32.974-30.28 5.852-4.32 11.328-6.445 16.641-6.445z"/>
            <path d="M290.05-67.999c-3.964 0-7.897-.738-11.808-2.42-13.555-5.83-23.139-20.626-32.408-34.935-8.983-13.871-17.468-26.973-28.316-29.106-5.149-1.014-10.5.471-16.367 4.537-11.412 7.906-21.906 19.27-33.017 31.303-21.865 23.675-46.644 50.509-85.1 56.477-40.563 6.297-65.8 32.067-64.689 46.347.57 7.298 7.613 11.318 19.838 11.318 20.57 0 36.305-13.33 54.527-28.765 19.71-16.695 42.048-35.618 75.957-41.828 25.911-4.746 58.364 3.17 89.75 10.827 47.957 11.7 97.547 23.797 127.851-6.961 18.64-18.92 25.146-34.973 17.85-44.039-4.701-5.842-14.894-8.343-27.965-6.857-13.848 1.572-29.413 7.355-43.825 16.287l-.369.228C317.46-76.6 303.582-68 290.051-68m-75.69-67.823c1.13 0 2.249.11 3.362.329 11.288 2.22 19.891 15.503 29 29.567 9.183 14.176 18.679 28.837 31.937 34.54 16.758 7.206 34.237-3.624 52.74-15.094l.37-.229c14.542-9.012 30.262-14.85 44.264-16.438 13.438-1.525 23.975 1.115 28.908 7.244 4.509 5.6 8.174 18.95-17.919 45.435l-.378-.37.378.37c-30.725 31.187-80.613 19.016-128.859 7.248-31.276-7.631-63.619-15.521-89.305-10.815-33.63 6.16-55.857 24.985-75.465 41.595-18.38 15.569-34.253 29.014-55.21 29.014-17.347 0-20.534-7.699-20.892-12.289-.623-8.006 5.92-18.23 17.501-27.346C47.71-33.23 64.786-40.375 82.872-43.183c38.09-5.912 62.738-32.602 84.483-56.149 11.152-12.078 21.685-23.484 33.193-31.457 4.864-3.37 9.415-5.033 13.812-5.033"/>
        </g>
    </g>
</svg>
