<svg xmlns="http://www.w3.org/2000/svg" width="162" height="48" viewBox="0 0 162 48">
    <g fill="none" fill-rule="evenodd">
        <path fill="#000" d="M6 48c-3.3 0-6-2.7-6-6V6c0-3.3 2.7-6 6-6h150c3.3 0 6 2.7 6 6v36c0 3.3-2.7 6-6 6H6z"/>
        <path fill="#A6A6A6" d="M156 0H6C2.7 0 0 2.7 0 6v36c0 3.3 2.7 6 6 6h150c3.3 0 6-2.7 6-6V6c0-3.3-2.7-6-6-6m0 .96c2.78 0 5.04 2.26 5.04 5.04v36c0 2.78-2.26 5.04-5.04 5.04H6C3.22 47.04.96 44.78.96 42V6C.96 3.22 3.22.96 6 .96h150"/>
        <path fill="#FFF" d="M128.324 36h2.238V20.999h-2.238V36zm20.168-9.598l-2.567 6.504h-.077l-2.664-6.504h-2.41l3.994 9.09-2.279 5.057h2.335l6.158-14.147h-2.49zm-12.7 7.894c-.732 0-1.756-.367-1.756-1.273 0-1.158 1.275-1.602 2.375-1.602.983 0 1.447.212 2.045.501a2.715 2.715 0 0 1-2.664 2.374zm.271-8.221c-1.621 0-3.3.714-3.995 2.297l1.988.829c.424-.83 1.216-1.1 2.046-1.1 1.158 0 2.335.694 2.354 1.929v.155c-.406-.232-1.274-.579-2.335-.579-2.143 0-4.324 1.178-4.324 3.377 0 2.008 1.757 3.301 3.726 3.301 1.504 0 2.335-.675 2.855-1.467h.078v1.158h2.162v-5.75c0-2.665-1.99-4.15-4.555-4.15zm-13.838 2.154h-3.185v-5.142h3.185c1.674 0 2.624 1.386 2.624 2.57 0 1.163-.95 2.572-2.624 2.572zm-.058-7.23h-5.365V36h2.238v-5.683h3.127c2.482 0 4.921-1.797 4.921-4.66 0-2.862-2.44-4.658-4.92-4.658zm-29.257 13.3c-1.547 0-2.842-1.295-2.842-3.074 0-1.799 1.295-3.113 2.842-3.113 1.526 0 2.725 1.314 2.725 3.113 0 1.779-1.199 3.075-2.725 3.075zm2.57-7.057h-.076c-.503-.598-1.47-1.14-2.687-1.14-2.553 0-4.891 2.243-4.891 5.123 0 2.861 2.338 5.085 4.89 5.085 1.218 0 2.185-.542 2.688-1.16h.076v.734c0 1.953-1.044 2.996-2.725 2.996-1.373 0-2.223-.985-2.571-1.817l-1.953.813c.56 1.352 2.049 3.015 4.524 3.015 2.63 0 4.853-1.547 4.853-5.316v-9.164H95.48v.831zM99.155 36h2.241V20.999h-2.241V36zm5.547-4.949c-.057-1.973 1.528-2.977 2.67-2.977.888 0 1.642.445 1.894 1.082l-4.564 1.895zm6.96-1.701c-.426-1.14-1.72-3.249-4.369-3.249-2.629 0-4.814 2.07-4.814 5.105 0 2.86 2.166 5.104 5.065 5.104 2.339 0 3.692-1.43 4.254-2.262l-1.74-1.16c-.58.85-1.373 1.412-2.514 1.412-1.14 0-1.952-.524-2.473-1.548l6.823-2.823-.232-.58zm-54.37-1.682v2.165h5.182c-.154 1.218-.561 2.107-1.18 2.725-.754.755-1.934 1.587-4.001 1.587-3.191 0-5.685-2.572-5.685-5.761 0-3.19 2.494-5.762 5.685-5.762 1.72 0 2.977.677 3.905 1.547l1.527-1.527c-1.296-1.238-3.015-2.186-5.432-2.186-4.37 0-8.043 3.558-8.043 7.928 0 4.368 3.674 7.926 8.043 7.926 2.358 0 4.136-.774 5.528-2.224 1.43-1.43 1.876-3.44 1.876-5.065 0-.502-.039-.966-.117-1.353h-7.287zM70.587 34.3c-1.545 0-2.88-1.277-2.88-3.094 0-1.837 1.335-3.094 2.88-3.094 1.547 0 2.882 1.257 2.882 3.094 0 1.817-1.335 3.094-2.882 3.094zm0-8.199c-2.822 0-5.122 2.147-5.122 5.105 0 2.939 2.3 5.104 5.122 5.104 2.824 0 5.124-2.165 5.124-5.104 0-2.958-2.3-5.105-5.124-5.105zM81.763 34.3c-1.547 0-2.881-1.277-2.881-3.094 0-1.837 1.334-3.094 2.881-3.094 1.547 0 2.88 1.257 2.88 3.094 0 1.817-1.333 3.094-2.88 3.094zm0-8.199c-2.822 0-5.123 2.147-5.123 5.105 0 2.939 2.3 5.104 5.123 5.104 2.823 0 5.123-2.165 5.123-5.104 0-2.958-2.3-5.105-5.123-5.105z"/>
        <path fill="#00D1FF" d="M12.522 9.046c-.348.37-.554.943-.554 1.686V37.27c0 .744.206 1.317.554 1.686l.089.086 14.868-14.867v-.35L12.61 8.958l-.089.088z"/>
        <path fill="#FFC100" d="M27.479 23.826v.35l4.955 4.958.112-.063 5.872-3.336c1.676-.954 1.676-2.514 0-3.465l-5.872-3.338-.111-.063-4.956 4.957z"/>
        <path fill="#F83547" d="M12.522 38.957c.553.584 1.466.657 2.495.074l17.53-9.961-5.068-5.069-14.957 14.956z"/>
        <path fill="#00F076" d="M12.522 9.046L27.479 24l5.067-5.069-17.53-9.96c-.482-.274-.939-.404-1.344-.404-.461 0-.856.167-1.15.478"/>
        <path fill="#FFF" d="M52.196 11.96c.014 1.139-.215 2.058-.683 2.755h3.64v-5.43h-2.957v2.675zm-1.66 5.169h-.884v-2.414h.704c.623-.536.928-1.455.915-2.755V8.4h4.807v6.315h.804v2.414h-.884v-1.53h-5.462v1.53z"/>
        <path stroke="#FFF" stroke-width=".5" d="M52.196 11.96c.014 1.139-.215 2.058-.683 2.755h3.64v-5.43h-2.957v2.675zm-1.66 5.169h-.884v-2.414h.704c.623-.536.928-1.455.915-2.755V8.4h4.807v6.315h.804v2.414h-.884v-1.53h-5.462v1.53z"/>
        <path fill="#FFF" d="M59.501 14.067c.533.54 1.185.808 1.956.808.77 0 1.424-.268 1.956-.808.533-.54.8-1.23.8-2.067 0-.837-.267-1.527-.8-2.066a2.644 2.644 0 0 0-1.956-.81c-.771 0-1.423.27-1.956.81-.531.539-.799 1.229-.799 2.066 0 .838.268 1.527.8 2.067m4.595.602c-.708.728-1.587 1.092-2.64 1.092-1.052 0-1.932-.364-2.638-1.092-.708-.727-1.061-1.616-1.061-2.669 0-1.052.353-1.943 1.06-2.67.707-.727 1.587-1.09 2.64-1.09 1.046 0 1.923.364 2.635 1.095.71.73 1.065 1.619 1.065 2.665 0 1.053-.354 1.942-1.06 2.669"/>
        <path stroke="#FFF" stroke-width=".5" d="M59.501 14.067c.533.54 1.185.808 1.956.808.77 0 1.424-.268 1.956-.808.533-.54.8-1.23.8-2.067 0-.837-.267-1.527-.8-2.066a2.644 2.644 0 0 0-1.956-.81c-.771 0-1.423.27-1.956.81-.531.539-.799 1.229-.799 2.066 0 .838.268 1.527.8 2.067zm4.596.602c-.708.728-1.587 1.092-2.64 1.092-1.052 0-1.932-.364-2.638-1.092-.708-.727-1.061-1.616-1.061-2.669 0-1.052.353-1.943 1.06-2.67.707-.727 1.587-1.09 2.64-1.09 1.046 0 1.923.364 2.635 1.095.71.73 1.065 1.619 1.065 2.665 0 1.053-.354 1.942-1.06 2.669z"/>
        <path fill="#FFF" d="M69.815 15.76c-1.06 0-1.948-.358-2.665-1.075-.718-.717-1.075-1.612-1.075-2.685 0-1.072.357-1.967 1.075-2.685.717-.717 1.605-1.076 2.665-1.076 1.085 0 1.968.392 2.645 1.176l-.645.624c-.488-.61-1.156-.914-2-.914-.785 0-1.447.264-1.986.794-.54.53-.81 1.223-.81 2.08 0 .859.27 1.554.81 2.083.539.529 1.201.794 1.986.794.865 0 1.602-.348 2.213-1.045l.643.643c-.33.395-.74.71-1.237.94a3.78 3.78 0 0 1-1.619.347"/>
        <path stroke="#FFF" stroke-width=".5" d="M69.815 15.76c-1.06 0-1.948-.358-2.665-1.075-.718-.717-1.075-1.612-1.075-2.685 0-1.072.357-1.967 1.075-2.685.717-.717 1.605-1.076 2.665-1.076 1.085 0 1.968.392 2.645 1.176l-.645.624c-.488-.61-1.156-.914-2-.914-.785 0-1.447.264-1.986.794-.54.53-.81 1.223-.81 2.08 0 .859.27 1.554.81 2.083.539.529 1.201.794 1.986.794.865 0 1.602-.348 2.213-1.045l.643.643c-.33.395-.74.71-1.237.94a3.78 3.78 0 0 1-1.619.347z"/>
        <path fill="#FFF" d="M76.413 15.6h-.926V9.284h-2.01V8.4h4.947v.884h-2.011z"/>
        <path stroke="#FFF" stroke-width=".5" d="M76.413 15.6h-.926V9.284h-2.01V8.4h4.947v.884h-2.011z"/>
        <path fill="#FFF" d="M84.776 8.4l-2.725 6.074c-.376.857-.934 1.287-1.678 1.287-.222 0-.46-.054-.715-.161l.241-.854c.155.086.316.13.482.13.215 0 .382-.042.498-.126.118-.084.227-.236.328-.457l.262-.573-2.424-5.32h1.086l1.78 4.133h.04L83.69 8.4h1.086z"/>
        <path stroke="#FFF" stroke-width=".5" d="M84.776 8.4l-2.725 6.074c-.376.857-.934 1.287-1.678 1.287-.222 0-.46-.054-.715-.161l.241-.854c.155.086.316.13.482.13.215 0 .382-.042.498-.126.118-.084.227-.236.328-.457l.262-.573-2.424-5.32h1.086l1.78 4.133h.04L83.69 8.4h1.086z"/>
        <path fill="#FFF" d="M85.823 15.6V8.4h5.21v7.2h-.927V9.284H86.75V15.6z"/>
        <path stroke="#FFF" stroke-width=".5" d="M85.823 15.6V8.4h5.21v7.2h-.927V9.284H86.75V15.6z"/>
        <path fill="#FFF" d="M92.681 15.6V8.4h.925v3.086h3.6V8.4h.926v7.2h-.926v-3.248h-3.6V15.6z"/>
        <path stroke="#FFF" stroke-width=".5" d="M92.681 15.6V8.4h.925v3.086h3.6V8.4h.926v7.2h-.926v-3.248h-3.6V15.6z"/>
        <path fill="#FFF" d="M101.073 14.067c.533.54 1.184.808 1.956.808.77 0 1.423-.268 1.956-.808.533-.54.8-1.23.8-2.067 0-.837-.267-1.527-.8-2.066a2.644 2.644 0 0 0-1.956-.81c-.772 0-1.423.27-1.956.81-.532.539-.8 1.229-.8 2.066 0 .838.268 1.527.8 2.067m4.596.602c-.708.728-1.588 1.092-2.64 1.092s-1.932-.364-2.639-1.092c-.708-.727-1.06-1.616-1.06-2.669 0-1.052.352-1.943 1.06-2.67.707-.727 1.587-1.09 2.639-1.09 1.046 0 1.924.364 2.635 1.095.71.73 1.066 1.619 1.066 2.665 0 1.053-.354 1.942-1.061 2.669"/>
        <path stroke="#FFF" stroke-width=".5" d="M101.073 14.067c.533.54 1.184.808 1.956.808.77 0 1.423-.268 1.956-.808.533-.54.8-1.23.8-2.067 0-.837-.267-1.527-.8-2.066a2.644 2.644 0 0 0-1.956-.81c-.772 0-1.423.27-1.956.81-.532.539-.8 1.229-.8 2.066 0 .838.268 1.527.8 2.067zm4.596.602c-.708.728-1.588 1.092-2.64 1.092s-1.932-.364-2.639-1.092c-.708-.727-1.06-1.616-1.06-2.669 0-1.052.352-1.943 1.06-2.67.707-.727 1.587-1.09 2.639-1.09 1.046 0 1.924.364 2.635 1.095.71.73 1.066 1.619 1.066 2.665 0 1.053-.354 1.942-1.061 2.669z"/>
        <path fill="#FFF" d="M111.437 14.715h1.861c.356 0 .644-.125.864-.373.222-.247.333-.518.333-.814 0-.295-.114-.564-.342-.81-.228-.243-.527-.367-.895-.367h-1.82v2.364zm0-3.228h1.679c.35 0 .63-.115.841-.347.21-.231.316-.484.316-.76 0-.274-.102-.526-.307-.753-.204-.228-.473-.342-.808-.342h-1.72v2.202zm-.925 4.113V8.4h2.604c.564 0 1.051.187 1.464.558.413.373.62.84.62 1.402 0 .342-.09.645-.268.905-.177.263-.414.46-.71.594v.04c.356.121.647.329.876.624.227.295.342.637.342 1.026a1.89 1.89 0 0 1-.649 1.467 2.217 2.217 0 0 1-1.533.584h-2.746z"/>
        <path stroke="#FFF" stroke-width=".5" d="M111.437 14.715h1.861c.356 0 .644-.125.864-.373.222-.247.333-.518.333-.814 0-.295-.114-.564-.342-.81-.228-.243-.527-.367-.895-.367h-1.82v2.364zm0-3.228h1.679c.35 0 .63-.115.841-.347.21-.231.316-.484.316-.76 0-.274-.102-.526-.307-.753-.204-.228-.473-.342-.808-.342h-1.72v2.202zm-.925 4.113V8.4h2.604c.564 0 1.051.187 1.464.558.413.373.62.84.62 1.402 0 .342-.09.645-.268.905-.177.263-.414.46-.71.594v.04c.356.121.647.329.876.624.227.295.342.637.342 1.026a1.89 1.89 0 0 1-.649 1.467 2.217 2.217 0 0 1-1.533.584h-2.746z"/>
    </g>
</svg>
