<svg xmlns="http://www.w3.org/2000/svg" xmlns:xlink="http://www.w3.org/1999/xlink" width="658" height="524" viewBox="0 0 658 524">
    <defs>
        <path id="a" d="M0 0h695v562H0z"/>
        <linearGradient id="c" x1="28.146%" x2="67.798%" y1="25.282%" y2="120.076%">
            <stop offset="0%" stop-color="#FDFDFF"/>
            <stop offset="100%" stop-color="#E6ECFE"/>
        </linearGradient>
        <path id="d" d="M0 0h88v84H0z"/>
        <linearGradient id="e" x1="90.711%" x2="31.85%" y1="22.665%" y2="89.241%">
            <stop offset="0%" stop-color="#FFF"/>
            <stop offset="100%" stop-color="#D2DBFF"/>
        </linearGradient>
        <path id="g" d="M0 0h88v84H0z"/>
        <linearGradient id="h" x1="93.208%" x2="0%" y1="39.592%" y2="86.372%">
            <stop offset="0%" stop-color="#FAFBFF"/>
            <stop offset="100%" stop-color="#E6ECFE"/>
        </linearGradient>
        <linearGradient id="j" x1="13.863%" x2="47.541%" y1="45.045%" y2="108.155%">
            <stop offset="0%" stop-color="#D3DCFE" stop-opacity=".6"/>
            <stop offset="100%" stop-color="#91A3FB" stop-opacity=".6"/>
        </linearGradient>
    </defs>
    <g fill="none" fill-rule="evenodd" transform="translate(-37 -30)">
        <mask id="b" fill="#fff">
            <use xlink:href="#a"/>
        </mask>
        <g mask="url(#b)" opacity=".7">
            <path fill="url(#c)" d="M641.767 173.197c47.79 0 86.768-38.902 86.768-86.599S689.557 0 641.767 0C593.978 0 555 38.901 555 86.598c0 47.697 38.978 86.6 86.767 86.6" transform="translate(37 30)"/>
            <g transform="translate(457 470)">
                <mask id="f" fill="#fff">
                    <use xlink:href="#d"/>
                </mask>
                <path fill="url(#e)" d="M44 84c24.233 0 44-18.868 44-42C88 18.866 68.233 0 44 0 19.764 0 0 18.867 0 42c0 23.132 19.765 42 44 42" mask="url(#f)"/>
            </g>
            <g opacity=".7" transform="translate(457 470)">
                <mask id="i" fill="#fff">
                    <use xlink:href="#g"/>
                </mask>
                <path fill="url(#h)" d="M44 84c24.233 0 44-18.868 44-42C88 18.866 68.233 0 44 0 19.764 0 0 18.867 0 42c0 23.132 19.765 42 44 42" mask="url(#i)"/>
            </g>
            <path fill="url(#j)" d="M212.121 398.218c23.933 0 43.86 6.97 60.514 21.088 37.282 31.601 74.313 60.634 117.408 68.676 50.193 9.369 99.05-12.764 149.363-67.662 40.91-44.636 80.53-52.99 122.478-61.836 37.037-7.809 75.334-15.885 115.131-51.148 69.836-61.878 70.318-137.339 39.814-184.675-24.399-37.864-57.858-59.374-96.76-62.203-52.173-3.799-113.473 26.905-159.955 80.118-24.958 28.57-54.196 52.07-86.905 69.846-29.363 15.958-61.662 27.67-98.742 35.806-68.54 15.04-141.143 14.974-211.366 14.915l-10.416-.009h-.09c-84.032 0-120.81 42.47-135.263 67.795-18.702 32.77-21.359 73.157-6.458 98.217 7.421 12.48 18.098 18.949 30.89 18.719 16.93-.308 39.308-9.247 65.222-19.596 26.301-10.504 56.113-22.414 84.891-26.535 7.048-1.011 13.793-1.516 20.244-1.516m200.19 93.205c-7.482 0-14.98-.704-22.518-2.111-43.42-8.104-80.609-37.251-118.035-68.974-46.85-39.713-111.956-13.709-164.27 7.186-26.035 10.4-48.522 19.381-65.7 19.693-.218.004-.438.007-.657.007-12.836 0-23.975-6.864-31.422-19.388-7.004-11.78-10.41-27.866-9.59-45.294.88-18.672 6.424-37.443 16.035-54.283 14.598-25.578 51.735-68.477 136.442-68.477h.089l10.418.008c142.993.121 290.851.259 395.99-120.102 22.368-25.61 48.673-46.63 76.063-60.784 28.83-14.898 58.223-21.745 85.013-19.794 18.981 1.38 36.714 7.09 52.705 16.97 17.143 10.592 32.316 26.018 45.096 45.85 17.08 26.506 23.307 58.712 17.535 90.69-6.283 34.809-26.198 67.912-57.59 95.728-40.065 35.502-78.54 43.613-115.75 51.461-41.73 8.797-81.143 17.11-121.758 61.425-43.124 47.052-85.248 70.186-128.096 70.189" opacity=".7" transform="translate(37 30)"/>
            <path fill="url(#j)" d="M159.287 262.731h.006-.006zm62.48 132.253c23.056 0 42.279 6.688 58.38 20.232 66.16 55.276 148.5 124.069 258.761 4.603 40.326-43.56 79.356-52.643 120.679-62.26 36.155-8.414 73.536-17.115 112.816-50.714 61.356-52.007 78.07-125.777 40.652-179.4-23.864-35.559-54.814-54.996-92-57.782-51.57-3.862-111.549 25.726-160.434 79.154-23.687 26.275-50.192 47.126-81.024 63.744-27.313 14.718-57.306 25.692-91.694 33.546-63.593 14.524-131.06 15.634-196.303 16.707-10.629.174-21.617.356-32.299.593h-.001c-82.182 1.526-116.94 43.248-130.344 67.984-16.837 31.068-18.388 68.997-3.772 92.234 7.602 12.083 18.888 18.409 31.776 17.818 16.383-.516 37.85-9.129 62.705-19.099 25.463-10.215 54.323-21.793 82.195-25.846 6.935-1.009 13.567-1.514 19.907-1.514zm196.165 92.13c-7.944 0-15.905-.83-23.912-2.486-43.72-9.037-83.102-41.94-114.746-68.378-45.46-38.241-108.472-12.962-159.104 7.348-24.975 10.02-46.543 18.672-63.158 19.196-13.398.622-25.103-5.935-32.974-18.45-14.864-23.631-13.332-62.12 3.726-93.597 13.545-24.994 48.643-67.153 131.51-68.692h-.002c10.685-.238 21.675-.419 32.303-.594 132.575-2.179 269.663-4.432 368.042-113.551 23.112-25.259 49.7-45.976 76.894-59.911 28.987-14.856 58.258-21.664 84.647-19.685 17.956 1.346 34.757 6.68 49.934 15.854 16.245 9.821 30.741 24.124 43.081 42.513 17.514 25.098 23.786 56.355 17.65 88.004-6.611 34.107-26.855 66.332-58.54 93.189-39.529 33.813-77.076 42.55-113.388 51.002-41.115 9.567-79.948 18.606-119.991 61.86-41.054 44.48-81.185 66.374-121.972 66.377z" opacity=".7" transform="translate(37 30)"/>
            <path fill="url(#j)" d="M165.888 265.003h.007-.007zm65.526 126.748c22.176 0 40.699 6.405 56.243 19.373l2.685 2.21c34.013 28.006 69.186 56.965 109.847 65.655 46.44 9.925 91.654-9.592 138.218-59.671 39.786-42.524 78.268-52.351 119.012-62.755 35.234-8.998 71.665-18.302 110.376-50.21 70.536-57.109 74.26-130.823 41.486-174.125-22.96-32.77-52.308-50.739-87.242-53.424-50.025-3.84-110.18 25.409-160.91 78.255-41.455 44.47-94.163 73.696-161.128 89.336-59.174 13.823-122.025 15.685-182.809 17.487-16.925.501-34.427 1.02-51.273 1.796l-.005.001c-80.192 3.102-112.883 43.965-125.233 68.045-15.052 29.353-15.579 64.872-1.28 86.373 7.908 11.894 19.542 17.904 32.754 16.924 15.835-.72 36.385-9.003 60.18-18.595 24.627-9.926 52.538-21.178 79.503-25.161 6.825-1.008 13.346-1.514 19.576-1.514zm192.121 91.1c-7.85 0-15.718-.848-23.63-2.538-40.985-8.76-77.876-39.136-110.426-65.936l-2.689-2.212c-44.076-36.775-104.997-12.217-153.948 7.515-23.91 9.637-44.559 17.96-60.606 18.69-13.7 1.02-25.773-5.207-33.964-17.525-6.846-10.296-10.633-24.378-10.66-39.657-.03-16.262 4.073-32.889 11.863-48.078 12.485-24.346 45.506-65.654 126.387-68.783 16.853-.777 34.36-1.294 51.29-1.798 123.267-3.652 250.732-7.432 342.994-106.399 23.926-24.927 50.808-45.343 77.741-59.05 29.567-15.047 57.914-21.656 84.256-19.624 35.357 2.718 65.045 20.88 88.234 53.977 17.953 23.718 24.267 54.027 17.762 85.318-6.944 33.419-27.514 64.765-59.487 90.65-38.94 32.097-75.52 41.437-110.896 50.47-40.546 10.356-78.842 20.135-118.355 62.367-39.013 41.956-77.139 62.61-115.866 62.613z" opacity=".7" transform="translate(37 30)"/>
            <path fill="url(#j)" d="M172.49 267.276h.006-.006zm68.57 121.242c21.3 0 39.118 6.12 54.107 18.516 2.41 1.95 4.838 3.928 7.28 5.913 64.07 52.147 136.688 111.249 235.462 5.867 39.296-41.533 77.288-52.124 117.51-63.339 34.264-9.551 69.695-19.43 107.765-49.614 35.83-27.66 57.816-62.832 61.918-99.046 2.95-26.063-4.008-50.853-19.593-69.804-22.04-30.047-49.787-46.57-82.496-49.137-49.03-3.85-107.852 24.372-161.375 77.425-38.967 40.35-88.256 67.106-150.672 81.793-55.2 12.99-113.891 15.282-170.65 17.498-22.453.877-45.671 1.785-67.778 3.36h-.008c-78.116 4.695-108.728 44.602-120.025 67.973-13.568 28.073-13.163 60.482 1.01 80.647 8.241 11.724 20.255 17.42 33.835 16.03 15.283-.923 34.914-8.877 57.646-18.087 23.79-9.64 50.756-20.566 76.816-24.482 6.712-1.008 13.126-1.513 19.248-1.513zm188.054 90.123c-7.38 0-14.78-.786-22.215-2.355-38.846-8.198-72.634-35.697-105.309-62.29a3443.69 3443.69 0 0 0-7.282-5.917c-42.694-35.305-101.529-11.467-148.802 7.687-22.844 9.254-42.57 17.247-58.047 18.18-14.057 1.44-26.518-4.456-35.053-16.6-14.447-20.553-14.896-53.512-1.121-82.01 8.873-18.357 23.288-34.137 41.687-45.638 21.518-13.45 48.253-21.22 79.47-23.097 22.13-1.577 45.358-2.485 67.822-3.362 114.903-4.489 233.719-9.13 320.408-98.89 24.839-24.619 52.02-44.744 78.613-58.204 29.735-15.05 57.945-21.649 83.835-19.618 33.119 2.6 61.2 19.306 83.458 49.656 15.798 19.204 22.862 44.354 19.87 70.784-4.143 36.58-26.313 72.078-62.427 99.959-38.278 30.348-73.845 40.263-108.238 49.853-40.037 11.161-77.851 21.704-116.887 62.962-36.993 39.469-73.115 58.899-109.782 58.9z" opacity=".7" transform="translate(37 30)"/>
            <path fill="url(#j)" d="M179.092 269.548h.006-.006zm71.672 115.793c18.508 0 36.269 4.789 51.912 17.6 3.83 3.048 7.77 6.23 11.58 9.307 31.077 25.089 63.208 51.034 99.655 58.693 41.398 8.7 81.797-8.516 123.5-52.628 38.877-40.608 76.447-51.992 116.22-64.044 33.238-10.07 67.607-20.484 104.945-48.9 36.45-26.783 59.475-62.588 63.18-98.243 2.58-24.838-4.527-48.038-20.02-65.33-21.098-27.395-47.248-42.498-77.764-44.93-64.484-5.138-129.066 45.835-161.829 76.675-36.688 36.589-82.876 61.01-141.19 74.647-51.608 12.069-106.525 14.539-159.633 16.928-28.584 1.287-55.58 2.502-82.162 5.105l-.011.001c-75.944 6.3-104.479 45.157-114.728 67.759-11.94 26.33-10.695 56.5 3.1 75.071 8.598 11.579 21.039 16.95 35.027 15.126 14.722-1.12 34.335-9.11 55.099-17.572 28.797-11.734 62.012-25.265 93.12-25.265zm184.078 89.124c-45.69.001-85.003-31.75-121.439-61.167-3.807-3.074-7.744-6.254-11.58-9.305-41.315-33.836-98.066-10.715-143.666 7.865-21.77 8.872-40.573 16.532-55.471 17.665-14.462 1.886-27.352-3.674-36.257-15.665-14.076-18.954-15.381-49.672-3.244-76.433 8.042-17.735 21.588-33.158 39.177-44.6 20.556-13.377 46.352-21.435 76.663-23.95 26.617-2.607 53.632-3.822 82.232-5.11 107.349-4.83 218.352-9.824 299.941-91.193 25.875-24.357 53.361-44.195 79.502-57.378 29.905-15.08 57.956-21.696 83.38-19.675 30.912 2.462 57.39 17.742 78.699 45.414 15.718 17.54 22.947 41.112 20.326 66.332-3.744 36.033-26.967 72.185-63.716 99.187-37.522 28.554-72.013 39.005-105.363 49.111-39.601 11.999-77.004 23.333-115.633 63.682-38.215 40.422-72.37 55.216-103.551 55.22z" opacity=".7" transform="translate(37 30)"/>
            <path fill="url(#j)" d="M185.692 271.82h.007-.007zm74.72 110.285c17.728 0 34.745 4.566 49.774 16.744 5.155 4.03 10.46 8.295 15.59 12.42 29.597 23.793 60.2 48.397 94.62 55.664 39.003 8.235 77.116-7.831 116.516-49.123 38.55-39.764 75.793-51.98 115.222-64.912 32.129-10.536 65.352-21.434 101.834-48.022 37.604-26.243 61.085-61.694 64.429-97.265 2.22-23.623-5.033-45.296-20.43-61.032-20.136-24.817-44.704-38.53-73.06-40.81-58.424-4.687-120.485 38.745-162.258 76.014-77.256 74.034-181.424 79.002-282.163 83.807-33.086 1.58-64.34 3.07-94.708 6.902l-.013.001c-73.678 7.913-100.138 45.626-109.35 67.405-10.41 24.6-8.409 52.592 4.98 69.655 8.988 11.453 21.897 16.496 36.346 14.205 14.156-1.315 32.801-8.957 52.541-17.05 27.86-11.42 60.015-24.603 90.13-24.603zM440.12 470.38c-6.647 0-13.311-.708-20.002-2.12-34.74-7.336-65.473-32.044-95.191-55.937-5.127-4.122-10.43-8.385-15.585-12.415-39.945-32.37-94.616-9.957-138.546 8.052-19.835 8.133-38.57 15.814-52.886 17.14-14.913 2.369-28.276-2.855-37.581-14.713-6.59-8.396-10.634-19.404-11.695-31.83-1.104-12.928 1.154-26.476 6.53-39.184 7.226-17.076 19.907-32.106 36.672-43.468 19.583-13.27 44.406-21.6 73.78-24.755 30.419-3.838 61.693-5.33 94.805-6.91 100.49-4.792 204.4-9.748 281.306-83.448 27.46-24.498 54.505-43.524 80.403-56.567 30.072-15.144 57.958-21.804 82.888-19.803 28.74 2.31 53.624 16.192 73.96 41.258 15.637 15.979 23.027 38.034 20.767 62.058-3.381 35.968-27.07 71.776-64.99 98.24-36.642 26.705-69.97 37.635-102.2 48.206-39.264 12.879-76.353 25.044-114.665 64.563-33.012 34.598-65.184 51.632-97.77 51.633z" opacity=".7" transform="translate(37 30)"/>
            <path fill="url(#j)" d="M192.295 274.092h.006-.006zm77.767 104.78c16.944 0 33.223 4.34 47.633 15.885 6.394 4.902 12.962 10.182 19.317 15.286 28.115 22.596 57.188 45.958 89.642 52.91 36.681 7.857 72.583-7.073 109.76-45.644 38.347-39.036 75.397-52.138 114.625-66.01 30.908-10.93 62.87-22.233 98.323-46.916 38.197-25.265 62.738-61.189 65.659-96.105 1.873-22.429-5.521-42.642-20.821-56.917l-.052-.053c-51.573-60.104-129.29-47.079-230.994 38.716-72.93 66.978-170.622 71.605-265.097 76.081-37.082 1.757-72.108 3.417-105.658 8.655-.004.002-.009.002-.015.003-52.084 6.957-89.957 31.345-103.906 66.907-9.121 23.252-6.507 48.535 6.662 64.411 9.41 11.35 22.832 16.057 37.798 13.258 13.583-1.501 31.256-8.796 49.967-16.52 26.928-11.113 58.024-23.947 87.157-23.947zm175.472 87.465c-6.371.002-12.753-.69-19.165-2.061-32.77-7.02-61.969-30.485-90.208-53.18-6.346-5.099-12.91-10.374-19.303-15.276-38.576-30.901-91.174-9.192-133.436 8.252-18.803 7.759-36.56 15.09-50.285 16.603-15.42 2.888-29.303-1.988-39.043-13.731-13.475-16.25-16.175-42.066-6.878-65.766 6.426-16.382 18.244-30.99 34.178-42.247 18.59-13.131 42.411-21.713 70.802-25.509 33.62-5.248 68.679-6.91 105.796-8.666 94.235-4.467 191.675-9.082 264.266-75.746C664.647 102.64 742.999 89.656 795.153 150.4c15.59 14.561 23.126 35.156 21.218 57.99-2.955 35.326-27.72 71.63-66.248 97.114-35.589 24.776-67.64 36.11-98.632 47.07-39.074 13.82-75.982 26.87-114.107 65.677-31.05 32.217-61.279 48.085-91.85 48.087z" opacity=".7" transform="translate(37 30)"/>
            <path fill="url(#j)" d="M198.896 276.365h.007-.007zm80.817 99.273c16.16 0 31.697 4.115 45.491 15.027 7.554 5.674 15.286 11.909 22.763 17.94 26.638 21.484 54.184 43.7 84.721 50.398 34.437 7.554 68.202-6.25 103.226-42.196 38.328-38.468 75.378-52.542 114.608-67.44 29.523-11.213 60.055-22.81 94.23-45.476 39.355-24.608 64.349-60.029 66.874-94.764 1.545-21.261-5.98-40.077-21.192-52.984a.43.43 0 0 1-.062-.06c-28.656-31.438-64.035-40.426-108.16-27.476-33.509 9.833-71.181 31.969-118.554 69.66-68.927 60.482-160.69 64.54-249.432 68.464-40.632 1.797-79.014 3.493-115.205 10.299a.058.058 0 0 0-.016.003c-50.278 8.13-86.146 32.284-98.407 66.265-7.774 21.552-4.582 44.85 8.134 59.353 9.87 11.258 23.865 15.615 39.402 12.27 13.001-1.683 29.697-8.626 47.373-15.976 26.005-10.815 56.052-23.307 84.206-23.307zm171.424 86.77c-6.187 0-12.414-.697-18.74-2.085-30.849-6.765-58.521-29.084-85.283-50.667-7.467-6.024-15.19-12.25-22.738-17.92-37.213-29.438-87.744-8.427-128.349 8.456-17.762 7.387-34.538 14.363-47.663 16.058-15.986 3.448-30.443-1.063-40.651-12.707-13.036-14.87-16.328-38.696-8.389-60.702 5.65-15.654 16.613-29.81 31.707-40.937 17.587-12.961 40.38-21.778 67.75-26.206 36.282-6.82 74.707-8.52 115.385-10.318 88.507-3.913 180.028-7.961 248.623-68.152 47.538-37.824 85.358-60.034 119.043-69.92 20.948-6.148 40.374-7.324 57.74-3.496 19.265 4.245 36.684 14.786 51.774 31.328 15.527 13.193 23.207 32.396 21.63 54.085-1.206 16.605-7.74 34.01-18.893 50.334-11.772 17.228-28.574 32.95-48.596 45.468-34.286 22.74-64.889 34.363-94.486 45.605-39.085 14.845-76.005 28.866-114.12 67.123-18.934 19.434-37.062 32.195-55.411 39.01-10.137 3.765-20.177 5.642-30.333 5.642z" opacity=".7" transform="translate(37 30)"/>
            <path fill="url(#j)" d="M205.498 278.637h.007-.007zm83.809 93.71c16.9 0 31.206 4.707 43.405 14.224 8.638 6.348 17.427 13.492 25.928 20.404 50.758 41.256 103.242 83.915 176.777 9.33 38.577-38.143 75.923-53.313 115.463-69.373 27.896-11.332 56.742-23.048 89.267-43.532 39.906-23.527 65.982-59.25 68.068-93.239 1.237-20.128-6.415-37.613-21.544-49.234a.473.473 0 0 1-.073-.066c-62.765-64.497-147.728-10.257-222.437 45.647-65.211 54.493-151.526 57.805-234.999 61.006-43.797 1.681-85.164 3.27-123.516 11.783l-.02.004c-48.391 9.295-82.24 33.166-92.863 65.491-6.638 20.196-3.034 41.075 9.401 54.488 10.37 11.18 24.99 15.167 41.166 11.221 12.408-1.854 28.123-8.443 44.76-15.419 19.647-8.237 41.916-17.574 63.485-21.178 6.209-1.035 12.114-1.558 17.732-1.558zM456.394 458.5c-6.002 0-12.045-.698-18.182-2.09-28.982-6.574-55.136-27.831-80.427-48.388-8.49-6.9-17.267-14.034-25.892-20.374-35.858-27.972-84.33-7.65-123.28 8.679-16.716 7.011-32.507 13.63-45.022 15.5-16.615 4.056-31.703-.071-42.42-11.63-12.771-13.772-16.487-35.163-9.695-55.826 4.897-14.903 15.018-28.58 29.27-39.552 16.57-12.76 38.308-21.791 64.614-26.845 38.47-8.539 79.893-10.129 123.75-11.811 83.245-3.194 169.326-6.496 234.21-60.716 75.185-56.26 160.688-110.794 224.215-45.564 15.472 11.905 23.296 29.786 22.034 50.361-2.116 34.43-28.444 70.567-68.716 94.308-32.609 20.538-61.512 32.278-89.463 43.632-39.411 16.008-76.634 31.129-115.013 69.074-17.817 18.074-34.853 29.903-52.072 36.162-9.332 3.39-18.573 5.078-27.911 5.08z" opacity=".7" transform="translate(37 30)"/>
            <path fill="url(#j)" d="M212.1 280.91h.006-.006zm86.859 88.202c16.018 0 29.62 4.426 41.262 13.368 9.65 6.927 19.393 14.945 28.817 22.698 23.713 19.512 48.233 39.688 75.093 46.046 30.156 7.139 59.853-4.45 90.788-35.423 39.26-38.2 75.631-53.919 117.743-72.117 25.862-11.176 52.606-22.733 82.88-40.778 40.424-22.4 67.598-58.322 69.25-91.527.946-19.036-6.826-35.255-21.883-45.67a.859.859 0 0 1-.085-.068c-62.673-59.974-145.279-2.02-218.16 49.108-61.752 48.957-143.044 51.392-221.658 53.747-46.618 1.395-90.65 2.715-130.738 13.068l-.02.005c-46.426 10.438-78.245 33.98-87.296 64.583-5.49 18.563-1.48 37.654 10.466 49.826 10.754 10.954 26.467 14.641 43.109 10.105a.42.42 0 0 1 .065-.015c11.739-2.003 26.465-8.236 42.055-14.833 18.83-7.968 40.17-16.998 60.851-20.546 6.12-1.05 11.935-1.577 17.46-1.577zm162.57 85.567c-34.463 0-64.209-24.475-93.353-48.455-9.406-7.741-19.134-15.745-28.765-22.659-34.513-26.512-80.935-6.867-118.234 8.916-15.652 6.624-30.436 12.879-42.326 14.915-17.117 4.653-33.3.838-44.4-10.473-12.29-12.52-16.428-32.123-10.799-51.152 4.179-14.13 13.472-27.304 26.875-38.1 15.55-12.527 36.213-21.752 61.415-27.42 40.23-10.388 84.334-11.71 131.022-13.107 78.395-2.348 159.457-4.776 220.887-53.478 35.996-25.253 76.76-53.85 115.454-67.213 42.217-14.581 76.375-8.634 104.42 18.175 15.425 10.692 23.39 27.317 22.42 46.817-.798 16.039-7.423 33.008-19.158 49.074-12.382 16.954-29.939 32.017-50.77 43.558-30.332 18.079-57.114 29.654-83.017 40.848-41.988 18.146-78.252 33.817-117.328 71.838-27.53 27.567-51.934 37.916-74.344 37.916z" opacity=".7" transform="translate(37 30)"/>
            <path fill="url(#j)" d="M218.701 283.181h.007-.007zm89.912 82.696c15.138 0 28.034 4.145 39.116 12.512 10.595 7.416 21.187 16.28 31.43 24.854 22.268 18.635 45.297 37.906 70.395 44.168 28.12 7.008 55.88-3.494 84.867-32.114 40.704-38.927 78.637-56.24 122.56-76.287 23.097-10.541 46.98-21.44 73.957-36.597 41.54-21.563 69.17-56.743 70.415-89.634.68-17.988-7.205-33.006-22.205-42.29a.616.616 0 0 1-.093-.068c-26.111-23.109-55.998-28.009-94.05-15.416-33.776 11.174-68.788 34.295-105.856 58.774-4.652 3.072-9.314 6.15-13.985 9.211-58.522 43.827-135.166 45.291-209.286 46.705-49.137.939-95.548 1.823-136.984 14.133-.006.003-.014.005-.022.007-44.381 11.557-74.17 34.72-81.724 63.554-4.52 17.245-.282 34.208 11.331 45.377 11.334 10.899 27.825 14.142 45.246 8.9a.307.307 0 0 1 .066-.017c11.116-2.153 24.847-8.023 39.384-14.238 18.015-7.704 38.435-16.433 58.232-19.933 6.036-1.066 11.766-1.601 17.206-1.601zm158.005 84.98c-32.673.001-60.787-23.527-88.328-46.58-10.223-8.554-20.793-17.398-31.358-24.798-33.18-25.05-77.562-6.073-113.224 9.173-14.59 6.24-28.373 12.131-39.625 14.317-17.89 5.378-34.854 2.014-46.544-9.228-11.973-11.513-16.347-28.97-11.703-46.693 7.683-29.32 37.82-52.834 82.686-64.519 41.606-12.358 88.105-13.246 137.331-14.186 73.905-1.41 150.327-2.87 208.533-46.46 4.704-3.083 9.366-6.162 14.016-9.232 37.145-24.529 72.23-47.699 106.174-58.93 18.288-6.051 34.489-8.026 49.53-6.037 16.833 2.225 31.817 9.319 45.805 21.685 15.4 9.555 23.496 24.985 22.797 43.46-.595 15.704-7.268 32.406-19.302 48.303-12.7 16.778-30.621 31.464-51.824 42.472-27.005 15.171-50.915 26.083-74.038 36.636-43.81 19.996-81.65 37.265-122.178 76.027-25.429 25.106-48.008 34.59-68.748 34.59z" opacity=".7" transform="translate(37 30)"/>
            <path fill="url(#j)" d="M225.303 285.454h.006-.006zm92.965 77.188c14.255 0 26.446 3.86 36.967 11.653 11.476 7.819 22.81 17.516 33.77 26.89 20.843 17.829 42.393 36.266 65.781 42.466 26.146 6.929 52.032-2.51 79.139-28.856 43.62-40.96 84.831-60.573 132.548-83.28 18.801-8.947 38.244-18.199 59.86-29.594 41.99-20.342 70.745-55.529 71.57-87.569.44-16.983-7.558-30.864-22.515-39.083a.608.608 0 0 1-.1-.068c-24.128-19.584-51.111-23.738-84.92-13.07-30.228 9.536-61.985 29.634-95.606 50.911-9.48 6-19.283 12.204-29.098 18.189-55.499 39.066-127.83 39.491-197.78 39.9-51.39.303-99.93.59-142.364 14.963l-.022.007c-42.261 12.638-70.025 35.387-76.17 62.413-3.574 15.715.915 31.099 12.005 41.152 11.962 10.847 29.308 13.61 47.589 7.58l.068-.017c10.476-2.288 23.202-7.791 36.675-13.62 17.208-7.444 36.713-15.882 55.63-19.333 5.962-1.088 11.614-1.634 16.973-1.634zm153.293 84.615c-5.655 0-11.34-.767-17.122-2.3-23.688-6.28-45.36-24.817-66.315-42.746-10.933-9.35-22.238-19.021-33.675-26.816-31.856-23.593-74.213-5.27-108.246 9.455-13.52 5.848-26.291 11.372-36.889 13.692-18.748 6.169-36.565 3.302-48.892-7.873-11.457-10.386-16.097-26.258-12.416-42.454 6.256-27.512 34.355-50.623 77.09-63.405 42.64-14.442 91.282-14.727 142.78-15.03 69.741-.41 141.855-.834 197.044-39.679 9.843-6.003 19.641-12.204 29.117-18.201 33.698-21.326 65.528-41.47 95.92-51.059 34.263-10.811 61.636-6.594 86.138 13.272 15.388 8.48 23.615 22.78 23.163 40.275-.389 15.12-7.3 31.969-19.46 47.441-13.025 16.58-31.3 30.86-52.853 41.297-21.62 11.399-41.074 20.657-59.888 29.61-49.578 23.592-88.736 42.229-132.195 83.034-14.687 14.277-28.666 23.467-42.725 28.09-6.89 2.266-13.711 3.397-20.576 3.397z" opacity=".7" transform="translate(37 30)"/>
            <path fill="url(#j)" d="M231.905 287.726h.006-.006zm96.02 71.682c13.371 0 24.859 3.577 34.818 10.79 12.298 8.143 24.262 18.66 35.83 28.831 19.434 17.084 39.53 34.75 61.259 40.925 24.575 6.984 47.96-1.173 73.597-25.665 50.002-46.032 94.31-67.407 155.633-96.99 10.447-5.04 21.25-10.252 32.668-15.87 42.396-19.082 72.289-54.167 72.717-85.331.219-16.033-7.883-28.834-22.816-36.052a.554.554 0 0 1-.107-.065c-49-36.119-102.038-3.436-163.452 34.405-13.546 8.348-27.554 16.979-41.907 25.085-52.663 34.64-120.982 33.98-187.049 33.349-53.406-.516-103.851-1-146.968 15.537l-.024.01c-40.067 13.67-65.818 35.97-70.65 61.178-2.733 14.26 1.937 28.152 12.49 37.161 12.64 10.788 30.92 13.017 50.155 6.124.021-.008.046-.015.068-.021 9.817-2.403 21.526-7.534 33.922-12.97 16.408-7.194 35.007-15.35 53.054-18.758 5.897-1.115 11.478-1.673 16.762-1.673zm148.455 84.283c-5.59 0-11.206-.812-16.92-2.436-22.023-6.26-42.234-24.028-61.781-41.21-11.536-10.143-23.465-20.628-35.71-28.735-30.55-22.138-70.899-4.447-103.316 9.767-12.435 5.453-24.184 10.604-34.109 13.039-19.693 7.048-38.447 4.724-51.46-6.382-10.93-9.328-15.766-23.7-12.941-38.443 4.926-25.696 30.999-48.367 71.53-62.2 43.357-16.626 96.275-16.119 147.458-15.623 65.863.627 133.971 1.287 186.327-33.149 14.371-8.12 28.368-16.744 41.904-25.083 30.5-18.796 59.31-36.547 86.642-45.012 30.65-9.491 55.524-6.115 78.274 10.632 15.397 7.465 23.75 20.693 23.524 37.26-.436 31.672-30.655 67.257-73.493 86.536-11.403 5.61-22.208 10.824-32.658 15.864-61.218 29.534-105.448 50.874-155.294 96.759-13.713 13.1-26.742 21.464-39.821 25.56-6.083 1.903-12.105 2.856-18.156 2.856z" opacity=".7" transform="translate(37 30)"/>
            <path fill="url(#j)" d="M238.506 289.998h.007-.007zm99.081 66.173c12.486 0 23.265 3.293 32.66 9.935 13.063 8.379 25.546 19.718 37.617 30.686 18.88 17.152 36.711 33.354 56.83 39.534 22.705 6.975 44.388-.186 68.238-22.54 54.993-49.556 103.211-75.874 184.198-112.85 48.433-20.151 73.807-56.973 73.85-82.937.027-15.125-8.178-26.907-23.105-33.176a.672.672 0 0 1-.112-.06c-45.527-30.101-93.113-1.138-148.213 32.393-16.918 10.296-34.411 20.942-52.886 30.557-49.998 30.519-114.57 28.756-177.014 27.049-52.78-1.445-107.36-2.933-150.875 15.857-.008.002-.016.007-.024.01-56.337 21.829-72.381 55.184-63.29 78.559 3.893 10.01 12.143 17.624 23.234 21.442 12.087 4.163 26.134 3.396 40.622-2.216.022-.01.045-.017.068-.023 9.129-2.496 19.804-7.248 31.107-12.28 15.621-6.955 33.325-14.839 50.51-18.215 5.843-1.149 11.364-1.725 16.585-1.725zm143.475 84.055c-5.543 0-11.105-.869-16.767-2.608-20.407-6.269-39.184-23.328-57.343-39.826-12.03-10.93-24.47-22.232-37.462-30.566-29.265-20.684-66.018-4.32-98.445 10.119-11.337 5.047-22.046 9.817-31.27 12.342-14.78 5.717-29.136 6.487-41.521 2.221-11.475-3.949-20.017-11.845-24.057-22.231-9.334-24 6.85-58.138 64.052-80.305 43.787-18.907 98.512-17.41 151.438-15.963 62.246 1.702 126.614 3.46 176.31-26.872 18.476-9.617 35.948-20.25 52.846-30.534 55.476-33.762 103.385-62.922 149.615-32.403 15.425 6.502 23.906 18.716 23.878 34.4-.024 14.328-7.067 30.475-19.832 45.47-13.703 16.098-32.665 29.482-54.833 38.705-80.834 36.91-128.97 63.176-183.82 112.607-12.773 11.968-24.884 19.53-37.017 23.106-5.288 1.56-10.522 2.338-15.772 2.338z" opacity=".7" transform="translate(37 30)"/>
            <path fill="url(#j)" d="M245.108 292.27h.006-.006zm102.143 60.666c11.6 0 21.672 3.01 30.503 9.075 13.77 8.536 26.657 20.711 39.12 32.482 34.467 32.56 67.021 63.313 115.563 18.789 58.782-51.763 107.59-82.342 180.09-112.838 22.253-8.51 41.359-21.279 55.273-36.939 12.849-14.461 19.85-29.893 19.712-43.455-.143-14.266-8.452-25.08-23.395-30.453a.583.583 0 0 1-.112-.052c-19.398-11.326-39.816-12.932-64.262-5.06-22.112 7.121-45.494 21.369-70.248 36.45-19.689 11.996-40.046 24.4-62.334 35.018-47.484 26.68-108.55 23.8-167.606 21.012-54.327-2.564-110.504-5.216-154.15 15.914a.164.164 0 0 0-.025.011c-24.432 10.71-42.452 24.087-52.113 38.684-8.22 12.422-10.137 25.341-5.4 36.381 7.725 18.01 33.71 29.752 66.649 16.042l.063-.023c8.41-2.56 18.033-6.92 28.22-11.54 14.847-6.728 31.672-14.356 48.006-17.71 5.803-1.19 11.277-1.788 16.446-1.788zm138.343 83.938c-5.511 0-11.027-.939-16.648-2.82-18.842-6.306-35.436-21.982-53.003-38.58-12.415-11.725-25.251-23.852-38.932-32.332-28.005-19.235-62.88-3.425-93.65 10.524-10.217 4.631-19.868 9.006-28.354 11.591-10.181 4.235-19.725 6.08-28.301 6.081-19.836.002-34.515-9.863-40.086-22.85-4.921-11.472-2.961-24.847 5.516-37.658 9.803-14.814 28.023-28.36 52.687-39.172 43.958-21.276 100.305-18.618 154.795-16.044 58.866 2.778 119.734 5.65 166.919-20.861 22.265-10.61 42.591-22.994 62.25-34.972 49.787-30.333 92.789-56.531 135.849-31.435 15.476 5.585 24.082 16.838 24.23 31.691.142 13.897-6.982 29.654-20.053 44.366-14.059 15.822-33.346 28.717-55.78 37.296-72.33 30.424-121.038 60.942-179.69 112.587-11.862 10.882-23.09 17.668-34.311 20.739-4.508 1.23-8.97 1.849-13.438 1.849z" opacity=".7" transform="translate(37 30)"/>
            <path fill="url(#j)" d="M251.71 294.542h.006-.006zM356.92 349.7c10.714 0 20.073 2.726 28.337 8.215 14.427 8.616 27.602 21.64 40.343 34.237 31.62 31.26 61.482 60.786 106.341 20.625 55.788-47.909 101.06-84.039 175.988-112.824 22.161-7.736 42.102-20.329 56.17-35.468 12.951-13.938 20.22-29.336 19.942-42.246-.29-13.452-8.7-23.348-23.68-27.866a.64.64 0 0 1-.109-.046c-39.495-19.947-77.793 3.716-122.14 31.113-21.925 13.548-44.597 27.556-70.455 38.754-45.11 23.1-102.889 19.103-158.766 15.236-55.71-3.853-113.317-7.838-156.859 15.709a.087.087 0 0 0-.02.011c-51.336 25.394-60.064 54.518-51.94 71.74 4.328 9.18 13.718 15.973 25.766 18.642 13.14 2.91 28.725.798 43.877-5.95 7.701-2.605 16.247-6.562 25.293-10.752 14.088-6.521 30.054-13.914 45.553-17.258 5.782-1.246 11.227-1.872 16.358-1.872zm133.208 83.97c-5.55 0-11.097-1.04-16.714-3.102-17.326-6.368-32.597-21.468-48.767-37.454-12.684-12.54-25.8-25.507-40.113-34.055-26.78-17.788-59.811-2.495-88.955 10.999-9.08 4.205-17.659 8.176-25.37 10.78-15.358 6.844-31.243 8.988-44.666 6.014-12.458-2.76-22.19-9.825-26.698-19.384-8.384-17.778.351-47.699 52.554-73.526 43.886-23.725 101.689-19.727 157.586-15.861 55.69 3.854 113.28 7.837 158.093-15.11 25.807-11.177 48.437-25.158 70.32-38.681 22.327-13.795 43.416-26.823 63.557-33.656 22.42-7.605 41.441-6.822 59.857 2.46 15.55 4.71 24.281 15.047 24.584 29.117.284 13.256-7.116 28.999-20.305 43.193-14.213 15.298-34.348 28.018-56.695 35.818-74.704 28.702-119.886 64.762-175.56 112.57-14.905 13.346-28.807 19.878-42.708 19.878z" opacity=".7" transform="translate(37 30)"/>
            <path fill="url(#j)" d="M258.311 296.815h.007-.007zm108.235 49.59c9.085 0 17.92 2.117 26.212 7.414 15.034 8.616 28.377 22.521 41.282 35.968 28.85 30.061 56.1 58.455 97.41 22.482 6.715-5.612 13.364-11.276 19.796-16.752 44.078-37.544 85.713-73.005 152.084-96.057 22.36-7.066 42.61-19.115 57.037-33.934 13.243-13.602 20.607-28.536 20.202-40.975-.412-12.684-8.924-21.707-23.963-25.409-.035-.008-.07-.021-.103-.034-36.834-15.65-71.182 6.138-110.955 31.364-22.578 14.322-48.169 30.555-77.394 41.958-42.864 19.76-97.553 14.66-150.44 9.728-56.949-5.311-115.837-10.803-159.053 15.236a.121.121 0 0 0-.019.012c-20.782 11.581-35.832 24.551-43.524 37.508-6.595 11.107-7.676 22.154-3.047 31.103 8.922 17.252 38.609 25.388 72.845 9.147 6.866-2.574 14.296-6.102 22.163-9.836 19.054-9.05 39.847-18.923 59.467-18.923zm127.763 84.16c-5.524.001-11.034-1.14-16.606-3.407-15.86-6.446-29.84-21.014-44.64-36.436-12.84-13.377-26.116-27.21-41.007-35.746-25.598-16.348-56.835-1.515-84.395 11.572-7.893 3.748-15.347 7.288-22.217 9.86-13.071 6.2-25.518 8.888-36.455 8.89-18.284.001-32.355-7.507-38.124-18.66-4.85-9.38-3.754-20.89 3.086-32.413 7.813-13.161 23.035-26.297 44.022-37.995 43.596-26.263 102.703-20.748 159.867-15.42 52.71 4.917 107.213 10 149.782-9.622 29.141-11.373 54.672-27.569 77.199-41.857 20.044-12.714 38.975-24.723 57.218-31.355 20.298-7.377 37.757-7.423 54.945-.135 15.652 3.868 24.507 13.336 24.94 26.666.416 12.803-7.087 28.098-20.585 41.962-14.58 14.977-35.03 27.148-57.581 34.274-66.115 22.963-107.653 58.343-151.632 95.801-6.433 5.48-13.087 11.145-19.796 16.754-13.299 11.58-25.695 17.267-38.021 17.267z" opacity=".7" transform="translate(37 30)"/>
            <path fill="url(#j)" d="M264.913 299.087h.007-.007zm111.329 44.099c8.294 0 16.374 1.88 24.017 6.536 15.589 8.542 28.98 23.359 41.929 37.69 13.37 14.795 25.998 28.77 40.183 35.195 15.862 7.183 31.3 3.737 48.584-10.845 10.983-8.905 21.727-18.325 32.115-27.435 37.567-32.936 76.412-66.993 135.66-85.358 22.533-6.384 43.082-17.868 57.88-32.346 13.534-13.241 21.002-27.695 20.488-39.652-.512-11.953-9.126-20.144-24.248-23.06a.457.457 0 0 1-.092-.025c-34.377-11.794-65.183 8.504-100.853 32.007-23.832 15.703-50.843 33.5-83.257 44.776-40.736 16.638-92.508 10.457-142.577 4.48-58.06-6.933-118.095-14.103-160.78 14.5a.326.326 0 0 1-.017.01c-42.768 26.833-49.435 51.533-41.414 65.703 4.833 8.539 15.277 14.24 28.656 15.64 14.542 1.517 31.448-2.122 47.599-10.254 5.947-2.467 12.21-5.535 18.841-8.781 18.325-8.974 38.352-18.781 57.286-18.781zm121.934 84.412c-21.5.003-38.905-19.261-56.995-39.281-12.873-14.245-26.186-28.978-41.601-37.426-24.478-14.914-53.99-.462-80.025 12.289-6.653 3.258-12.935 6.334-18.875 8.797-16.334 8.228-33.504 11.915-48.306 10.369-13.819-1.447-24.642-7.394-29.694-16.319-4.858-8.582-4.171-18.99 1.987-30.1 6.985-12.603 20.401-25.187 39.876-37.408 19.351-12.961 43.835-19.779 74.855-20.84 27.601-.946 57.713 2.65 86.833 6.126 49.899 5.957 101.495 12.118 141.937-4.401 32.289-11.233 59.224-28.981 82.992-44.64 35.952-23.689 67.006-44.149 101.993-32.17 15.772 3.054 24.757 11.69 25.298 24.32.53 12.34-7.083 27.167-20.893 40.675-14.955 14.633-35.711 26.239-58.44 32.677-58.96 18.273-97.693 52.237-135.153 85.077-10.4 9.118-21.153 18.547-32.145 27.46-12.457 10.51-23.506 14.795-33.644 14.795z" opacity=".7" transform="translate(37 30)"/>
            <path fill="url(#j)" d="M271.515 301.36h.006-.006zm114.447 38.61c7.494 0 14.82 1.64 21.795 5.654 16.1 8.39 29.409 24.166 42.282 39.423 12.076 14.314 23.484 27.834 36.315 34.357 14.31 7.273 28.328 4.685 44.11-8.149 13.046-10.236 25.169-21.351 38.003-33.12 34.666-31.783 70.51-64.649 125.668-79.657 48.357-12.131 80.701-46.093 79.495-68.988-.596-11.261-9.309-18.653-24.536-20.811-.026-.005-.05-.008-.076-.016-32.103-8.337-59.746 10.79-91.756 32.94-24.695 17.088-52.684 36.457-88.119 47.303-38.714 13.725-87.734 6.49-135.14-.506-59.052-8.715-120.112-17.728-162.083 13.502-.005.003-.01.006-.013.01-17.542 12.39-29.474 24.619-35.466 36.346-5.18 10.143-5.53 19.37-1.003 26.683 9.834 15.897 43.17 20.949 79.877 1.392 4.902-2.249 9.924-4.805 15.24-7.51 17.686-9 37.052-18.854 55.407-18.854zm116.034 84.792c-20.222.001-36.284-19.038-52.993-38.843-12.789-15.157-26.01-30.83-41.9-39.11-23.446-13.489-51.33.7-75.933 13.22-5.328 2.71-10.361 5.273-15.252 7.515-16.87 8.989-34.746 13.528-50.287 12.79-14.582-.703-26.008-6.053-31.346-14.68-4.787-7.74-4.46-17.426.948-28.01 6.093-11.924 18.164-24.314 35.881-36.831 19.043-14.167 43.564-21.377 74.96-22.046 27.916-.593 58.525 3.925 88.127 8.295 47.244 6.972 96.093 14.183 134.518.56 35.258-10.793 63.158-30.098 87.771-47.131 32.272-22.33 60.142-41.62 92.831-33.147 15.918 2.267 25.029 10.105 25.661 22.076.626 11.868-7.113 26.208-21.233 39.34-15.343 14.267-36.391 25.286-59.272 31.027-54.826 14.92-90.547 47.671-125.092 79.344-12.854 11.787-24.997 22.919-38.074 33.18-10.833 8.81-20.474 12.45-29.315 12.45z" opacity=".7" transform="translate(37 30)"/>
            <path fill="url(#j)" d="M278.116 303.631h.007-.007zm117.609 33.124c6.683 0 13.236 1.4 19.525 4.768 16.565 8.165 29.667 24.953 42.337 41.185 10.823 13.87 21.046 26.967 32.578 33.597 12.823 7.372 25.474 5.605 39.808-5.56 14.067-10.64 27.086-23.219 40.869-36.537 32.54-31.436 66.186-63.945 118.697-76.22 47.834-10.465 82.013-43.42 80.624-65.894-.657-10.605-9.473-17.228-24.825-18.65-30.067-5.253-54.9 12.978-83.653 34.09-25.2 18.502-53.763 39.473-92.048 49.609-36.787 11.004-83.2 2.748-128.087-5.232-59.94-10.66-121.922-21.68-163 12.241-.004.004-.007.005-.012.008-29.592 23.555-41.454 46.214-31.732 60.609 10.407 15.41 45.37 18.7 83.71-2.85 3.672-1.864 7.33-3.82 11.204-5.89 17.198-9.19 36.069-19.274 54.005-19.274zm109.928 85.372c-5.435.002-10.781-1.556-16.164-4.651-11.762-6.76-22.064-19.96-32.971-33.936-12.577-16.113-25.582-32.776-41.889-40.813-22.548-12.075-48.963 2.041-72.269 14.495-3.88 2.074-7.547 4.033-11.204 5.887-19.19 10.787-37.597 15.395-52.62 15.395-15.5.001-27.398-4.902-32.853-12.98-4.718-6.985-4.735-16.025-.047-26.141 5.247-11.318 16.03-23.521 32.054-36.277 41.562-34.313 103.858-23.24 164.098-12.527 44.73 7.953 90.981 16.178 127.481 5.263 38.058-10.076 66.51-30.968 91.614-49.397 29.005-21.297 54.051-39.69 84.633-34.34 16.044 1.483 25.297 8.554 25.999 19.904.695 11.226-7.382 25.419-21.603 37.965-15.736 13.883-37.07 24.3-60.075 29.333-52.135 12.187-85.645 44.565-118.052 75.874-13.813 13.345-26.862 25.952-40.985 36.637-8.849 6.89-17.096 10.309-25.147 10.309z" opacity=".7" transform="translate(37 30)"/>
            <path fill="url(#j)" d="M284.718 305.904h.006-.006zm120.63 27.559c5.893 0 11.704 1.184 17.392 3.959 16.986 7.864 29.746 25.722 42.086 42.992 12.907 18.064 25.098 35.127 40.382 37.54 7.677 1.207 15.618-1.315 24.28-7.718 14.514-10.545 27.906-24.238 42.083-38.733 29.397-30.06 62.718-64.132 113.372-74.003 22.881-4.28 44.273-13.978 60.237-27.311 14.198-11.857 22.243-25.099 21.52-35.422-.7-9.975-9.622-15.855-25.12-16.56-28.128-2.482-50.472 15.09-76.35 35.435-25.376 19.952-54.138 42.564-95.099 51.736-9.737 2.357-20.177 3.343-31.083 3.343-28.244 0-59.645-6.6-90.3-13.04-60.738-12.762-123.543-25.957-163.571 10.721l-.005.005c-26.867 24.14-36.782 45.444-27.203 58.446 5.687 7.721 18.02 11.593 33.836 10.628 16.912-1.033 36.06-7.419 53.913-17.978 2.15-1.208 4.3-2.431 6.461-3.664 17.657-10.06 35.766-20.376 53.169-20.376zM508.965 419.6a25.32 25.32 0 0 1-3.97-.312c-15.844-2.501-28.195-19.789-41.273-38.09-12.236-17.128-24.89-34.838-41.564-42.556-21.85-10.663-45.976 3.08-69.306 16.37-2.164 1.233-4.318 2.46-6.456 3.66-18.022 10.66-37.385 17.11-54.51 18.158-16.283.991-29.044-3.08-35.01-11.176-10.04-13.63-.056-35.591 27.385-60.25 40.54-37.146 103.694-23.877 164.766-11.049 42.343 8.898 86.131 18.098 120.796 9.704 40.671-9.107 69.305-31.62 94.569-51.48 26.105-20.524 48.649-38.26 77.277-35.721 16.249.737 25.627 7.064 26.383 17.815.752 10.753-7.473 24.418-22.003 36.553-16.14 13.478-37.75 23.282-60.851 27.601-50.234 9.79-81.967 42.238-112.658 73.618-14.219 14.54-27.647 28.271-42.251 38.88-7.499 5.546-14.516 8.275-21.324 8.275z" opacity=".7" transform="translate(37 30)"/>
            <path fill="url(#j)" d="M415.091 330.212c5.08 0 10.12.948 15.132 3.107 17.368 7.486 29.648 26.485 41.525 44.858 11.51 17.81 22.383 34.633 36.283 37.372 6.597 1.303 13.453-.605 20.971-5.825 14.623-10.152 28.07-24.744 42.306-40.194 28.017-30.4 59.767-64.855 109.042-72.518 51.977-8.086 84.313-41.174 82.89-59.51-.73-9.372-9.755-14.533-25.42-14.533-26.358 0-46.519 17.116-69.867 36.934-25.256 21.437-53.878 45.735-97.327 53.709-33.202 6.094-74.785-4.07-115-13.902-61.451-15.022-124.993-30.556-163.823 8.938-23.884 24.294-32.22 44.907-22.871 56.546 6.023 7.502 19.083 10.713 35.832 8.806 17.745-2.019 37.688-9.445 56.156-20.913l.471-.293c18.58-11.54 36.361-22.582 53.7-22.582m96.985 87.086c-1.447 0-2.882-.14-4.308-.422-14.464-2.85-25.488-19.907-37.16-37.964-11.766-18.204-23.933-37.028-40.922-44.352-21.472-9.252-43.869 4.655-67.578 19.381l-.473.295c-18.635 11.572-38.776 19.068-56.718 21.107-17.22 1.957-30.72-1.432-37.042-9.303-5.777-7.19-10.473-24.33 22.96-58.338l.485.474-.484-.474c39.369-40.045 103.293-24.417 165.112-9.307 40.076 9.799 81.519 19.93 114.432 13.887 43.092-7.911 71.572-32.082 96.696-53.41 23.55-19.99 43.89-37.253 70.744-37.253 22.226 0 26.311 9.884 26.77 15.778.797 10.28-7.586 23.409-22.426 35.114-16.551 13.057-38.43 22.231-61.605 25.837-48.808 7.59-80.39 41.862-108.252 72.096-14.29 15.508-27.786 30.154-42.532 40.391-6.232 4.328-12.064 6.463-17.699 6.463" opacity=".7" transform="translate(37 30)"/>
        </g>
    </g>
</svg>
