<svg xmlns="http://www.w3.org/2000/svg" xmlns:xlink="http://www.w3.org/1999/xlink" width="85" height="32" viewBox="0 0 85 32">
    <defs>
        <linearGradient id="b" x1="50%" x2="50%" y1="0%" y2="100%">
            <stop offset="0%" stop-color="#8BA2FE"/>
            <stop offset="100%" stop-color="#657EFA"/>
        </linearGradient>
        <path id="a" d="M20.843 0c3.213 0 4.819 0 6.548.547a6.796 6.796 0 0 1 4.062 4.062C32 6.338 32 7.944 32 11.157v9.686c0 3.213 0 4.819-.547 6.548a6.795 6.795 0 0 1-4.062 4.062c-1.73.547-3.335.547-6.548.547h-9.686c-3.213 0-4.82 0-6.548-.547a6.795 6.795 0 0 1-4.062-4.062C0 25.661 0 24.056 0 20.843v-9.686c0-3.213 0-4.82.547-6.548A6.796 6.796 0 0 1 4.609.547C6.338 0 7.944 0 11.157 0h9.686z"/>
        <path id="d" d="M0 .81V0h3.785V1.619H0z"/>
    </defs>
    <g fill="none" fill-rule="evenodd">
        <path fill="#657EFA" d="M52.99 21h-2.052v-4.266H46.94V21h-2.05v-9.953h2.05v4.033h4v-4.033h2.05V21zm5.948 0a2.194 2.194 0 0 1-.198-.663c-.2.223-.453.412-.756.567-.303.155-.673.233-1.11.233-.356 0-.688-.055-.995-.164a2.463 2.463 0 0 1-.8-.458 2.069 2.069 0 0 1-.721-1.593c0-.387.072-.732.215-1.032.144-.301.36-.556.646-.766.287-.21.644-.37 1.07-.478.426-.11.922-.165 1.487-.165h.882v-.423c0-.342-.088-.616-.264-.82-.175-.206-.452-.308-.83-.308-.333 0-.594.08-.783.239-.189.16-.284.378-.284.656h-1.975c0-.319.074-.622.222-.909.148-.287.359-.538.632-.752.274-.214.604-.384.992-.51.387-.125.82-.187 1.298-.187.429 0 .825.054 1.19.164.364.11.679.272.943.489.265.216.47.487.619.813.148.326.222.705.222 1.138v3.131c0 .21.007.398.02.564.014.166.032.317.055.451a2.142 2.142 0 0 0 .219.667V21h-1.996zm-1.634-1.374a1.7 1.7 0 0 0 .855-.222c.114-.066.213-.143.297-.23.084-.086.152-.175.202-.266v-1.271h-.814c-.26 0-.485.028-.677.085a1.312 1.312 0 0 0-.471.24.956.956 0 0 0-.274.362c-.059.139-.089.29-.089.454a.79.79 0 0 0 .26.609c.173.16.41.239.711.239zm6.673-6.022l.062.854c.255-.319.563-.564.923-.735a2.77 2.77 0 0 1 1.203-.256c.35 0 .67.049.957.147.287.098.533.258.738.482.205.223.364.515.475.875.112.36.168.802.168 1.326V21h-1.976v-4.717c0-.237-.026-.433-.078-.588a.859.859 0 0 0-.23-.369.87.87 0 0 0-.369-.195 1.98 1.98 0 0 0-.505-.058 1.4 1.4 0 0 0-.749.192c-.207.127-.375.3-.502.52V21h-1.976v-7.396h1.86zm5.717 3.643c0-.56.065-1.073.194-1.538.13-.465.318-.864.564-1.196.247-.333.55-.59.91-.773.36-.182.77-.273 1.23-.273a2.3 2.3 0 0 1 1.008.212c.294.141.553.34.776.594V10.5h1.983V21h-1.784l-.096-.786a2.537 2.537 0 0 1-.814.68c-.31.162-.672.243-1.087.243a2.57 2.57 0 0 1-1.22-.284c-.358-.19-.66-.45-.906-.783a3.646 3.646 0 0 1-.564-1.186 5.458 5.458 0 0 1-.194-1.493v-.144zm1.975.144c0 .3.025.58.075.84.05.26.131.487.243.68.112.194.258.347.438.459.18.111.4.167.66.167.318 0 .584-.068.796-.205.212-.137.377-.326.495-.567v-2.92a1.351 1.351 0 0 0-.495-.57c-.212-.135-.473-.202-.783-.202-.26 0-.48.056-.663.168-.182.111-.33.265-.441.461a2.284 2.284 0 0 0-.246.69c-.053.265-.079.55-.079.855v.144zm8.984.813l1.367-4.6h2.12l-2.96 8.503c-.069.187-.157.39-.264.609a2.404 2.404 0 0 1-.434.612c-.182.189-.408.346-.677.471-.268.126-.599.188-.99.188-.092 0-.174-.003-.247-.01a5.461 5.461 0 0 1-.212-.024 1.966 1.966 0 0 1-.201-.037 4.558 4.558 0 0 1-.216-.059V22.36c.05 0 .102.001.154.004l.147.003c.196 0 .363-.015.502-.044a1.04 1.04 0 0 0 .36-.144.91.91 0 0 0 .252-.25c.069-.1.128-.218.178-.355l.212-.553-2.59-7.417h2.125l1.374 4.6z"/>
        <g>
            <mask id="c" fill="#fff">
                <use xlink:href="#a"/>
            </mask>
            <use fill="url(#b)" xlink:href="#a"/>
            <g mask="url(#c)">
                <g transform="translate(-6.875 3.325)">
                    <path fill="#FFF" d="M32.334 8.836c-.142-1.035-.616-1.832-1.05-2.424-.21-.286-.99-1.066-1.275-1.275-.592-.434-1.39-.91-2.425-1.051-1.535-.21-3.557 2.23-4.622 3.326-1.066 1.095-3.816 4.063-5.628 5.667-1.813 1.603-2.336 2.754-2.09 3.488.245.733 1.991 2.618 1.991 2.618s1.886 1.747 2.619 1.992c.733.245 1.885-.277 3.488-2.09 1.603-1.813 4.572-4.562 5.667-5.628 1.096-1.065 3.536-3.087 3.325-4.623"/>
                    <path fill="#7991FC" d="M23.628 7.52L22.32 9.699l-2.13 2.124-.432-.426z"/>
                    <path fill="#7991FC" d="M20.194 11.825l-1.639 1.639-1.307.436 2.51-2.51z"/>
                    <path fill="#FFF" d="M29.375 4.973a.247.247 0 0 1-.32.14l-1.38-.541a.247.247 0 0 1 .18-.46l1.38.54c.126.05.19.194.14.321M29.03 12.215c-.127.128-.146.315-.042.419l.963.964c.104.103.292.085.42-.043.126-.127.146-.315.042-.419l-.964-.963c-.104-.104-.292-.085-.419.042M24.076 7.194c-.127.127-.315.146-.419.042l-.963-.964c-.104-.104-.085-.291.042-.419.127-.127.315-.146.419-.042l.964.964c.103.103.084.292-.043.419"/>
                    <path fill="#829AFD" d="M28.555 10.346c-.534-.758-1.14-1.34-1.14-1.34s-.583-.607-1.34-1.14c-.527-.373-1.14-.71-1.698-.782l-1.533 2.58s.873.385 1.536 1.049l1.328 1.328c.664.663 1.048 1.535 1.048 1.535l2.58-1.532c-.072-.56-.408-1.171-.78-1.698"/>
                    <path fill="#7991FC" d="M28.901 12.793l-2.18 1.307-2.132 2.133.441.43z"/>
                    <path fill="#7991FC" d="M24.595 16.226l-1.639 1.639-.435 1.308 2.51-2.51zM17.804 14.804l-1.011 1.01s.384.664.978 1.327l.594.664.25.25.665.595c.663.594 1.326.978 1.326.978l1.011-1.01c-.756-.449-1.84-1.497-2.08-1.734-.238-.241-1.285-1.324-1.733-2.08z"/>
                    <path fill="#FFF" d="M31.463 7.04a.247.247 0 0 0-.145.318l.518 1.388c.048.127.19.192.317.144a.245.245 0 0 0 .145-.317l-.517-1.387a.248.248 0 0 0-.318-.146M22.675 17.56c-.488.487-.817.715-1.377.39-.834-.486-2.283-1.935-2.851-2.851-.34-.55-.073-.865.415-1.353l3.148-3.148c.488-.488.956-.604 1.506-.262.813.506 1.79 1.555 2.52 2.564.38.524.275 1.023-.213 1.51l-3.148 3.15z"/>
                    <g transform="scale(1 -1) rotate(-45 5.43 -35.886)">
                        <mask id="e" fill="#fff">
                            <use xlink:href="#d"/>
                        </mask>
                        <path fill="#8097FD" d="M3.785.09v.72c0 .05-.04.09-.09.09h-.631v.629c0 .05-.04.09-.09.09h-.721a.09.09 0 0 1-.09-.09v-.63h-.54v.63c0 .05-.041.09-.091.09h-.72a.09.09 0 0 1-.091-.09v-.63H.09A.09.09 0 0 1 0 .81V.09C0 .04.04 0 .09 0h.721c.05 0 .09.04.09.09v.63h.54V.09c0-.05.041-.09.09-.09h.722c.05 0 .09.04.09.09v.63h.54V.09c0-.05.04-.09.09-.09h.721c.05 0 .09.04.09.09" mask="url(#e)"/>
                    </g>
                    <rect width="1" height="18.95" x="7.462" y="14.82" fill="#FFF" rx=".426" transform="scale(-1 1) rotate(-45 0 43.518)"/>
                    <rect width="1" height="18.95" x="11.409" y="18.972" fill="#FFF" rx=".426" transform="scale(-1 1) rotate(-45 0 57.197)"/>
                </g>
            </g>
        </g>
    </g>
</svg>
