<svg xmlns="http://www.w3.org/2000/svg" width="135" height="38" viewBox="0 0 135 38">
    <g fill="#000053" fill-rule="evenodd">
        <path d="M2.016 18V1.2h3.696v7.344L12.528 1.2h4.464l-6.84 7.128L17.304 18h-4.44l-5.208-7.152-1.944 2.016V18H2.016zm27.08 0l7.2-16.92h3.408l7.2 16.92H43.04l-1.536-3.768H34.4L32.864 18h-3.768zm6.624-7.032h4.464L37.952 5.52l-2.232 5.448zM60.496 18V1.2h3.984l4.416 7.104L73.312 1.2h3.984V18h-3.672V7.032l-4.728 7.176H68.8l-4.68-7.104V18h-3.624zm30.392 0l7.2-16.92h3.408l7.2 16.92h-3.864l-1.536-3.768h-7.104L94.656 18h-3.768zm6.624-7.032h4.464L99.744 5.52l-2.232 5.448zM128.264.912c1.792 0 3.252.424 4.38 1.272 1.128.848 1.692 1.928 1.692 3.24 0 1.792-.904 3.08-2.712 3.864 2.096.672 3.144 1.992 3.144 3.96 0 1.472-.58 2.68-1.74 3.624-1.16.944-2.708 1.416-4.644 1.416-1.712 0-3.148-.232-4.308-.696-1.16-.464-2.212-1.168-3.156-2.112l1.968-2.568c1.456 1.424 3.24 2.136 5.352 2.136.816 0 1.492-.18 2.028-.54.536-.36.804-.852.804-1.476 0-.672-.3-1.168-.9-1.488-.6-.32-1.412-.48-2.436-.48h-1.944V7.992h1.896c2 0 3-.648 3-1.944 0-.576-.248-1.032-.744-1.368-.496-.336-1.152-.504-1.968-.504-1.824 0-3.336.616-4.536 1.848l-1.944-2.352c1.76-1.84 4.016-2.76 6.768-2.76zM.39 35.965l.146-1.213c.14.047.3.07.48.07.137 0 .257-.014.361-.044.103-.029.215-.09.334-.181.12-.092.223-.22.31-.381.088-.162.174-.383.258-.662.084-.28.153-.612.205-.996.053-.385.095-.856.126-1.412.032-.557.047-1.187.047-1.89v-1.658h5.76V36H6.94v-7.066h-2.9v.755c0 1.051-.039 1.956-.117 2.713-.078.758-.187 1.374-.325 1.849-.139.475-.322.85-.548 1.125-.227.275-.468.464-.724.565a2.483 2.483 0 0 1-.917.153c-.344 0-.683-.043-1.02-.13zm9.68-3.123a3.262 3.262 0 0 1 1.655-2.863 3.42 3.42 0 0 1 1.731-.448c.637 0 1.213.148 1.729.443.515.295.918.695 1.207 1.2.289.507.433 1.062.433 1.668a3.326 3.326 0 0 1-.96 2.33 3.274 3.274 0 0 1-1.079.71 3.484 3.484 0 0 1-1.353.264 3.39 3.39 0 0 1-1.723-.445 3.21 3.21 0 0 1-1.207-1.201 3.274 3.274 0 0 1-.434-1.658zm1.452 0c0 .562.184 1.044.551 1.444.367.4.828.6 1.383.6.574 0 1.037-.197 1.389-.591.351-.395.527-.879.527-1.453 0-.567-.183-1.048-.548-1.445-.365-.396-.829-.594-1.391-.594-.57 0-1.032.195-1.383.586-.352.39-.528.875-.528 1.453zM18.302 36v-6.334h4.488v1.248h-3.041V36h-1.447zm5.636 0v-6.334h1.413v4.248c1.093-1.555 2.093-2.97 3-4.248h1.37V36h-1.406v-4.225L25.304 36h-1.366zm7.254-3.135v-.023c0-.594.141-1.144.422-1.65a3.19 3.19 0 0 1 1.18-1.21 3.234 3.234 0 0 1 1.685-.45c.567 0 1.052.093 1.457.28.404.188.764.458 1.08.81l-.902.972a2.993 2.993 0 0 0-.75-.59 1.886 1.886 0 0 0-.896-.201c-.52 0-.953.196-1.301.589-.348.392-.521.868-.521 1.426v.024c0 .574.178 1.058.536 1.453.357.394.811.592 1.362.592.32 0 .611-.069.873-.205a3.05 3.05 0 0 0 .768-.592l.878.867a3.776 3.776 0 0 1-1.122.885c-.404.203-.895.304-1.473.304a3.252 3.252 0 0 1-1.679-.442 3.152 3.152 0 0 1-1.175-1.195 3.306 3.306 0 0 1-.422-1.644zm6.457-1.95v-1.249h5.543v1.248h-2.039V36h-1.465v-5.086H37.65zM44.347 36v-6.334h1.412v4.248c1.094-1.555 2.094-2.97 3-4.248h1.37V36h-1.405v-4.225L45.712 36h-1.365zm7.412-3.879v-2.455h1.453v2.11c0 .3.096.56.287.779a.956.956 0 0 0 .756.328c.539 0 1.055-.14 1.547-.422v-2.795h1.453V36h-1.453v-2.361c-.25.129-.547.24-.89.334-.345.093-.675.14-.991.14-.649 0-1.171-.174-1.567-.521-.397-.348-.595-.838-.595-1.47zm6.967.71c0-.602.13-1.154.392-1.656s.631-.902 1.108-1.198a2.964 2.964 0 0 1 1.6-.446c.394 0 .757.06 1.089.179.332.12.616.284.853.495.236.211.437.46.603.747.166.287.29.599.37.935.08.336.12.687.12 1.054 0 .176-.008.311-.024.405h-4.658c.078.508.282.903.612 1.186.33.283.733.425 1.21.425.344 0 .65-.061.92-.185.27-.123.535-.313.797-.57l.855.755c-.656.793-1.521 1.19-2.595 1.19-.61 0-1.16-.137-1.653-.41a2.997 2.997 0 0 1-1.169-1.173c-.287-.507-.43-1.085-.43-1.734zm1.441-.44h3.252c-.05-.493-.216-.894-.495-1.204-.28-.311-.65-.466-1.11-.466-.438 0-.804.153-1.1.46-.294.306-.477.71-.547 1.21zm5.8.474v-.023c0-.594.141-1.144.423-1.65a3.19 3.19 0 0 1 1.18-1.21 3.234 3.234 0 0 1 1.685-.45c.566 0 1.052.093 1.456.28.404.188.765.458 1.081.81l-.902.972a2.993 2.993 0 0 0-.75-.59 1.886 1.886 0 0 0-.897-.201c-.52 0-.953.196-1.3.589-.348.392-.522.868-.522 1.426v.024c0 .574.179 1.058.536 1.453.357.394.812.592 1.362.592.32 0 .612-.069.873-.205a3.05 3.05 0 0 0 .768-.592l.879.867a3.776 3.776 0 0 1-1.122.885c-.405.203-.896.304-1.474.304a3.252 3.252 0 0 1-1.679-.442 3.152 3.152 0 0 1-1.174-1.195 3.306 3.306 0 0 1-.422-1.644zM73.11 36v-6.334h1.436v3.035l2.76-3.035h1.705l-2.461 2.66L79.216 36h-1.717l-1.916-2.613-1.037 1.09V36H73.11zm7.114 0v-6.334h1.412v4.248c1.093-1.555 2.093-2.97 3-4.248h1.37V36h-1.405v-4.225L81.589 36h-1.365zm7.605 0v-6.334h1.412v4.248c1.094-1.555 2.094-2.97 3-4.248h1.371V36h-1.406v-4.225L89.194 36H87.83zm1.02-8.736l.884-.17c.172.547.504.82.996.82.493 0 .825-.273.997-.82l.878.17c-.078.515-.284.923-.618 1.221-.334.3-.753.449-1.257.449-.507 0-.928-.15-1.262-.452-.334-.3-.54-.707-.618-1.218zM99.032 36v-6.334h1.436v5.086h2.736v-5.086h1.442v5.086h.914l-.194 2.771h-1.213V36h-5.12zm7.383-3.17c0-.601.13-1.153.393-1.655.261-.502.63-.902 1.107-1.198a2.964 2.964 0 0 1 1.6-.446c.394 0 .757.06 1.09.179.332.12.616.284.852.495.236.211.438.46.604.747.166.287.289.599.369.935.08.336.12.687.12 1.054 0 .176-.008.311-.024.405h-4.658c.078.508.282.903.612 1.186.33.283.734.425 1.21.425.344 0 .65-.061.92-.185.27-.123.536-.313.797-.57l.856.755c-.657.793-1.522 1.19-2.596 1.19-.61 0-1.16-.137-1.652-.41a2.997 2.997 0 0 1-1.17-1.173c-.286-.507-.43-1.085-.43-1.734zm1.441-.44h3.252c-.05-.492-.215-.893-.495-1.203-.279-.311-.65-.466-1.11-.466-.438 0-.804.153-1.099.46-.295.306-.477.71-.548 1.21zM114.01 36v-6.334h1.447v2.566h2.8v-2.566h1.448V36h-1.447v-2.555h-2.8V36h-1.448zm6.838-5.086v-1.248h5.543v1.248h-2.04V36h-1.464v-5.086h-2.04zm6.697 7.008v-8.256h1.447v1.055c.563-.793 1.28-1.19 2.15-1.19.38 0 .745.074 1.096.223.352.148.666.36.944.633.277.273.499.623.665 1.049.166.425.249.894.249 1.406 0 .508-.083.972-.25 1.394-.165.422-.386.77-.661 1.043a2.956 2.956 0 0 1-.94.633 2.804 2.804 0 0 1-1.102.223c-.868 0-1.584-.373-2.15-1.12v2.907h-1.448zm1.412-5.08c0 .594.182 1.08.545 1.459.363.379.799.568 1.307.568.511 0 .941-.186 1.289-.56.347-.372.521-.87.521-1.49 0-.598-.176-1.086-.527-1.463a1.689 1.689 0 0 0-1.283-.565c-.508 0-.944.191-1.307.574-.363.383-.545.875-.545 1.477z"/>
    </g>
</svg>
