<svg xmlns="http://www.w3.org/2000/svg" width="168" height="28" viewBox="0 0 168 28">
    <g fill="none" fill-rule="nonzero">
        <g fill="#000053">
            <path d="M1.12.434C7.538.379 13.96.422 20.378.414c-.075.67-.154 1.345-.23 2.015C13.742 2.394 7.34 2.402.933 2.421c.064-.662.127-1.325.187-1.987zM23.516.438C25.673.402 27.833.394 29.99.363c-.096.69-.19 1.38-.29 2.07-2.133-.023-4.266-.04-6.398-.004l.214-1.991zM34.235 2.43C34.86 1.766 35.344.914 36.13.437c2.1-.138 4.21.02 6.315-.012-.56.662-1.128 1.317-1.692 1.98-2.173.008-4.345-.004-6.518.023zM49.01.446c4.885-.08 9.77-.02 14.655-.032.449.667.898 1.337 1.335 2.011-5.918-.027-11.84-.027-17.761-.004.595-.654 1.191-1.305 1.77-1.975zM69.202.355C75.608.505 82.014.327 88.42.45c-.11.658-.226 1.32-.341 1.98-6.398-.052-12.797-.005-19.195-.02.107-.687.214-1.369.318-2.055zM93.877.418c5.672.012 11.347-.067 17.019.043-.115.624-.215 1.247-.37 1.862-6.171.205-12.367.02-18.547.09.628-.666 1.263-1.332 1.898-1.995zM.651 4.05c6.415-.047 12.825-.047 19.239 0-.08.667-.155 1.337-.234 2.007-6.442.048-12.888.044-19.33 0 .11-.67.218-1.336.325-2.007zM23.043 4.054c2.165-.043 4.33-.051 6.494-.012-.115.67-.187 1.349-.373 2.004-2.133.11-4.274.008-6.41.04.099-.675.19-1.358.29-2.032zM32.814 4.05c2.164-.043 4.329-.027 6.493-.02-.568.67-1.144 1.337-1.716 2.008-2.176.07-4.352.051-6.533.027a95.505 95.505 0 0 0 1.756-2.015zM46.27 4.026a6264.6 6264.6 0 0 1 19.25 0c-.107.683-.214 1.365-.314 2.051-6.414.012-12.828.016-19.242 0a121.6 121.6 0 0 1 .306-2.05zM68.666 4.019c6.386 0 12.776.007 19.163-.004-.036.682-.076 1.364-.112 2.046-6.453.036-12.911.036-19.365.008.1-.682.206-1.368.314-2.05zM91.006 4.026c6.418-.011 12.84-.007 19.262 0-.083.687-.17 1.369-.258 2.055-6.39.004-12.784.004-19.179.004.056-.686.115-1.372.175-2.059zM6.537 7.663c2.137-.02 4.27-.016 6.407-.008-.056.568-.112 1.135-.171 1.703-2.169.052-4.341.044-6.514.004.092-.568.187-1.136.278-1.7zM22.543 7.655c2.002.043 4.011-.11 6.005.059l.886.52c.051-.15.163-.445.218-.595 2.173.02 4.341-.016 6.514.027-.473.564-.95 1.128-1.43 1.688-4.154.063-8.309.056-12.463 0 .087-.568.179-1.131.27-1.7zM45.741 7.655c2.141-.008 4.282-.02 6.422 0-.083.571-.162 1.14-.246 1.707-2.133.052-4.265.02-6.394.032a208 208 0 0 1 .218-1.74zM58.518 7.647c2.145 0 4.293.004 6.442 0l-.214 1.707c-2.165.044-4.33.056-6.494.004.087-.572.179-1.14.266-1.711zM68.082 7.655c2.156-.02 4.313.004 6.47-.008-.048.564-.1 1.128-.143 1.696-2.157.09-4.318.043-6.474.035.043-.576.095-1.148.147-1.723zM90.498 7.666c2.136-.035 4.273-.007 6.41-.02-.032.56-.064 1.12-.1 1.685-2.156.102-4.317.059-6.477.035.043-.426.127-1.278.167-1.7zM5.814 12.979c.088-.698.175-1.393.259-2.087 2.14.063 4.277.02 6.418.036-.092.682-.187 1.36-.278 2.043-2.133.02-4.266.004-6.399.008zM21.769 12.967c.099-.682.198-1.369.301-2.05 3.702.019 7.407.007 11.113 0 .254.685.5 1.371.747 2.058-4.055.008-8.11.023-12.161-.008zM45.269 10.916c6.418.02 12.832.012 19.246.008-.1.674-.198 1.353-.298 2.03-6.402.048-12.808.04-19.21.005.087-.682.178-1.36.262-2.043zM67.64 10.912c5.68.024 11.36.024 17.04.016.452.674.917 1.349 1.361 2.027-6.215.06-12.43.012-18.65.028l.25-2.07zM89.787 12.983c.087-.69.182-1.385.278-2.075 5.667.032 11.335.04 17.002.008.449.674.898 1.353 1.33 2.043-6.203.059-12.407.004-18.61.024zM5.532 14.635a77.229 77.229 0 0 1 6.482-.008c-.107.659-.218 1.321-.333 1.98-2.145-.032-4.29 0-6.438-.024.099-.647.198-1.297.29-1.948zM21.566 14.552c4.373.087 8.75-.09 13.122.107.227.654.465 1.301.687 1.956-4.71-.044-9.42-.004-14.13-.016.11-.682.214-1.365.321-2.047zM45.539 14.572c6.128-.012 12.256.012 18.384-.012-.043.655-.095 1.305-.147 1.96-5.715.122-11.442.11-17.157.004a102.72 102.72 0 0 0-1.08-1.952zM67.105 14.623c6.418-.09 12.84-.087 19.258 0-.095.667-.194 1.333-.29 2.003-6.394-.055-12.788-.047-19.179-.011.06-.667.143-1.33.21-1.992zM89.258 16.61c.088-.685.175-1.376.267-2.062 6.402.036 12.808.032 19.214 0-.047.65-.103 1.302-.159 1.952-6.434.229-12.88.008-19.322.11zM5.072 18.168c2.16-.007 4.32-.015 6.478.008-.132.694-.263 1.392-.39 2.09-2.152-.007-4.301-.047-6.45-.007.108-.698.23-1.396.362-2.09zM21.081 18.125c2.121.063 4.246.028 6.375.032-.068.686-.131 1.372-.199 2.062-2.168.051-4.34.012-6.51.036.108-.71.22-1.42.334-2.13zM28.763 18.204c2.434-.079 4.869-.043 7.303-.024.247.69.509 1.377.767 2.063-2.403.023-4.81-.032-7.209.035-.286-.69-.572-1.384-.861-2.074zM56.945 18.224c2.169-.107 4.345-.052 6.518-.06-.092.699-.183 1.4-.27 2.099a265.498 265.498 0 0 0-6.39.007c.043-.682.087-1.364.142-2.046zM79.373 18.2c2.177-.06 4.349-.04 6.525-.02-.107.694-.206 1.392-.31 2.09-2.132-.039-4.265-.027-6.402.004.064-.694.131-1.384.187-2.074zM88.949 18.224c2.172-.099 4.349-.083 6.521-.024-.095.69-.187 1.38-.274 2.074-2.125-.05-4.254-.023-6.382-.011.043-.679.091-1.361.135-2.04zM101.781 18.235c2.165-.13 4.337-.07 6.51-.055-.124.698-.25 1.396-.378 2.094-2.12-.05-4.242-.023-6.362-.02.071-.674.147-1.348.23-2.019zM4.484 21.793c2.153.012 4.305.012 6.462.012l-.286 2.062c-2.129-.012-4.258-.032-6.387.012.068-.694.14-1.392.211-2.086zM20.506 21.812c2.156-.027 4.313.016 6.47-.027-.108.69-.215 1.376-.314 2.066-2.145.016-4.286-.012-6.427.02.084-.69.171-1.376.27-2.059zM30.292 21.789c2.39.043 4.781-.004 7.176.02.274.682.548 1.368.819 2.054-2.443-.02-4.89.012-7.332-.031-.223-.679-.445-1.361-.663-2.043zM43.712 21.808c6.41-.02 12.82.004 19.23-.011-.09.69-.186 1.384-.278 2.078-6.414-.055-12.824.008-19.238-.036.095-.678.19-1.356.286-2.03zM66.108 21.8c6.422.005 12.844.005 19.27-.003-.111.686-.218 1.372-.322 2.058a6246.49 6246.49 0 0 0-19.222.008c.087-.69.178-1.376.274-2.062zM88.492 21.828c6.406-.063 12.812-.008 19.219-.031-.068.69-.135 1.38-.199 2.07-6.43-.028-12.86-.012-19.29-.008.083-.678.175-1.356.27-2.03zM3.75 27.535c.067-.683.134-1.365.194-2.047 2.125-.008 4.25-.004 6.374-.016-.028.682-.06 1.365-.099 2.043-2.157.09-4.313.051-6.47.02zM19.942 25.488c2.14-.004 4.285.02 6.426-.024-.048.682-.092 1.369-.131 2.055-2.169.11-4.341.07-6.51.035l.215-2.066zM31.682 25.488c2.414-.012 4.83.008 7.244-.02.298.694.596 1.388.902 2.082-2.451.036-4.901.06-7.348 0l-.798-2.062zM43.24 25.48c6.028.012 12.053.012 18.078-.004-.902.73-1.517 2.26-2.88 2.11-5.218-.043-10.437.083-15.652-.075.155-.674.306-1.353.453-2.031zM66.727 25.484c5.672.008 11.347.012 17.019-.012-.695.706-1.394 1.412-2.085 2.118-4.524-.028-9.048.02-13.571-.028-.45-.694-.91-1.384-1.363-2.078zM89.111 25.46c5.684.055 11.371.012 17.059.024-.922.69-1.525 2.173-2.852 2.09a1066.1 1066.1 0 0 1-12.805-.012c-.468-.702-.937-1.4-1.402-2.102z"/>
        </g>
        <g fill="#F8667F">
            <path d="M113.56.45c2.654-.15 5.339-.205 7.972.224 4.432.785 8.452 2.942 12.28 5.206 1.537.868 2.94 2.18 4.782 2.335 5.342.65 10.727 1.447 15.8 3.32 4.36 1.633 8.213 4.326 11.843 7.178.778.682 1.827 1.415 1.72 2.587-.132 1.01-.859 1.81-1.152 2.768.007.702.198 1.384.333 2.07-3.67 1.424-7.72 1.077-11.585 1.35 1.501-1.618 2.88-3.522 2.99-5.802.529-4.243-2.597-8.479-6.799-9.327-4.929-1.281-10.41 2.662-10.624 7.734-.346 2.816 1.025 5.49 3.007 7.414-11.371-.055-22.746.016-34.117-.04.06-.67.12-1.344.183-2.015 6.386.036 12.777.024 19.167.012-.163-.528-.326-1.06-.48-1.59-6.113-.046-12.225-.03-18.338 0 .02-.662.04-1.324.064-1.987 5.743-.11 11.486-.004 17.229-.047-.175-.525-.346-1.045-.516-1.566-5.438-.023-10.875-.015-16.312 0l.095-2.007c5.028-.126 10.057-.051 15.089-.035-.112-.525-.215-1.05-.322-1.574-4.826-.04-9.655 0-14.485-.032.131-.701.266-1.403.402-2.105 4.273.027 8.546.015 12.82.007-.056-.48-.111-.958-.159-1.435-4.202-.37-8.424-.04-12.63-.205.147-.67.298-1.337.45-2.007 3.633.059 7.267.02 10.905.031-.159-.52-.31-1.041-.464-1.566-3.412-.015-6.82.008-10.231-.015.04-.556.087-1.108.13-1.665 3.087 0 6.169.004 9.255-.003l-.477-1.578c-2.836-.008-5.672.008-8.511-.008l.286-2.007c2.407 0 4.813-.004 7.22.02-.282-.604-.31-1.676-1.22-1.605-1.937-.135-3.883-.012-5.822-.04.076-.662.151-1.329.223-1.995z"/>
            <path d="M148.253 13.897c3.17-.772 6.736.931 8.07 3.897 1.768 3.482-.023 8.203-3.717 9.579-4 1.794-9.302-.919-9.834-5.324-.754-3.628 1.867-7.402 5.481-8.152z"/>
        </g>
    </g>
</svg>
