<svg xmlns="http://www.w3.org/2000/svg" width="123" height="48" viewBox="0 0 123 48">
    <g fill="none" fill-rule="nonzero">
        <path fill="#FDFEFE" d="M75.523 21.21c.646 0 1.298-.04 1.937.073 1.029.415 1.172 1.963.292 2.614-.687.327-1.467.304-2.209.289a65.17 65.17 0 0 1-.02-2.976zM14.428 26.294c.415-1.19.883-2.367 1.192-3.59.516 1.163.923 2.37 1.28 3.588-.824.038-1.65.043-2.472.002z"/>
        <path fill="#F8667F" d="M62.514.088c.903-.035 1.806-.025 2.709-.035.2.339.302.766.613 1.028.358.115.732.18 1.1.261a69.912 69.912 0 0 0-1.452-.005c0 .98.01 1.96.046 2.94.646.131 1.292.27 1.939.405-.652-.03-1.303-.063-1.955-.086.018 5.66-.077 11.327.094 16.984 1.051-.807 1.705-1.998 2.726-2.832.433-.377 1.044-.227 1.57-.274.578.025 1.192-.08 1.738.163.045.088.138.266.183.357-1.069 1.347-2.236 2.619-3.32 3.958-2.02 2.09-3.705 4.476-5.793 6.509-.296-8.313-.065-16.637-.193-24.955.037-1.123.078-2.247.027-3.37L62.514.088z"/>
        <path fill="#000053" d="M.13 18.466c2.919-.027 5.836-.04 8.754-.002.013.937.018 1.877.018 2.814-.91.023-1.824.015-2.73.123l.05-.294c.806-.143 1.83.191 2.45-.454.081-.651.059-1.31.064-1.963a247.414 247.414 0 0 0-8.42-.015c-.002.774-.002 1.545.006 2.317.86.073 1.72.153 2.58.226-.022 3.257-.092 6.516.04 9.773 1.067.033 2.131.05 3.198.083-1.08.201-2.178.179-3.267.118-.053-3.257.08-6.521-.144-9.773-.858-.007-1.713-.013-2.57-.015-.048-.98-.04-1.96-.028-2.938zM57.455 2.078c1.625-.618 3.373-.769 5.091-.942.05 1.123.01 2.247-.027 3.37-4.49.18-8.729 2.257-12.066 5.184-1.688 1.792-3.383 3.652-4.41 5.919-.324.616-.48 1.337-.973 1.847-1.09.035-2.178.012-3.265-.01.704-2.616 2.115-4.981 3.708-7.152.9-1.337 2.153-2.375 3.3-3.491 2.43-2.27 5.483-3.757 8.642-4.725zM65.484 1.337c.483-.003.966-.003 1.452.005 1.713.01 3.32.681 4.93 1.184 1.398.427 2.686 1.13 3.974 1.814 1.708.912 3.121 2.264 4.555 3.549 1.198 1.078 2.093 2.425 3.117 3.656 1.398 1.74 2.17 3.865 2.925 5.936-1.222.033-2.445.04-3.667.003-.84-2.157-1.927-4.253-3.524-5.949-2.92-3.606-7.255-5.961-11.777-6.853-.647-.136-1.293-.274-1.94-.405-.035-.98-.045-1.96-.045-2.94zM31.024 18.479c1.406-.015 2.812-.04 4.218.015-1.75 1.897-3.192 4.061-5.01 5.898 1.869 2.181 3.612 4.468 5.496 6.64-1.472.098-2.946.062-4.417.032-1.34-1.706-2.671-3.423-4.032-5.114-.066 1.707-.028 3.415-.033 5.122a77.847 77.847 0 0 1-3.426.007c-.012-4.199-.035-8.4-.017-12.603 1.091-.017 2.183-.01 3.272-.017.304 1.603.068 3.244.206 4.862 1.29-1.58 2.443-3.27 3.743-4.842zM83.114 18.456a89.829 89.829 0 0 1 3.492.01c.035 2.448-.038 4.898.05 7.346 2.022-2.375 3.871-4.888 5.798-7.34 1.104-.038 2.208-.023 3.312-.023.003 1.306-.005 2.613.116 3.915-.005 2.898.023 5.798.008 8.698-1.087.027-2.176.012-3.263.017.04-2.475-.123-4.945-.163-7.42-1.477 1.678-2.69 3.57-4.166 5.252-.596.67-1.089 1.422-1.61 2.15-1.194.041-2.386.023-3.581.02 0-4.209-.038-8.418.007-12.625zM97.537 18.466c2.978-.04 5.957-.017 8.937-.007.005.92.018 1.84.015 2.756-.956.02-1.909.018-2.865.028-.118 3.277-.015 6.56-.05 9.836a363.9 363.9 0 0 1-3.313-.007c-.022-3.272-.012-6.547-.058-9.821-.89-.013-1.778-.005-2.668-.03-.02-.918-.025-1.838.002-2.755zM109.377 18.456a70.486 70.486 0 0 1 3.26.003c.963 2.088 1.592 4.31 2.533 6.406.87-2.14 1.708-4.288 2.628-6.404 1.102-.02 2.204-.017 3.305-.012.47 2.782.866 5.574 1.283 8.363.214 1.413.493 2.817.561 4.247-1.099.03-2.196.025-3.295.013-.251-2.272-.581-4.534-.905-6.796a200.24 200.24 0 0 0-2.928 6.796h-1.354c-.88-2.302-1.871-4.556-2.822-6.826-.392 2.25-.78 4.509-.946 6.786-1.152.07-2.306.055-3.458.02a483.724 483.724 0 0 1 2.138-12.596zM11.299 25.171c.84-2.226 1.693-4.446 2.508-6.68 1.215-.015 2.43-.012 3.644-.012 1.06 2.792 2.415 5.453 3.379 8.28.513 1.44 1.126 2.845 1.557 4.313-1.22.038-2.438.025-3.658.012-.32-.693-.518-1.452-.948-2.088-1.461-.045-2.923-.018-4.382.003a55.817 55.817 0 0 0-.767 2.083c-1.19.03-2.38.025-3.57-.008.604-2.023 1.553-3.913 2.237-5.903zm3.129 1.123c.822.04 1.648.036 2.473-.002-.358-1.219-.765-2.425-1.28-3.589-.31 1.224-.778 2.4-1.193 3.591z"/>
        <path fill="#000053" d="M37.338 20.21c1.977-2.02 5.282-2.304 7.787-1.196-.017 1.282.028 2.566-.02 3.848-.956-.875-2.239-1.649-3.582-1.257-1.346.271-2.43 1.42-2.671 2.76-.171 1.062.284 2.136 1.044 2.872.953.797 2.306.965 3.489.693.659-.236 1.184-.71 1.738-1.118.015 1.297.037 2.594.015 3.89-2.05.847-4.505.855-6.467-.238-1.454-.963-2.74-2.363-3.064-4.13-.485-2.14.06-4.618 1.73-6.124zM47.163 18.474c1.099-.023 2.198-.015 3.297-.015.11 2.45-.13 4.92.211 7.358 2.053-2.38 3.794-5.004 5.869-7.363 1.132 0 2.261-.02 3.393.027.002 4.2.007 8.399.015 12.6a67.598 67.598 0 0 1-3.423-.014c-.02-2.448.025-4.896-.063-7.34-.637.718-1.275 1.437-1.836 2.216-1.268 1.751-2.69 3.382-3.972 5.121-1.155.04-2.312.028-3.466.02-.008-4.201-.04-8.406-.025-12.61zM72.155 18.612l.15-.171c1.98.025 3.963-.025 5.945.033 1.3.183 2.668.89 3.197 2.163.777 1.78.505 4.135-.979 5.474-1.416 1.068-3.285.817-4.948.85-.005 1.367.006 2.734.003 4.1-1.087.018-2.17.026-3.257.03.06-4.16-.27-8.32-.111-12.48zm3.368 2.598a65.17 65.17 0 0 0 .02 2.976c.742.015 1.522.038 2.209-.289.88-.65.737-2.199-.292-2.614-.64-.113-1.29-.073-1.937-.073zM.317 18.675c2.807-.043 5.612-.038 8.419.015-.005.653.017 1.312-.063 1.963-.621.645-1.645.311-2.45.454l-.05.294c-.101 3.222-.003 6.45-.033 9.673-1.067-.032-2.13-.05-3.197-.083-.133-3.257-.063-6.516-.04-9.773-.86-.073-1.72-.153-2.581-.226-.008-.772-.008-1.543-.005-2.317zM42.001 32.1c1.11-.018 2.216-.005 3.325-.015.737 1.427 1.32 2.955 2.37 4.196 1.29 1.782 2.77 3.45 4.618 4.67 3.481 2.716 7.964 3.885 12.33 3.87a21.073 21.073 0 0 0 8.995-2.377c1.773-1.124 3.557-2.285 4.98-3.85 1.381-1.599 2.76-3.26 3.555-5.243.246-.43.314-1.06.837-1.249 1.087-.053 2.178-.002 3.268-.007-.7 3.078-2.631 5.652-4.619 8.026-4.333 4.956-10.87 8.13-17.519 7.824-4.097.193-8.22-.92-11.726-3.029-1.746-.957-3.368-2.14-4.73-3.598-2.006-1.782-3.357-4.132-4.663-6.439-.45-.88-.812-1.812-1.02-2.78z"/>
    </g>
</svg>
