<svg xmlns="http://www.w3.org/2000/svg" width="99" height="48" viewBox="0 0 99 48">
    <g fill="none" fill-rule="evenodd">
        <rect width="99" height="48" fill="#000053" rx="1"/>
        <g fill-rule="nonzero">
            <g fill="#FFF">
                <path d="M27.397 7.617c.903-.004 1.804-.008 2.706 0-.004.899.004 1.798-.004 2.698.906-.002 1.813-.008 2.72.001-.012.899.005 1.796-.011 2.695-.904.01-1.807.002-2.71.005.01 2.704-.002 5.41.006 8.113-.903-.008-1.807.003-2.71-.004.009-4.502.002-9.005.003-13.508zM38.216 7.619c.901-.012 1.803-.002 2.704-.004 0 4.504-.01 9.008.004 13.512-.901.001-1.804-.002-2.707 0 .006-2.704-.001-5.408.004-8.112h-2.71c.005-.899.006-1.798-.002-2.698.903-.009 1.807-.005 2.71-.002 0-.899.002-1.798-.003-2.696zM59.1 7.619c.905-.006 1.81-.012 2.715.002-.012 1.798.002 3.595-.007 5.391 1.803.007 3.607.003 5.41.003.015.9-.002 1.8.009 2.7h-5.418c.004 1.804-.001 3.609.003 5.413-.904-.005-1.81.003-2.713-.004.013-4.501.008-9.004.001-13.505zM69.928 7.615c.901 0 1.803-.006 2.704.002.001.898-.005 1.796.004 2.695-.903-.001-1.805.003-2.707-.001a363.42 363.42 0 0 1-.001-2.696zM67.217 10.336c.903-.005 1.806-.001 2.71-.004-.002.887-.003 1.772.001 2.659-.903.006-1.807.006-2.71 0 .007-.886.011-1.771 0-2.655zM32.812 13.03c.899.011 1.797.003 2.697.003.01.906.004 1.811.004 2.716-.897-.002-1.794-.004-2.692.002-.016-.908-.001-1.815-.009-2.722zM67.225 15.747h2.702c-.003.888.001 1.776-.004 2.664-.895 0-1.791-.006-2.687.002-.027-.888-.01-1.778-.01-2.666zM69.925 18.425c.903.003 1.806-.002 2.708.004-.004.899-.004 1.798 0 2.698-.902.004-1.805-.006-2.706.002-.002-.901.001-1.802-.002-2.704zM27.428 27.037c3.777.008 7.555-.004 11.332.006a4999.41 4999.41 0 0 0 0 14.141c-.945-.001-1.892.003-2.837-.001.002-3.768 0-7.538.001-11.306-2.832.004-5.663.003-8.493.002-.006-.948 0-1.895-.003-2.842zM41.584 27.039c4.723.002 9.444 0 14.167 0l.001 14.142c-4.723.006-9.447.006-14.17 0 .002-4.714 0-9.429.002-14.142zm2.839 2.837v2.83c2.83-.007 5.66 0 8.49-.005-.005-.941-.002-1.882-.001-2.824-2.83.003-5.66.004-8.49-.001zm-.006 5.656c.01.943.01 1.885.002 2.828 2.832.003 5.665-.003 8.497.003a182.28 182.28 0 0 1-.001-2.832c-2.834.001-5.666-.002-8.498.001zM58.577 27.039c4.72.002 9.44-.002 14.16.001-.002 4.713-.004 9.428.002 14.141-4.722.008-9.443 0-14.164.003.008-4.715.004-9.43.002-14.145zm2.832 2.838c-.001.942.002 1.883-.001 2.826 2.833.002 5.667-.003 8.499.001-.004-.943 0-1.884-.003-2.825-2.832 0-5.663.002-8.495-.002zm-.001 5.656c.005.943-.004 1.886.001 2.828l8.496-.001c.002-.943-.004-1.885.003-2.83-2.833.002-5.667-.002-8.5.003z"/>
            </g>
            <path fill="#F8976A" d="M43.283 7.615c4.514 0 9.028-.008 13.542.004-.012.897-.006 1.794-.002 2.693-1.807.004-3.615-.003-5.422.003.004 3.597-.002 7.194.004 10.793-.902-.005-1.804-.004-2.706.001 0-3.596-.004-7.193.001-10.789-1.804-.016-3.61-.003-5.415-.007.003-.9.003-1.798-.002-2.698z"/>
        </g>
    </g>
</svg>
