<svg xmlns="http://www.w3.org/2000/svg" xmlns:xlink="http://www.w3.org/1999/xlink" width="1440" height="351" viewBox="0 0 1440 351">
    <defs>
        <path id="a" d="M0 0h1440v360H0z"/>
        <linearGradient id="c" x1="83.7%" x2="71.723%" y1="81.041%" y2="12.289%">
            <stop offset="0%" stop-color="#D3DCFE" stop-opacity=".6"/>
            <stop offset="100%" stop-color="#F9FAFF"/>
        </linearGradient>
        <linearGradient id="d" x1="81.518%" x2="71.847%" y1="96.994%" y2="26.392%">
            <stop offset="0%" stop-color="#D3DCFE" stop-opacity=".6"/>
            <stop offset="100%" stop-color="#F9FAFF"/>
        </linearGradient>
    </defs>
    <g fill="none" fill-rule="evenodd" transform="translate(0 -9)">
        <mask id="b" fill="#fff">
            <use xlink:href="#a"/>
        </mask>
        <g mask="url(#b)" opacity=".8">
            <g fill="url(#c)" transform="matrix(-1 0 0 1 1015 -145)">
                <path d="M421.467 506.293c-30.559.001-71.551-16.411-118.81-35.334-94.383-37.787-211.848-84.818-293.625-11.348l-.993-1.108c82.454-74.083 200.4-26.867 295.169 11.074 48.447 19.397 90.249 36.14 120.786 35.188 48.64-1.53 78.76-59.389 107.888-115.343 26.095-50.125 53.082-101.958 93.565-114.21 29.161-8.825 50.08-5.668 62.192 9.38 17.637 21.925 10.186 62.271 1.061 78.697-5.86 10.551-1.415 24.826 10.81 34.717 16.946 13.708 49.469 18.541 85.353-12.956 25.558-22.435 37.866-55.54 50.897-90.59 17.836-47.975 36.282-97.585 90.531-127.077 52.015-28.282 94.613-4.917 128.836 13.857 27.353 15.002 48.956 26.856 64.823 5.56 16.57-22.237 19.747-52.983 23.113-85.535 3.8-36.776 7.731-74.805 32.421-100.71l1.073 1.027c-24.338 25.536-28.243 63.308-32.016 99.837-3.386 32.761-6.587 63.706-23.402 86.274-16.633 22.324-38.74 10.205-66.725-5.148-33.905-18.599-76.103-41.745-127.415-13.854-53.76 29.225-72.106 78.57-89.845 126.287-13.099 35.234-25.47 68.51-51.31 91.19-36.585 32.108-69.876 27.067-87.27 12.994-12.798-10.352-17.394-25.402-11.174-36.597 8.953-16.111 16.3-55.635-.921-77.038-11.692-14.534-32.08-17.522-60.603-8.89-39.886 12.07-66.724 63.621-92.675 113.472-29.326 56.335-59.653 114.588-109.16 116.144-.85.026-1.707.04-2.574.04"/>
                <path d="M415.768 502.539c-29.694.001-69.4-15.442-115.286-33.286-93.631-36.415-210.166-81.737-291.744-7.588l-1.041-1.15c82.284-74.795 199.314-29.28 293.348 7.29 45.738 17.786 85.322 33.18 114.72 33.18.384 0 .761-.002 1.138-.007 48.349-.654 78.828-56.528 108.306-110.562 26.312-48.231 53.518-98.103 93.805-111.043 27.217-8.743 47.771-6.317 61.075 7.219 20.603 20.956 17.825 64.665 11.862 82.338-3.213 9.521 2.251 21.314 13.289 28.674 17.302 11.538 48.585 12.577 84.51-19.083 24.95-21.951 37.42-53.567 50.621-87.042 18.125-45.955 36.87-93.474 90.006-120.837 50.601-26.065 92.203-2.56 125.624 16.32 27.3 15.418 48.87 27.605 65.452 7.367 18.023-21.986 22.089-53.815 26.39-87.512 4.622-36.15 9.396-73.53 32.865-98.36l1.124 1.069c-23.121 24.461-27.862 61.586-32.45 97.488-4.332 33.926-8.425 65.97-26.73 88.301-17.405 21.246-39.476 8.777-67.41-7-33.098-18.696-74.297-41.971-124.158-16.293-52.616 27.097-71.25 74.34-89.27 120.028-13.273 33.652-25.81 65.44-51.043 87.638-36.582 32.241-68.613 31.063-86.39 19.21-11.62-7.75-17.338-20.28-13.9-30.467 5.857-17.365 8.637-60.268-11.498-80.75-12.859-13.081-32.87-15.38-59.493-6.83-39.7 12.75-66.756 62.347-92.92 110.309-29.69 54.427-60.392 110.705-109.643 111.37-.386.007-.773.009-1.159.009"/>
                <path d="M410.136 498.81h-.328c-28.77-.121-67.046-14.563-111.365-31.286-92.912-35.062-208.554-78.7-290-3.804l-1.091-1.194c82.17-75.564 198.322-31.735 291.663 3.483 44.17 16.668 82.318 31.064 110.8 31.184h.318c47.901 0 77.33-51.418 108.48-105.854 26.506-46.31 53.913-94.2 93.966-107.805 24.375-8.285 43.835-7.03 57.814 3.725 26.26 20.203 26.089 67.73 24.797 87.229-.59 8.842 5.96 18.202 16.296 23.29 10.435 5.137 39.424 12.902 83.15-25.784 24.314-21.443 36.934-51.549 50.291-83.42 18.427-43.97 37.481-89.435 89.54-114.677 49.176-23.842 89.792-.22 122.428 18.76 27.265 15.854 48.8 28.374 66.068 9.2 19.589-21.743 24.572-54.748 29.844-89.69 5.347-35.428 10.874-72.064 33.122-95.803l1.178 1.106c-21.901 23.374-27.391 59.755-32.702 94.94-5.076 33.64-10.33 68.426-30.24 90.533-18.153 20.149-41.288 6.693-68.079-8.887-32.308-18.787-72.515-42.173-120.917-18.702-51.507 24.975-70.442 70.154-88.753 113.846-13.431 32.047-26.117 62.318-50.712 84.007-44.46 39.337-74.207 31.3-84.929 26.023-10.917-5.373-17.83-15.36-17.2-24.851 1.278-19.235 1.475-66.11-24.166-85.836-13.52-10.404-32.462-11.576-56.313-3.476-39.473 13.409-66.727 61.026-93.082 107.078-31.387 54.85-61.047 106.664-109.878 106.666"/>
                <path d="M404.32 495.11c-.542 0-1.084-.008-1.633-.02-27.677-.628-64.027-13.921-106.12-29.314-92.254-33.734-207.058-75.718-288.418-.004l-1.143-1.233c82.117-76.418 197.458-34.234 290.137-.343 41.952 15.341 78.182 28.59 105.584 29.21a62.5 62.5 0 0 0 1.582.018c46.952 0 76.516-49.185 107.802-101.232 26.672-44.369 54.25-90.25 94.032-104.496 21.935-7.859 40.206-7.553 54.304.907 26.337 15.806 32.405 56.677 35.666 78.633.831 5.592 1.484 10.01 2.243 12.725 1.832 6.549 8.032 14.798 19.942 18.308 12.423 3.662 39.492 4.267 81.223-32.805 23.648-20.906 36.393-49.47 49.885-79.714 18.746-42.025 38.132-85.48 89.151-108.597 47.741-21.636 87.392 2.1 119.248 21.174 27.228 16.302 48.738 29.176 66.67 11.057 21.281-21.495 27.484-57.363 33.479-92.052 5.984-34.62 12.17-70.416 33.199-93.062l1.23 1.145c-20.689 22.28-26.831 57.827-32.774 92.205-6.04 34.944-12.286 71.078-33.94 92.947-18.87 19.059-41.976 5.222-68.725-10.796-31.519-18.871-70.742-42.36-117.696-21.086-50.436 22.856-69.688 66.014-88.308 107.752-13.567 30.413-26.384 59.14-50.303 80.29-42.336 37.6-70.05 36.914-82.818 33.157-12.564-3.702-19.128-12.485-21.082-19.47-.787-2.817-1.45-7.278-2.288-12.929-3.219-21.682-9.208-62.041-34.866-77.438-13.643-8.19-31.434-8.448-52.878-.767-39.21 14.044-66.635 59.663-93.154 103.781-31.536 52.462-61.347 102.045-109.23 102.048"/>
                <path d="M398.566 491.432c-.996 0-1.99-.022-3.002-.064-26.524-1.101-60.896-13.27-100.694-27.36C203.236 431.57 89.201 391.2 7.857 467.825l-1.197-1.273c82.122-77.36 196.716-36.784 288.792-4.19 39.666 14.044 73.922 26.171 100.186 27.26 47.642 2.023 77.998-45.907 110.082-96.652 26.81-42.403 54.534-86.252 93.986-101.112 20.411-7.686 37.9-7.934 51.996-.735 25.845 13.2 35.613 48.848 42.08 72.437 2.801 10.227 5.013 18.304 7.636 21.862 3.927 5.335 11.186 11.964 23.467 13.246 20.51 2.144 47.973-11.6 79.52-39.73 22.944-20.335 35.792-47.337 49.393-75.923 19.093-40.122 38.833-81.612 88.852-102.606 46.32-19.44 84.998 4.404 116.076 23.562 27.196 16.769 48.682 30.02 67.268 12.94 23.098-21.226 30.31-58.508 37.284-94.562 6.525-33.736 13.274-68.617 33.098-90.173l1.283 1.183c-19.49 21.192-26.189 55.827-32.667 89.32-7.027 36.334-14.296 73.905-37.818 95.519-19.552 17.968-42.638 3.737-69.364-12.737-30.74-18.95-68.994-42.532-114.484-23.44-49.406 20.735-69 61.918-87.95 101.748-13.08 27.485-26.603 55.906-49.811 76.476-32.382 28.873-59.63 42.382-80.86 40.162-12.916-1.35-20.557-8.33-24.692-13.948-2.814-3.82-5.063-12.036-7.915-22.438-6.385-23.292-16.033-58.491-41.19-71.34-13.636-6.965-30.654-6.693-50.586.813-38.907 14.655-66.47 58.251-93.126 100.41-31.69 50.123-61.666 97.524-108.63 97.529"/>
                <path d="M392.879 487.784c-1.46 0-2.937-.045-4.433-.139-25.309-1.537-57.634-12.605-95.063-25.42-91.07-31.18-204.4-69.989-285.82 7.652l-1.248-1.312c82.212-78.398 196.123-39.396 287.652-8.055 37.306 12.772 69.526 23.804 94.59 25.327 47.497 2.95 78.327-43.257 110.898-92.172 26.911-40.414 54.737-82.206 93.816-97.644 19.204-7.588 36.05-8.261 50.06-1.999 25.747 11.506 37.946 44.39 46.852 68.403 4.955 13.35 9.232 24.879 14.232 28.536 17.669 12.927 42.604 17.191 104.876-38.553 22.193-19.72 35.714-46.307 48.787-72.017 19.467-38.28 39.593-77.862 88.672-96.728 44.901-17.258 82.598 6.688 112.902 25.924 26.102 16.574 48.652 30.89 67.86 14.848 25.047-20.919 33.293-59.697 41.268-97.198 7.293-34.292 14.178-66.682 32.82-87.156l1.337 1.221c-18.308 20.112-25.147 52.268-32.386 86.311-8.04 37.804-16.351 76.893-41.877 98.212-20.228 16.894-43.288 2.245-69.992-14.707-31.522-20.01-67.256-42.693-111.28-25.764-48.433 18.617-68.398 57.885-87.71 95.86-13.15 25.86-26.75 52.602-49.195 72.548-63.232 56.601-88.867 52.037-107.152 38.663-5.439-3.98-9.592-15.184-14.856-29.369-8.798-23.71-20.843-56.185-45.895-67.38-13.556-6.056-29.927-5.37-48.663 2.03-38.547 15.23-66.214 56.781-92.97 96.965-31.856 47.842-62.002 93.111-108.082 93.113"/>
                <path d="M387.263 484.169c-1.952 0-3.93-.082-5.942-.244-24.011-1.934-54.21-11.927-89.18-23.499C201.571 430.454 88.86 393.153 7.27 471.93l-1.3-1.35c82.397-79.566 195.712-42.066 286.76-11.936 34.854 11.534 64.956 21.495 88.741 23.407 47.473 3.89 78.758-40.638 111.867-87.778 26.97-38.402 54.858-78.113 93.491-94.089 59.784-24.72 82.498 25.697 99.084 62.504 7.38 16.376 13.758 30.52 21.508 33.897 24.855 10.833 44.729 4.798 106.76-50.705 21.3-19.06 34.831-43.89 47.916-67.903 19.904-36.533 40.489-74.312 88.756-91.06 43.454-15.08 78.655 7.945 109.717 28.257 26.105 17.067 48.656 31.815 68.468 16.785 27.121-20.564 36.418-60.913 45.413-99.932 7.656-33.24 14.892-64.635 32.37-84.04l1.395 1.257c-17.155 19.045-24.34 50.209-31.941 83.204-9.065 39.347-18.442 80.03-46.107 101.007-20.866 15.824-43.923.747-70.621-16.71-30.7-20.074-65.502-42.836-108.079-28.055-47.58 16.511-67.082 52.3-87.729 90.186-13.157 24.154-26.767 49.127-48.31 68.404-62.789 56.184-83.076 62.214-108.756 51.026-8.414-3.667-14.926-18.114-22.467-34.845-16.273-36.111-38.558-85.562-96.66-61.542-38.13 15.769-65.86 55.252-92.675 93.434-32.037 45.617-62.376 88.81-107.608 88.816"/>
                <path d="M381.733 480.588a74.78 74.78 0 0 1-7.54-.386c-22.618-2.278-50.604-11.223-83.008-21.585-90.152-28.82-202.344-64.69-284.207 15.366l-1.354-1.39c82.695-80.868 195.501-44.806 286.15-15.825 32.3 10.327 60.198 19.247 82.615 21.5 47.45 4.852 79.311-38.054 113.006-83.48 26.98-36.37 54.879-73.976 92.998-90.44 57.175-24.707 81.396 21.981 100.84 59.501 9.892 19.085 18.434 35.568 29.225 38.41 30.012 7.91 44.078-4.773 96.434-51.948 3.845-3.468 7.898-7.12 12.174-10.959 20.409-18.319 33.903-41.392 46.953-63.707 21.32-36.449 41.457-70.875 88.946-85.477 41.987-12.91 76.27 10.18 106.511 30.555 26.117 17.596 48.674 32.785 69.089 18.76 29.322-20.147 39.684-62.132 49.707-102.734 7.932-32.14 15.421-62.497 31.772-80.854l1.447 1.292c-16.029 17.999-23.465 48.13-31.338 80.028-10.11 40.955-20.56 83.304-50.492 103.868-21.51 14.778-44.565-.76-71.266-18.749-29.883-20.132-63.745-42.95-104.861-30.31-46.77 14.381-66.719 48.491-87.84 84.602-13.128 22.444-26.702 45.65-47.332 64.172-4.277 3.84-8.325 7.49-12.177 10.957-51.621 46.517-67.185 60.557-98.22 52.383-11.623-3.064-20.347-19.899-30.45-39.393-19.071-36.803-42.798-82.614-98.354-58.614-37.642 16.26-65.38 53.652-92.209 89.814-32.241 43.463-62.79 84.641-107.219 84.643"/>
                <path d="M376.298 477.05c-3.014 0-6.088-.188-9.232-.574-21.117-2.559-46.781-10.486-76.496-19.666-89.819-27.748-201.605-62.284-283.884 19.225l-1.41-1.428c83.131-82.35 200.323-46.148 285.886-19.714 29.622 9.152 55.206 17.054 76.145 19.592 47.57 5.83 80.002-35.51 114.363-79.29 26.928-34.31 54.77-69.789 92.281-86.684 55.111-24.812 81.295 20.613 102.342 57.118 12.44 21.576 23.184 40.212 37.234 42.33 28.794 4.343 41.171-7.934 71.085-37.595 10.31-10.224 23.138-22.946 39.338-37.538 19.427-17.496 32.81-38.769 45.756-59.34 21.884-34.781 42.556-67.635 89.373-80.064 40.538-10.765 73.873 12.386 103.284 32.81 26.133 18.152 48.714 33.832 69.732 20.774 31.644-19.651 43.077-63.33 54.133-105.57 8.115-31.009 15.78-60.299 31.037-77.634l1.503 1.329c-14.942 16.975-22.549 46.04-30.602 76.814-11.155 42.62-22.691 86.693-55.013 106.768-22.143 13.75-45.213-2.277-71.934-20.83-29.053-20.181-61.989-43.048-101.63-32.522-46.052 12.227-66.52 44.756-88.19 79.195-13.016 20.688-26.475 42.08-46.107 59.76-16.166 14.56-28.977 27.266-39.272 37.473-29.531 29.28-42.995 42.644-72.79 38.155-15.004-2.263-25.972-21.286-38.671-43.31-21.72-37.67-46.331-80.368-99.786-56.293-37.06 16.693-64.75 51.975-91.526 86.095-32.477 41.379-63.27 80.612-106.949 80.613"/>
                <path d="M6.393 478.084l-1.462-1.462c83.724-84.04 200.654-49.102 286.025-23.594 26.8 8.009 49.946 14.925 69.272 17.674 47.704 6.867 80.869-33 115.967-75.215 26.803-32.231 54.515-65.56 91.317-82.81 53.327-25.007 80.073 17.592 103.658 55.178 14.38 22.92 27.966 44.57 45.445 45.816 30.018 2.136 42.247-11.992 64.478-37.64 11.731-13.537 26.332-30.384 47.742-49.735 18.327-16.56 31.497-35.972 44.23-54.746 22.556-33.25 43.863-64.655 90.133-74.877 39.081-8.634 71.448 14.559 100.013 35.018 26.18 18.752 48.792 34.937 70.418 22.842 34.083-19.07 46.587-64.499 58.68-108.433 8.215-29.853 15.975-58.05 30.176-74.389l1.562 1.36c-13.891 15.983-21.593 43.961-29.743 73.58-11.638 42.279-24.827 90.199-59.663 109.69-22.781 12.744-45.882-3.804-72.635-22.964-28.215-20.206-60.186-43.115-98.361-34.68-45.468 10.043-66.549 41.12-88.866 74.018-12.804 18.876-26.046 38.392-44.553 55.12-21.321 19.264-35.875 36.06-47.571 49.553-22.666 26.155-35.146 40.55-66.185 38.35-18.527-1.321-32.384-23.401-47.054-46.78-23.126-36.86-49.347-78.627-101.028-54.405-36.383 17.056-63.947 50.204-90.603 82.261-32.743 39.377-63.82 76.738-106.808 76.743a77.5 77.5 0 0 1-11.041-.803c-19.478-2.774-42.693-9.708-69.573-17.74-84.868-25.362-201.11-60.093-283.97 23.07"/>
                <path d="M6.103 480.136l-1.522-1.5c84.538-85.983 201.363-52.145 286.669-27.438 22.807 6.605 44.353 12.846 61.903 15.72 47.986 7.95 81.925-30.53 117.877-71.27 26.584-30.13 54.076-61.284 90.042-78.806 51.859-25.262 80.006 16.628 104.847 53.578 16.844 25.05 32.755 48.712 53.804 48.97 32.456.37 44.06-15.488 63.45-41.809 11.841-16.071 26.578-36.072 50.549-57.812 17.077-15.484 29.887-32.969 42.276-49.876 23.363-31.89 45.431-62.006 91.327-69.967 37.608-6.511 68.985 16.692 96.684 37.164 26.24 19.394 48.903 36.142 71.156 24.97 36.629-18.387 50.814-67.746 63.33-111.293 8.244-28.681 16.03-55.77 29.21-71.146l1.62 1.39c-12.882 15.024-20.604 41.895-28.78 70.346-12.636 43.97-26.96 93.807-64.422 112.611-23.428 11.756-46.576-5.348-73.38-25.16-27.357-20.218-58.347-43.144-95.054-36.776-45.051 7.812-66.871 37.593-89.974 69.124-12.45 16.994-25.322 34.568-42.558 50.197-23.819 21.595-38.483 41.502-50.268 57.497-19.116 25.944-31.747 43.122-65.19 42.676-22.168-.271-38.38-24.385-55.548-49.915-25.553-37.999-51.978-77.287-102.144-52.849-35.586 17.335-62.932 48.329-89.381 78.3-36.354 41.197-70.706 80.11-119.819 71.966-17.674-2.898-39.279-9.154-62.153-15.779C205.87 428.692 89.75 395.06 6.103 480.136"/>
                <path d="M5.81 482.186l-1.574-1.533c85.598-88.256 202.536-55.289 287.915-31.224 19.729 5.563 38.363 10.816 53.926 13.71 48.357 9.086 81.633-26.397 120.163-67.486 26.26-28.005 53.411-56.962 88.39-74.645 50.546-25.556 78.712 13.996 105.95 52.239 19.303 27.097 37.655 52.705 62.258 51.865 35.35-1.18 47-19.712 64.632-47.76 11.504-18.3 25.823-41.075 51.14-64.11 15.63-14.225 27.888-29.697 39.743-44.66 24.358-30.746 47.364-59.787 93.104-65.4 36.115-4.428 66.477 18.77 93.288 39.235 26.32 20.086 49.055 37.433 71.96 27.168 39.276-17.591 54.57-68.879 68.065-114.129 8.202-27.503 15.947-53.48 28.156-67.926l1.679 1.421c-11.914 14.096-19.597 39.86-27.73 67.136-13.633 45.704-29.077 97.505-69.273 115.508-24.086 10.797-48.43-7.771-74.187-27.428-26.482-20.211-56.45-43.118-91.69-38.801-44.848 5.503-66.538 32.881-91.652 64.583-11.908 15.032-24.22 30.577-39.99 44.922-25.093 22.834-39.321 45.468-50.754 63.654-17.36 27.614-29.902 47.566-66.417 48.786-.42.013-.838.02-1.253.02-25.253.002-43.531-25.661-62.868-52.807-26.7-37.485-54.31-76.25-103.169-51.552-34.632 17.509-61.654 46.322-87.78 74.187-33.45 35.67-65.246 69.57-107.103 69.575-4.88 0-9.89-.46-15.064-1.432-15.662-2.913-34.34-8.178-54.118-13.753C206.708 427.63 90.501 394.87 5.81 482.186"/>
                <path d="M5.516 484.236l-1.632-1.566c87.003-90.946 204.308-58.545 289.946-34.89 16.39 4.527 31.87 8.802 45.172 11.576 48.877 10.3 83.2-24.075 122.92-63.886 25.792-25.854 52.465-52.585 86.268-70.294 49.403-25.881 78.674 13.258 106.982 51.105 21.753 29.075 42.27 56.528 70.793 54.552 38.744-2.7 50.526-24.511 66.834-54.695 11.56-21.4 24.664-45.653 50.696-69.424 14.21-12.974 25.653-26.57 36.724-39.716 25.895-30.75 48.255-57.308 93.753-60.425 34.531-2.365 64.273 20.715 90.533 41.075 26.885 20.846 50.114 38.851 73.741 29.465 42.014-16.678 58.402-69.94 72.865-116.933 8.103-26.325 15.756-51.189 27.033-64.74l1.736 1.45c-10.99 13.204-18.574 37.858-26.607 63.957-14.612 47.48-31.174 101.293-74.19 118.374-24.846 9.852-49.67-9.395-75.961-29.782-25.945-20.114-55.341-42.913-88.994-40.606-44.54 3.052-66.62 29.268-92.179 59.626-11.115 13.202-22.614 26.855-36.934 39.93-25.746 23.512-38.75 47.586-50.224 68.827-16.027 29.66-28.683 53.09-68.67 55.875-29.694 2.095-50.631-25.868-72.756-55.453-27.747-37.09-56.44-75.442-104.124-50.455-33.498 17.547-60.047 44.156-85.72 69.888-40.181 40.272-74.889 75.056-124.98 64.503-13.375-2.79-28.887-7.075-45.311-11.61-85.1-23.504-201.652-55.69-287.714 34.272"/>
                <path d="M5.226 486.286l-1.69-1.601c88.85-94.183 211.69-60.584 292.972-38.35 12.72 3.479 24.741 6.767 35.422 9.243 49.64 11.606 85.147-21.819 126.267-60.52 25.148-23.673 51.153-48.15 83.55-65.717 48.399-26.24 78.678 12.594 107.972 50.142 23.121 29.64 47.102 60.285 79.372 57.074 42.417-4.21 54.394-29.833 69.56-62.272 10.934-23.392 23.327-49.906 49.727-74.1 11.767-10.782 22.069-22.01 32.03-32.868 29.443-32.095 54.823-59.827 101.385-57.241 32.181 1.78 59.431 23.78 83.472 43.19 26.632 21.497 49.627 40.063 74.525 31.377 44.83-15.643 63.07-73.34 77.725-119.7 8.294-26.238 15.457-48.9 25.846-61.592l1.801 1.478c-10.104 12.344-17.207 34.807-25.43 60.818-14.811 46.855-33.245 105.168-79.174 121.196-26.125 9.115-50.713-10.743-76.753-31.762-24.93-20.128-50.707-40.94-82.139-42.679-45.422-2.519-70.5 24.831-99.546 56.49-9.993 10.896-20.328 22.161-32.171 33.013-26.057 23.882-38.35 50.173-49.192 73.37-15.48 33.109-27.703 59.258-71.433 63.6-33.658 3.35-57.932-27.824-81.438-57.956-30.02-38.483-58.388-74.824-105.03-49.528-32.132 17.423-58.024 41.796-83.066 65.363-41.603 39.163-77.55 72.984-128.386 61.094-10.724-2.487-22.764-5.78-35.509-9.267-80.75-22.087-202.778-55.463-290.67 37.705"/>
                <path d="M4.936 488.334l-1.747-1.633c91.325-98.192 215.286-64.053 297.307-41.462 8.643 2.38 16.805 4.628 24.367 6.562 50.604 13.033 87.567-19.628 130.367-57.449 24.274-21.451 49.373-43.633 80.076-60.843 47.48-26.62 78.719 11.985 108.92 49.314 25.435 31.438 51.77 63.954 88 59.458 46.282-5.731 58.455-35.653 72.552-70.3 10.275-25.258 21.921-53.887 48.487-78.321 9.913-9.114 18.68-18.134 27.163-26.857 30.59-31.461 54.732-56.314 101.455-53.875 31.357 1.633 57.796 23.542 83.365 44.728 26.17 21.685 50.892 42.164 76.09 34.518 47.72-14.482 67.072-74.33 82.619-122.418 8.092-25.018 15.076-46.625 24.623-58.492l1.863 1.503c-9.269 11.522-16.195 32.935-24.21 57.728-15.722 48.618-35.287 109.125-84.204 123.97-26.43 8.023-51.628-12.857-78.306-34.962-25.269-20.939-51.397-42.59-81.962-44.183-45.648-2.374-69.455 22.13-99.62 53.154-8.507 8.746-17.298 17.79-27.256 26.949-26.173 24.072-37.715 52.436-47.893 77.463-14.38 35.343-26.797 65.868-74.468 71.771-2.4.298-4.757.442-7.068.442-33.922.003-58.887-30.86-83.086-60.768-30.943-38.244-60.17-74.36-105.898-48.733-30.477 17.085-55.48 39.181-79.66 60.55-43.307 38.27-80.697 71.33-132.543 57.97-7.58-1.936-15.754-4.188-24.407-6.571-81.47-22.438-204.587-56.345-294.926 40.787"/>
                <path d="M4.648 490.382l-1.81-1.662c94.718-103.33 225.398-66.157 303.468-43.95 3.959 1.127 7.792 2.216 11.487 3.253 51.898 14.634 90.618-17.53 135.465-54.768 23.096-19.177 46.979-39.007 75.604-55.578 46.683-27.016 77.359 9.713 109.844 48.6 27.74 33.208 56.432 67.544 96.659 61.729 50.303-7.272 62.068-40.363 75.687-78.678 9.604-27.013 20.488-57.632 47.095-82.196 5.99-5.528 11.684-10.972 17.189-16.235 35.397-33.84 63.35-60.567 112.746-54.667 29.782 3.56 54.649 25.337 78.694 46.397 25.75 22.553 50.058 43.856 76.108 37.08 50.678-13.19 71.125-75.233 87.549-125.085 7.845-23.808 14.622-44.369 23.367-55.445l1.929 1.526c-8.48 10.735-15.191 31.104-22.963 54.69-16.613 50.418-37.291 113.168-89.265 126.694-27.295 7.097-52.088-14.614-78.343-37.61-23.762-20.812-48.337-42.337-77.366-45.805-48.23-5.765-75.836 20.609-110.76 54.003-5.51 5.272-11.213 10.722-17.218 16.266-26.163 24.152-36.476 53.16-46.45 81.213-13.885 39.064-25.879 72.801-77.65 80.285-3.18.46-6.295.68-9.336.682-36.708.004-63.538-32.12-89.556-63.266-31.8-38.07-61.834-74.035-106.729-48.047-28.448 16.466-52.25 36.227-75.266 55.34-45.385 37.68-84.579 70.221-137.698 55.241-3.695-1.034-7.532-2.126-11.495-3.252-77.526-22.053-207.296-58.966-300.986 43.245"/>
                <path d="M4.358 492.43l-1.87-1.694c99.502-110.165 235.291-68.743 308.24-46.491 53.545 16.437 92.53-14.04 141.886-52.63 21.505-16.815 43.741-34.206 69.807-49.769 45.93-27.428 77.415 9.196 110.743 47.98 30.032 34.948 61.09 71.085 105.344 63.904 54.444-8.833 65.772-45.208 78.892-87.326 9.37-30.073 19.058-61.173 45.634-85.799l4.58-4.245c41.868-38.875 72.113-66.965 124.646-56.855 28.097 5.407 51.783 26.942 74.689 47.77 25.95 23.597 50.478 45.883 77.484 39.966 53.697-11.768 75.211-76.055 92.502-127.71 7.566-22.6 14.098-42.118 22.082-52.439l1.99 1.546c-7.721 9.981-14.19 29.312-21.68 51.694-16.569 49.503-39.261 117.3-94.355 129.374-28.303 6.196-53.27-16.514-79.717-40.563-22.648-20.592-46.068-41.887-73.471-47.158-51.274-9.87-81.136 17.855-122.459 56.225l-4.577 4.249c-26.084 24.167-35.671 54.94-44.94 84.698-12.813 41.13-24.916 79.98-80.902 89.065-45.621 7.405-77.169-29.274-107.653-64.75-32.615-37.955-63.423-73.803-107.544-47.458-25.925 15.483-48.1 32.821-69.544 49.59-39.005 30.5-73.691 57.615-114.774 57.62-9.424 0-19.176-1.425-29.401-4.566-72.416-22.088-207.206-63.208-305.632 45.773"/>
                <path d="M4.067 494.478l-1.927-1.724c42.144-47.368 95.492-72.968 158.56-76.088 55.366-2.745 108.098 12.274 142.961 23.804 55.747 18.532 97.402-12.279 150.134-51.293 19.337-14.306 39.334-29.103 62.18-43.163 45.275-27.86 77.51 8.717 111.635 47.445 32.306 36.664 65.743 74.583 114.038 65.994 58.687-10.42 70.08-52.088 82.14-96.201 8.673-31.725 17.641-64.53 44.133-89.174 40.64-37.799 75.9-65.576 128.528-51.288 26.35 7.155 48.793 28.372 70.496 48.891 26.19 24.764 50.922 48.155 79.038 43.094 56.77-10.217 80.293-79.62 97.471-130.298 7.255-21.397 13.52-39.875 20.777-49.47l2.063 1.564c-7.006 9.261-13.21 27.555-20.391 48.738-17.384 51.288-41.195 121.527-99.461 132.015-29.416 5.291-54.592-18.534-81.273-43.76-21.469-20.299-43.67-41.29-69.399-48.275-51.447-13.971-84.712 12.197-126.09 50.686-25.955 24.14-34.823 56.584-43.4 87.96-12.283 44.926-23.881 87.36-84.18 98.067-49.732 8.84-83.649-29.628-116.43-66.83-33.384-37.885-64.914-73.677-108.341-46.952-22.753 14.004-42.705 28.765-61.997 43.04-53.336 39.461-95.472 70.627-152.483 51.667-83.886-27.74-206.128-52.586-298.782 51.55"/>
                <path d="M3.78 496.524l-1.99-1.75c90.098-102.83 210.052-88.343 294.807-58.078 58.676 21.04 103.818-10.83 160.975-51.183 16.338-11.534 33.231-23.46 51.96-35.328 44.662-28.31 77.621 8.263 112.503 46.974 34.572 38.364 70.315 78.03 122.759 68.018 63.014-12.032 73.881-57.322 85.384-105.27 7.987-33.295 16.248-67.722 42.626-92.354 40.527-37.844 77.782-59.376 127.838-41.47 24.526 8.777 45.652 29.585 66.081 49.71 26.469 26.074 51.481 50.7 80.814 46.52 59.881-8.54 84.485-80.387 102.448-132.848 6.915-20.198 12.888-37.642 19.46-46.54l2.132 1.578c-6.333 8.569-12.244 25.833-19.087 45.823-18.185 53.11-43.09 125.845-104.583 134.615-30.646 4.374-56.09-20.708-83.043-47.257-20.224-19.922-41.136-40.523-65.117-49.1-48.794-17.459-85.316 3.729-125.137 40.909-25.795 24.087-33.96 58.122-41.857 91.034-11.708 48.804-22.767 94.903-87.467 107.259-53.902 10.292-91.784-31.752-125.217-68.849-35.6-39.503-66.34-73.617-109.118-46.511-18.674 11.833-35.541 23.741-51.852 35.255-57.78 40.795-103.418 73.022-163.393 51.513-83.98-29.985-202.803-44.383-291.926 57.33"/>
                <path d="M3.493 498.571l-2.056-1.777c102.059-118.315 235.48-84.08 288.096-63.871 62.615 24.136 110.034-8.271 175.675-53.11 12.067-8.241 24.541-16.765 37.88-25.46 44.112-28.753 77.75 7.834 113.37 46.567 35.114 38.18 74.91 81.456 131.479 69.98 67.463-13.674 77.775-62.67 88.692-114.537 7.32-34.759 14.886-70.702 41.06-95.336 44.468-41.532 83.688-51.291 127.15-31.638 22.621 10.227 42.342 30.517 61.414 50.14 26.796 27.57 52.182 53.606 82.837 50.323 63.047-6.737 89.755-84.146 107.427-135.369 6.826-19.783 12.218-35.409 18.144-43.64l2.2 1.59c-5.69 7.907-11.292 24.14-17.777 42.938-17.896 51.873-44.943 130.263-109.704 137.184-32.108 3.43-57.804-23.075-85.072-51.131-18.895-19.441-38.436-39.542-60.583-49.557-42.34-19.14-80.63-9.533-124.183 31.146-25.549 24.043-33.024 59.56-40.256 93.91-10.617 50.447-21.598 102.612-90.81 116.643-58.071 11.77-98.421-32.096-134.015-70.804-36.332-39.508-67.717-73.63-109.893-46.13-13.312 8.68-25.776 17.193-37.83 25.427-66.325 45.307-114.241 78.046-178.177 53.401-52.085-20.004-184.139-53.899-285.068 63.111"/>
                <path d="M3.205 500.616l-2.12-1.802c108.305-127.572 242.759-85.572 281.388-69.662 67.989 28.08 119.061-6.41 196.359-58.627a5347.214 5347.214 0 0 1 17.81-12.002c43.602-29.216 77.904 7.426 114.227 46.209 37.245 39.77 79.462 84.843 140.212 71.894 71.923-15.333 82.078-70.529 91.9-123.904 6.66-36.2 13.55-73.63 39.593-98.222 40.893-38.377 83.44-45.713 126.467-21.794 20.617 11.458 38.84 31.101 56.463 50.098 27.168 29.278 52.809 56.938 85.14 54.587 66.264-4.814 94.04-84.888 112.418-137.875 6.423-18.528 11.501-33.164 16.81-40.751l2.274 1.597c-5.083 7.27-10.355 22.47-16.46 40.067-18.616 53.676-46.752 134.794-114.84 139.74-33.588 2.446-59.743-25.685-87.378-55.47-17.476-18.838-35.546-38.317-55.775-49.56-41.859-23.265-83.309-16.065-123.218 21.39-25.374 23.962-32.18 60.938-38.758 96.696-9.99 54.278-20.318 110.401-94.054 126.122-7.508 1.6-14.739 2.346-21.7 2.346-50.833.005-87.92-39.605-121.12-75.056-37.034-39.545-69.017-73.702-110.657-45.8-6.08 4.077-12.01 8.082-17.803 11.994-57.01 38.518-102.044 68.933-150.703 68.938-15.55.001-31.463-3.102-48.267-10.043-38.18-15.73-171.12-57.253-278.208 68.89"/>
                <path d="M2.917 502.663l-2.182-1.829c88.436-105.87 199.876-108.397 274.677-75.452 71.758 31.655 128.363-3.195 214.788-62.686 43.119-29.683 76.463 5.343 115.078 45.894 39.37 41.35 83.988 88.21 148.953 73.761 76.436-17.01 85.91-76.176 95.078-133.392 6.297-39.313 12.244-76.443 38.147-100.986 38.478-36.29 83.142-40.528 125.788-11.94 18.516 12.41 35.134 31.252 51.208 49.47 27.577 31.263 53.535 60.754 87.747 59.432 69.526-2.773 99.496-88.907 117.402-140.368 6.011-17.269 10.757-30.91 15.48-37.878l2.353 1.6c-4.514 6.658-9.207 20.143-15.146 37.213-18.147 52.148-48.517 139.428-119.979 142.277-.802.034-1.608.049-2.406.049-34.274.003-60.186-29.377-87.584-60.439-15.952-18.084-32.447-36.782-50.653-48.99-41.439-27.777-84.852-23.639-122.255 11.646-25.204 23.877-31.077 60.544-37.297 99.365-9.313 58.156-18.946 118.29-97.268 135.72-8.496 1.89-16.646 2.765-24.481 2.767-53.512.003-92.35-40.796-127.146-77.34-37.717-39.613-70.285-73.819-111.412-45.515-64.484 44.39-112.554 75.183-162.78 75.188-17.716.002-35.69-3.829-54.758-12.242-73.86-32.528-183.928-29.989-271.352 74.675"/>
                <path d="M2.63 504.706l-2.247-1.85c90.624-110.304 200.996-112.702 267.97-81.243 70 32.912 127.463 7.387 215.4-54.746 42.677-30.156 76.623 4.964 115.928 45.624 41.488 42.918 88.51 91.562 157.695 75.584 81.004-18.709 89.764-81.89 98.231-142.992 5.643-40.702 10.973-79.148 36.734-103.636 35.988-34.132 83.928-34.917 125.104-2.076 16.32 13.017 31.217 30.865 45.62 48.125 27.882 33.413 54.233 64.984 90.169 64.984.174 0 .345-.002.519-.003 72.838-.615 103.858-89.66 122.394-142.862 5.572-15.994 9.97-28.628 14.143-35l2.433 1.597c-3.975 6.074-8.326 18.557-13.831 34.364-18.786 53.925-50.228 144.18-125.116 144.814-.175.002-.352.003-.527.003-37.311.002-65.322-33.563-92.417-66.03-14.31-17.148-29.107-34.881-45.198-47.714-40.573-32.356-85.913-31.641-121.294 1.912-25.02 23.785-30.282 61.74-35.852 101.921-8.606 62.078-17.501 126.272-100.457 145.43-9.51 2.197-18.613 3.208-27.332 3.21-56.167.005-96.732-41.974-133.11-79.606-38.378-39.704-71.534-73.983-112.16-45.27-88.855 62.784-147.02 88.518-218.313 55.004C201.085 393.235 92.194 395.69 2.63 504.706"/>
                <path d="M2.343 506.75l-2.311-1.872c92.44-114.426 198.517-118.397 261.266-87.031 66.16 33.074 122.694 20.826 216.012-46.81 42.264-30.635 76.792 4.595 116.77 45.387 43.592 44.476 92.99 94.895 166.445 77.375 85.615-20.422 93.613-87.663 101.352-152.688 5.001-42.044 9.727-81.756 35.35-106.191 34.46-32.87 84.462-29.74 124.413 7.798 14.046 13.197 27.094 29.824 39.709 45.902 28.476 36.29 55.373 70.565 93.957 71.402.673.015 1.35.022 2.018.022 74.77 0 106.4-90.889 125.365-145.39 5.12-14.703 9.16-26.316 12.81-32.11l2.515 1.59c-3.47 5.505-7.461 16.977-12.516 31.5-18.13 52.094-51.897 149.098-130.257 147.365-39.993-.868-68.581-37.304-96.228-72.54-12.55-15.99-25.523-32.526-39.404-45.568-38.732-36.391-87.09-39.523-120.333-7.815-24.845 23.696-29.511 62.89-34.447 104.388-7.859 66.039-15.984 134.328-103.613 155.23-75.09 17.908-125.114-33.145-169.259-78.185-39.013-39.81-72.706-74.192-112.906-45.06-53.966 39.115-101.048 64.494-149.707 64.499-22.51.001-45.345-5.427-69.376-17.439-61.76-30.87-166.293-26.816-257.625 86.24"/>
            </g>
            <g fill="url(#d)" transform="rotate(8 2448.717 5329.841)">
                <path d="M421.467 506.293c-30.559.001-71.551-16.411-118.81-35.334-94.383-37.787-211.848-84.818-293.625-11.348l-.993-1.108c82.454-74.083 200.4-26.867 295.169 11.074 48.447 19.397 90.249 36.14 120.786 35.188 48.64-1.53 78.76-59.389 107.888-115.343 26.095-50.125 53.082-101.958 93.565-114.21 29.161-8.825 50.08-5.668 62.192 9.38 17.637 21.925 10.186 62.271 1.061 78.697-5.86 10.551-1.415 24.826 10.81 34.717 16.946 13.708 49.469 18.541 85.353-12.956 25.558-22.435 37.866-55.54 50.897-90.59 17.836-47.975 36.282-97.585 90.531-127.077 52.015-28.282 94.613-4.917 128.836 13.857 27.353 15.002 48.956 26.856 64.823 5.56 16.57-22.237 19.747-52.983 23.113-85.535 3.8-36.776 7.731-74.805 32.421-100.71l1.073 1.027c-24.338 25.536-28.243 63.308-32.016 99.837-3.386 32.761-6.587 63.706-23.402 86.274-16.633 22.324-38.74 10.205-66.725-5.148-33.905-18.599-76.103-41.745-127.415-13.854-53.76 29.225-72.106 78.57-89.845 126.287-13.099 35.234-25.47 68.51-51.31 91.19-36.585 32.108-69.876 27.067-87.27 12.994-12.798-10.352-17.394-25.402-11.174-36.597 8.953-16.111 16.3-55.635-.921-77.038-11.692-14.534-32.08-17.522-60.603-8.89-39.886 12.07-66.724 63.621-92.675 113.472-29.326 56.335-59.653 114.588-109.16 116.144-.85.026-1.707.04-2.574.04"/>
                <path d="M415.768 502.539c-29.694.001-69.4-15.442-115.286-33.286-93.631-36.415-210.166-81.737-291.744-7.588l-1.041-1.15c82.284-74.795 199.314-29.28 293.348 7.29 45.738 17.786 85.322 33.18 114.72 33.18.384 0 .761-.002 1.138-.007 48.349-.654 78.828-56.528 108.306-110.562 26.312-48.231 53.518-98.103 93.805-111.043 27.217-8.743 47.771-6.317 61.075 7.219 20.603 20.956 17.825 64.665 11.862 82.338-3.213 9.521 2.251 21.314 13.289 28.674 17.302 11.538 48.585 12.577 84.51-19.083 24.95-21.951 37.42-53.567 50.621-87.042 18.125-45.955 36.87-93.474 90.006-120.837 50.601-26.065 92.203-2.56 125.624 16.32 27.3 15.418 48.87 27.605 65.452 7.367 18.023-21.986 22.089-53.815 26.39-87.512 4.622-36.15 9.396-73.53 32.865-98.36l1.124 1.069c-23.121 24.461-27.862 61.586-32.45 97.488-4.332 33.926-8.425 65.97-26.73 88.301-17.405 21.246-39.476 8.777-67.41-7-33.098-18.696-74.297-41.971-124.158-16.293-52.616 27.097-71.25 74.34-89.27 120.028-13.273 33.652-25.81 65.44-51.043 87.638-36.582 32.241-68.613 31.063-86.39 19.21-11.62-7.75-17.338-20.28-13.9-30.467 5.857-17.365 8.637-60.268-11.498-80.75-12.859-13.081-32.87-15.38-59.493-6.83-39.7 12.75-66.756 62.347-92.92 110.309-29.69 54.427-60.392 110.705-109.643 111.37-.386.007-.773.009-1.159.009"/>
                <path d="M410.136 498.81h-.328c-28.77-.121-67.046-14.563-111.365-31.286-92.912-35.062-208.554-78.7-290-3.804l-1.091-1.194c82.17-75.564 198.322-31.735 291.663 3.483 44.17 16.668 82.318 31.064 110.8 31.184h.318c47.901 0 77.33-51.418 108.48-105.854 26.506-46.31 53.913-94.2 93.966-107.805 24.375-8.285 43.835-7.03 57.814 3.725 26.26 20.203 26.089 67.73 24.797 87.229-.59 8.842 5.96 18.202 16.296 23.29 10.435 5.137 39.424 12.902 83.15-25.784 24.314-21.443 36.934-51.549 50.291-83.42 18.427-43.97 37.481-89.435 89.54-114.677 49.176-23.842 89.792-.22 122.428 18.76 27.265 15.854 48.8 28.374 66.068 9.2 19.589-21.743 24.572-54.748 29.844-89.69 5.347-35.428 10.874-72.064 33.122-95.803l1.178 1.106c-21.901 23.374-27.391 59.755-32.702 94.94-5.076 33.64-10.33 68.426-30.24 90.533-18.153 20.149-41.288 6.693-68.079-8.887-32.308-18.787-72.515-42.173-120.917-18.702-51.507 24.975-70.442 70.154-88.753 113.846-13.431 32.047-26.117 62.318-50.712 84.007-44.46 39.337-74.207 31.3-84.929 26.023-10.917-5.373-17.83-15.36-17.2-24.851 1.278-19.235 1.475-66.11-24.166-85.836-13.52-10.404-32.462-11.576-56.313-3.476-39.473 13.409-66.727 61.026-93.082 107.078-31.387 54.85-61.047 106.664-109.878 106.666"/>
                <path d="M404.32 495.11c-.542 0-1.084-.008-1.633-.02-27.677-.628-64.027-13.921-106.12-29.314-92.254-33.734-207.058-75.718-288.418-.004l-1.143-1.233c82.117-76.418 197.458-34.234 290.137-.343 41.952 15.341 78.182 28.59 105.584 29.21a62.5 62.5 0 0 0 1.582.018c46.952 0 76.516-49.185 107.802-101.232 26.672-44.369 54.25-90.25 94.032-104.496 21.935-7.859 40.206-7.553 54.304.907 26.337 15.806 32.405 56.677 35.666 78.633.831 5.592 1.484 10.01 2.243 12.725 1.832 6.549 8.032 14.798 19.942 18.308 12.423 3.662 39.492 4.267 81.223-32.805 23.648-20.906 36.393-49.47 49.885-79.714 18.746-42.025 38.132-85.48 89.151-108.597 47.741-21.636 87.392 2.1 119.248 21.174 27.228 16.302 48.738 29.176 66.67 11.057 21.281-21.495 27.484-57.363 33.479-92.052 5.984-34.62 12.17-70.416 33.199-93.062l1.23 1.145c-20.689 22.28-26.831 57.827-32.774 92.205-6.04 34.944-12.286 71.078-33.94 92.947-18.87 19.059-41.976 5.222-68.725-10.796-31.519-18.871-70.742-42.36-117.696-21.086-50.436 22.856-69.688 66.014-88.308 107.752-13.567 30.413-26.384 59.14-50.303 80.29-42.336 37.6-70.05 36.914-82.818 33.157-12.564-3.702-19.128-12.485-21.082-19.47-.787-2.817-1.45-7.278-2.288-12.929-3.219-21.682-9.208-62.041-34.866-77.438-13.643-8.19-31.434-8.448-52.878-.767-39.21 14.044-66.635 59.663-93.154 103.781-31.536 52.462-61.347 102.045-109.23 102.048"/>
                <path d="M398.566 491.432c-.996 0-1.99-.022-3.002-.064-26.524-1.101-60.896-13.27-100.694-27.36C203.236 431.57 89.201 391.2 7.857 467.825l-1.197-1.273c82.122-77.36 196.716-36.784 288.792-4.19 39.666 14.044 73.922 26.171 100.186 27.26 47.642 2.023 77.998-45.907 110.082-96.652 26.81-42.403 54.534-86.252 93.986-101.112 20.411-7.686 37.9-7.934 51.996-.735 25.845 13.2 35.613 48.848 42.08 72.437 2.801 10.227 5.013 18.304 7.636 21.862 3.927 5.335 11.186 11.964 23.467 13.246 20.51 2.144 47.973-11.6 79.52-39.73 22.944-20.335 35.792-47.337 49.393-75.923 19.093-40.122 38.833-81.612 88.852-102.606 46.32-19.44 84.998 4.404 116.076 23.562 27.196 16.769 48.682 30.02 67.268 12.94 23.098-21.226 30.31-58.508 37.284-94.562 6.525-33.736 13.274-68.617 33.098-90.173l1.283 1.183c-19.49 21.192-26.189 55.827-32.667 89.32-7.027 36.334-14.296 73.905-37.818 95.519-19.552 17.968-42.638 3.737-69.364-12.737-30.74-18.95-68.994-42.532-114.484-23.44-49.406 20.735-69 61.918-87.95 101.748-13.08 27.485-26.603 55.906-49.811 76.476-32.382 28.873-59.63 42.382-80.86 40.162-12.916-1.35-20.557-8.33-24.692-13.948-2.814-3.82-5.063-12.036-7.915-22.438-6.385-23.292-16.033-58.491-41.19-71.34-13.636-6.965-30.654-6.693-50.586.813-38.907 14.655-66.47 58.251-93.126 100.41-31.69 50.123-61.666 97.524-108.63 97.529"/>
                <path d="M392.879 487.784c-1.46 0-2.937-.045-4.433-.139-25.309-1.537-57.634-12.605-95.063-25.42-91.07-31.18-204.4-69.989-285.82 7.652l-1.248-1.312c82.212-78.398 196.123-39.396 287.652-8.055 37.306 12.772 69.526 23.804 94.59 25.327 47.497 2.95 78.327-43.257 110.898-92.172 26.911-40.414 54.737-82.206 93.816-97.644 19.204-7.588 36.05-8.261 50.06-1.999 25.747 11.506 37.946 44.39 46.852 68.403 4.955 13.35 9.232 24.879 14.232 28.536 17.669 12.927 42.604 17.191 104.876-38.553 22.193-19.72 35.714-46.307 48.787-72.017 19.467-38.28 39.593-77.862 88.672-96.728 44.901-17.258 82.598 6.688 112.902 25.924 26.102 16.574 48.652 30.89 67.86 14.848 25.047-20.919 33.293-59.697 41.268-97.198 7.293-34.292 14.178-66.682 32.82-87.156l1.337 1.221c-18.308 20.112-25.147 52.268-32.386 86.311-8.04 37.804-16.351 76.893-41.877 98.212-20.228 16.894-43.288 2.245-69.992-14.707-31.522-20.01-67.256-42.693-111.28-25.764-48.433 18.617-68.398 57.885-87.71 95.86-13.15 25.86-26.75 52.602-49.195 72.548-63.232 56.601-88.867 52.037-107.152 38.663-5.439-3.98-9.592-15.184-14.856-29.369-8.798-23.71-20.843-56.185-45.895-67.38-13.556-6.056-29.927-5.37-48.663 2.03-38.547 15.23-66.214 56.781-92.97 96.965-31.856 47.842-62.002 93.111-108.082 93.113"/>
                <path d="M387.263 484.169c-1.952 0-3.93-.082-5.942-.244-24.011-1.934-54.21-11.927-89.18-23.499C201.571 430.454 88.86 393.153 7.27 471.93l-1.3-1.35c82.397-79.566 195.712-42.066 286.76-11.936 34.854 11.534 64.956 21.495 88.741 23.407 47.473 3.89 78.758-40.638 111.867-87.778 26.97-38.402 54.858-78.113 93.491-94.089 59.784-24.72 82.498 25.697 99.084 62.504 7.38 16.376 13.758 30.52 21.508 33.897 24.855 10.833 44.729 4.798 106.76-50.705 21.3-19.06 34.831-43.89 47.916-67.903 19.904-36.533 40.489-74.312 88.756-91.06 43.454-15.08 78.655 7.945 109.717 28.257 26.105 17.067 48.656 31.815 68.468 16.785 27.121-20.564 36.418-60.913 45.413-99.932 7.656-33.24 14.892-64.635 32.37-84.04l1.395 1.257c-17.155 19.045-24.34 50.209-31.941 83.204-9.065 39.347-18.442 80.03-46.107 101.007-20.866 15.824-43.923.747-70.621-16.71-30.7-20.074-65.502-42.836-108.079-28.055-47.58 16.511-67.082 52.3-87.729 90.186-13.157 24.154-26.767 49.127-48.31 68.404-62.789 56.184-83.076 62.214-108.756 51.026-8.414-3.667-14.926-18.114-22.467-34.845-16.273-36.111-38.558-85.562-96.66-61.542-38.13 15.769-65.86 55.252-92.675 93.434-32.037 45.617-62.376 88.81-107.608 88.816"/>
                <path d="M381.733 480.588a74.78 74.78 0 0 1-7.54-.386c-22.618-2.278-50.604-11.223-83.008-21.585-90.152-28.82-202.344-64.69-284.207 15.366l-1.354-1.39c82.695-80.868 195.501-44.806 286.15-15.825 32.3 10.327 60.198 19.247 82.615 21.5 47.45 4.852 79.311-38.054 113.006-83.48 26.98-36.37 54.879-73.976 92.998-90.44 57.175-24.707 81.396 21.981 100.84 59.501 9.892 19.085 18.434 35.568 29.225 38.41 30.012 7.91 44.078-4.773 96.434-51.948 3.845-3.468 7.898-7.12 12.174-10.959 20.409-18.319 33.903-41.392 46.953-63.707 21.32-36.449 41.457-70.875 88.946-85.477 41.987-12.91 76.27 10.18 106.511 30.555 26.117 17.596 48.674 32.785 69.089 18.76 29.322-20.147 39.684-62.132 49.707-102.734 7.932-32.14 15.421-62.497 31.772-80.854l1.447 1.292c-16.029 17.999-23.465 48.13-31.338 80.028-10.11 40.955-20.56 83.304-50.492 103.868-21.51 14.778-44.565-.76-71.266-18.749-29.883-20.132-63.745-42.95-104.861-30.31-46.77 14.381-66.719 48.491-87.84 84.602-13.128 22.444-26.702 45.65-47.332 64.172-4.277 3.84-8.325 7.49-12.177 10.957-51.621 46.517-67.185 60.557-98.22 52.383-11.623-3.064-20.347-19.899-30.45-39.393-19.071-36.803-42.798-82.614-98.354-58.614-37.642 16.26-65.38 53.652-92.209 89.814-32.241 43.463-62.79 84.641-107.219 84.643"/>
                <path d="M376.298 477.05c-3.014 0-6.088-.188-9.232-.574-21.117-2.559-46.781-10.486-76.496-19.666-89.819-27.748-201.605-62.284-283.884 19.225l-1.41-1.428c83.131-82.35 200.323-46.148 285.886-19.714 29.622 9.152 55.206 17.054 76.145 19.592 47.57 5.83 80.002-35.51 114.363-79.29 26.928-34.31 54.77-69.789 92.281-86.684 55.111-24.812 81.295 20.613 102.342 57.118 12.44 21.576 23.184 40.212 37.234 42.33 28.794 4.343 41.171-7.934 71.085-37.595 10.31-10.224 23.138-22.946 39.338-37.538 19.427-17.496 32.81-38.769 45.756-59.34 21.884-34.781 42.556-67.635 89.373-80.064 40.538-10.765 73.873 12.386 103.284 32.81 26.133 18.152 48.714 33.832 69.732 20.774 31.644-19.651 43.077-63.33 54.133-105.57 8.115-31.009 15.78-60.299 31.037-77.634l1.503 1.329c-14.942 16.975-22.549 46.04-30.602 76.814-11.155 42.62-22.691 86.693-55.013 106.768-22.143 13.75-45.213-2.277-71.934-20.83-29.053-20.181-61.989-43.048-101.63-32.522-46.052 12.227-66.52 44.756-88.19 79.195-13.016 20.688-26.475 42.08-46.107 59.76-16.166 14.56-28.977 27.266-39.272 37.473-29.531 29.28-42.995 42.644-72.79 38.155-15.004-2.263-25.972-21.286-38.671-43.31-21.72-37.67-46.331-80.368-99.786-56.293-37.06 16.693-64.75 51.975-91.526 86.095-32.477 41.379-63.27 80.612-106.949 80.613"/>
                <path d="M6.393 478.084l-1.462-1.462c83.724-84.04 200.654-49.102 286.025-23.594 26.8 8.009 49.946 14.925 69.272 17.674 47.704 6.867 80.869-33 115.967-75.215 26.803-32.231 54.515-65.56 91.317-82.81 53.327-25.007 80.073 17.592 103.658 55.178 14.38 22.92 27.966 44.57 45.445 45.816 30.018 2.136 42.247-11.992 64.478-37.64 11.731-13.537 26.332-30.384 47.742-49.735 18.327-16.56 31.497-35.972 44.23-54.746 22.556-33.25 43.863-64.655 90.133-74.877 39.081-8.634 71.448 14.559 100.013 35.018 26.18 18.752 48.792 34.937 70.418 22.842 34.083-19.07 46.587-64.499 58.68-108.433 8.215-29.853 15.975-58.05 30.176-74.389l1.562 1.36c-13.891 15.983-21.593 43.961-29.743 73.58-11.638 42.279-24.827 90.199-59.663 109.69-22.781 12.744-45.882-3.804-72.635-22.964-28.215-20.206-60.186-43.115-98.361-34.68-45.468 10.043-66.549 41.12-88.866 74.018-12.804 18.876-26.046 38.392-44.553 55.12-21.321 19.264-35.875 36.06-47.571 49.553-22.666 26.155-35.146 40.55-66.185 38.35-18.527-1.321-32.384-23.401-47.054-46.78-23.126-36.86-49.347-78.627-101.028-54.405-36.383 17.056-63.947 50.204-90.603 82.261-32.743 39.377-63.82 76.738-106.808 76.743a77.5 77.5 0 0 1-11.041-.803c-19.478-2.774-42.693-9.708-69.573-17.74-84.868-25.362-201.11-60.093-283.97 23.07"/>
                <path d="M6.103 480.136l-1.522-1.5c84.538-85.983 201.363-52.145 286.669-27.438 22.807 6.605 44.353 12.846 61.903 15.72 47.986 7.95 81.925-30.53 117.877-71.27 26.584-30.13 54.076-61.284 90.042-78.806 51.859-25.262 80.006 16.628 104.847 53.578 16.844 25.05 32.755 48.712 53.804 48.97 32.456.37 44.06-15.488 63.45-41.809 11.841-16.071 26.578-36.072 50.549-57.812 17.077-15.484 29.887-32.969 42.276-49.876 23.363-31.89 45.431-62.006 91.327-69.967 37.608-6.511 68.985 16.692 96.684 37.164 26.24 19.394 48.903 36.142 71.156 24.97 36.629-18.387 50.814-67.746 63.33-111.293 8.244-28.681 16.03-55.77 29.21-71.146l1.62 1.39c-12.882 15.024-20.604 41.895-28.78 70.346-12.636 43.97-26.96 93.807-64.422 112.611-23.428 11.756-46.576-5.348-73.38-25.16-27.357-20.218-58.347-43.144-95.054-36.776-45.051 7.812-66.871 37.593-89.974 69.124-12.45 16.994-25.322 34.568-42.558 50.197-23.819 21.595-38.483 41.502-50.268 57.497-19.116 25.944-31.747 43.122-65.19 42.676-22.168-.271-38.38-24.385-55.548-49.915-25.553-37.999-51.978-77.287-102.144-52.849-35.586 17.335-62.932 48.329-89.381 78.3-36.354 41.197-70.706 80.11-119.819 71.966-17.674-2.898-39.279-9.154-62.153-15.779C205.87 428.692 89.75 395.06 6.103 480.136"/>
                <path d="M5.81 482.186l-1.574-1.533c85.598-88.256 202.536-55.289 287.915-31.224 19.729 5.563 38.363 10.816 53.926 13.71 48.357 9.086 81.633-26.397 120.163-67.486 26.26-28.005 53.411-56.962 88.39-74.645 50.546-25.556 78.712 13.996 105.95 52.239 19.303 27.097 37.655 52.705 62.258 51.865 35.35-1.18 47-19.712 64.632-47.76 11.504-18.3 25.823-41.075 51.14-64.11 15.63-14.225 27.888-29.697 39.743-44.66 24.358-30.746 47.364-59.787 93.104-65.4 36.115-4.428 66.477 18.77 93.288 39.235 26.32 20.086 49.055 37.433 71.96 27.168 39.276-17.591 54.57-68.879 68.065-114.129 8.202-27.503 15.947-53.48 28.156-67.926l1.679 1.421c-11.914 14.096-19.597 39.86-27.73 67.136-13.633 45.704-29.077 97.505-69.273 115.508-24.086 10.797-48.43-7.771-74.187-27.428-26.482-20.211-56.45-43.118-91.69-38.801-44.848 5.503-66.538 32.881-91.652 64.583-11.908 15.032-24.22 30.577-39.99 44.922-25.093 22.834-39.321 45.468-50.754 63.654-17.36 27.614-29.902 47.566-66.417 48.786-.42.013-.838.02-1.253.02-25.253.002-43.531-25.661-62.868-52.807-26.7-37.485-54.31-76.25-103.169-51.552-34.632 17.509-61.654 46.322-87.78 74.187-33.45 35.67-65.246 69.57-107.103 69.575-4.88 0-9.89-.46-15.064-1.432-15.662-2.913-34.34-8.178-54.118-13.753C206.708 427.63 90.501 394.87 5.81 482.186"/>
                <path d="M5.516 484.236l-1.632-1.566c87.003-90.946 204.308-58.545 289.946-34.89 16.39 4.527 31.87 8.802 45.172 11.576 48.877 10.3 83.2-24.075 122.92-63.886 25.792-25.854 52.465-52.585 86.268-70.294 49.403-25.881 78.674 13.258 106.982 51.105 21.753 29.075 42.27 56.528 70.793 54.552 38.744-2.7 50.526-24.511 66.834-54.695 11.56-21.4 24.664-45.653 50.696-69.424 14.21-12.974 25.653-26.57 36.724-39.716 25.895-30.75 48.255-57.308 93.753-60.425 34.531-2.365 64.273 20.715 90.533 41.075 26.885 20.846 50.114 38.851 73.741 29.465 42.014-16.678 58.402-69.94 72.865-116.933 8.103-26.325 15.756-51.189 27.033-64.74l1.736 1.45c-10.99 13.204-18.574 37.858-26.607 63.957-14.612 47.48-31.174 101.293-74.19 118.374-24.846 9.852-49.67-9.395-75.961-29.782-25.945-20.114-55.341-42.913-88.994-40.606-44.54 3.052-66.62 29.268-92.179 59.626-11.115 13.202-22.614 26.855-36.934 39.93-25.746 23.512-38.75 47.586-50.224 68.827-16.027 29.66-28.683 53.09-68.67 55.875-29.694 2.095-50.631-25.868-72.756-55.453-27.747-37.09-56.44-75.442-104.124-50.455-33.498 17.547-60.047 44.156-85.72 69.888-40.181 40.272-74.889 75.056-124.98 64.503-13.375-2.79-28.887-7.075-45.311-11.61-85.1-23.504-201.652-55.69-287.714 34.272"/>
                <path d="M5.226 486.286l-1.69-1.601c88.85-94.183 211.69-60.584 292.972-38.35 12.72 3.479 24.741 6.767 35.422 9.243 49.64 11.606 85.147-21.819 126.267-60.52 25.148-23.673 51.153-48.15 83.55-65.717 48.399-26.24 78.678 12.594 107.972 50.142 23.121 29.64 47.102 60.285 79.372 57.074 42.417-4.21 54.394-29.833 69.56-62.272 10.934-23.392 23.327-49.906 49.727-74.1 11.767-10.782 22.069-22.01 32.03-32.868 29.443-32.095 54.823-59.827 101.385-57.241 32.181 1.78 59.431 23.78 83.472 43.19 26.632 21.497 49.627 40.063 74.525 31.377 44.83-15.643 63.07-73.34 77.725-119.7 8.294-26.238 15.457-48.9 25.846-61.592l1.801 1.478c-10.104 12.344-17.207 34.807-25.43 60.818-14.811 46.855-33.245 105.168-79.174 121.196-26.125 9.115-50.713-10.743-76.753-31.762-24.93-20.128-50.707-40.94-82.139-42.679-45.422-2.519-70.5 24.831-99.546 56.49-9.993 10.896-20.328 22.161-32.171 33.013-26.057 23.882-38.35 50.173-49.192 73.37-15.48 33.109-27.703 59.258-71.433 63.6-33.658 3.35-57.932-27.824-81.438-57.956-30.02-38.483-58.388-74.824-105.03-49.528-32.132 17.423-58.024 41.796-83.066 65.363-41.603 39.163-77.55 72.984-128.386 61.094-10.724-2.487-22.764-5.78-35.509-9.267-80.75-22.087-202.778-55.463-290.67 37.705"/>
                <path d="M4.936 488.334l-1.747-1.633c91.325-98.192 215.286-64.053 297.307-41.462 8.643 2.38 16.805 4.628 24.367 6.562 50.604 13.033 87.567-19.628 130.367-57.449 24.274-21.451 49.373-43.633 80.076-60.843 47.48-26.62 78.719 11.985 108.92 49.314 25.435 31.438 51.77 63.954 88 59.458 46.282-5.731 58.455-35.653 72.552-70.3 10.275-25.258 21.921-53.887 48.487-78.321 9.913-9.114 18.68-18.134 27.163-26.857 30.59-31.461 54.732-56.314 101.455-53.875 31.357 1.633 57.796 23.542 83.365 44.728 26.17 21.685 50.892 42.164 76.09 34.518 47.72-14.482 67.072-74.33 82.619-122.418 8.092-25.018 15.076-46.625 24.623-58.492l1.863 1.503c-9.269 11.522-16.195 32.935-24.21 57.728-15.722 48.618-35.287 109.125-84.204 123.97-26.43 8.023-51.628-12.857-78.306-34.962-25.269-20.939-51.397-42.59-81.962-44.183-45.648-2.374-69.455 22.13-99.62 53.154-8.507 8.746-17.298 17.79-27.256 26.949-26.173 24.072-37.715 52.436-47.893 77.463-14.38 35.343-26.797 65.868-74.468 71.771-2.4.298-4.757.442-7.068.442-33.922.003-58.887-30.86-83.086-60.768-30.943-38.244-60.17-74.36-105.898-48.733-30.477 17.085-55.48 39.181-79.66 60.55-43.307 38.27-80.697 71.33-132.543 57.97-7.58-1.936-15.754-4.188-24.407-6.571-81.47-22.438-204.587-56.345-294.926 40.787"/>
                <path d="M4.648 490.382l-1.81-1.662c94.718-103.33 225.398-66.157 303.468-43.95 3.959 1.127 7.792 2.216 11.487 3.253 51.898 14.634 90.618-17.53 135.465-54.768 23.096-19.177 46.979-39.007 75.604-55.578 46.683-27.016 77.359 9.713 109.844 48.6 27.74 33.208 56.432 67.544 96.659 61.729 50.303-7.272 62.068-40.363 75.687-78.678 9.604-27.013 20.488-57.632 47.095-82.196 5.99-5.528 11.684-10.972 17.189-16.235 35.397-33.84 63.35-60.567 112.746-54.667 29.782 3.56 54.649 25.337 78.694 46.397 25.75 22.553 50.058 43.856 76.108 37.08 50.678-13.19 71.125-75.233 87.549-125.085 7.845-23.808 14.622-44.369 23.367-55.445l1.929 1.526c-8.48 10.735-15.191 31.104-22.963 54.69-16.613 50.418-37.291 113.168-89.265 126.694-27.295 7.097-52.088-14.614-78.343-37.61-23.762-20.812-48.337-42.337-77.366-45.805-48.23-5.765-75.836 20.609-110.76 54.003-5.51 5.272-11.213 10.722-17.218 16.266-26.163 24.152-36.476 53.16-46.45 81.213-13.885 39.064-25.879 72.801-77.65 80.285-3.18.46-6.295.68-9.336.682-36.708.004-63.538-32.12-89.556-63.266-31.8-38.07-61.834-74.035-106.729-48.047-28.448 16.466-52.25 36.227-75.266 55.34-45.385 37.68-84.579 70.221-137.698 55.241-3.695-1.034-7.532-2.126-11.495-3.252-77.526-22.053-207.296-58.966-300.986 43.245"/>
                <path d="M4.358 492.43l-1.87-1.694c99.502-110.165 235.291-68.743 308.24-46.491 53.545 16.437 92.53-14.04 141.886-52.63 21.505-16.815 43.741-34.206 69.807-49.769 45.93-27.428 77.415 9.196 110.743 47.98 30.032 34.948 61.09 71.085 105.344 63.904 54.444-8.833 65.772-45.208 78.892-87.326 9.37-30.073 19.058-61.173 45.634-85.799l4.58-4.245c41.868-38.875 72.113-66.965 124.646-56.855 28.097 5.407 51.783 26.942 74.689 47.77 25.95 23.597 50.478 45.883 77.484 39.966 53.697-11.768 75.211-76.055 92.502-127.71 7.566-22.6 14.098-42.118 22.082-52.439l1.99 1.546c-7.721 9.981-14.19 29.312-21.68 51.694-16.569 49.503-39.261 117.3-94.355 129.374-28.303 6.196-53.27-16.514-79.717-40.563-22.648-20.592-46.068-41.887-73.471-47.158-51.274-9.87-81.136 17.855-122.459 56.225l-4.577 4.249c-26.084 24.167-35.671 54.94-44.94 84.698-12.813 41.13-24.916 79.98-80.902 89.065-45.621 7.405-77.169-29.274-107.653-64.75-32.615-37.955-63.423-73.803-107.544-47.458-25.925 15.483-48.1 32.821-69.544 49.59-39.005 30.5-73.691 57.615-114.774 57.62-9.424 0-19.176-1.425-29.401-4.566-72.416-22.088-207.206-63.208-305.632 45.773"/>
                <path d="M4.067 494.478l-1.927-1.724c42.144-47.368 95.492-72.968 158.56-76.088 55.366-2.745 108.098 12.274 142.961 23.804 55.747 18.532 97.402-12.279 150.134-51.293 19.337-14.306 39.334-29.103 62.18-43.163 45.275-27.86 77.51 8.717 111.635 47.445 32.306 36.664 65.743 74.583 114.038 65.994 58.687-10.42 70.08-52.088 82.14-96.201 8.673-31.725 17.641-64.53 44.133-89.174 40.64-37.799 75.9-65.576 128.528-51.288 26.35 7.155 48.793 28.372 70.496 48.891 26.19 24.764 50.922 48.155 79.038 43.094 56.77-10.217 80.293-79.62 97.471-130.298 7.255-21.397 13.52-39.875 20.777-49.47l2.063 1.564c-7.006 9.261-13.21 27.555-20.391 48.738-17.384 51.288-41.195 121.527-99.461 132.015-29.416 5.291-54.592-18.534-81.273-43.76-21.469-20.299-43.67-41.29-69.399-48.275-51.447-13.971-84.712 12.197-126.09 50.686-25.955 24.14-34.823 56.584-43.4 87.96-12.283 44.926-23.881 87.36-84.18 98.067-49.732 8.84-83.649-29.628-116.43-66.83-33.384-37.885-64.914-73.677-108.341-46.952-22.753 14.004-42.705 28.765-61.997 43.04-53.336 39.461-95.472 70.627-152.483 51.667-83.886-27.74-206.128-52.586-298.782 51.55"/>
                <path d="M3.78 496.524l-1.99-1.75c90.098-102.83 210.052-88.343 294.807-58.078 58.676 21.04 103.818-10.83 160.975-51.183 16.338-11.534 33.231-23.46 51.96-35.328 44.662-28.31 77.621 8.263 112.503 46.974 34.572 38.364 70.315 78.03 122.759 68.018 63.014-12.032 73.881-57.322 85.384-105.27 7.987-33.295 16.248-67.722 42.626-92.354 40.527-37.844 77.782-59.376 127.838-41.47 24.526 8.777 45.652 29.585 66.081 49.71 26.469 26.074 51.481 50.7 80.814 46.52 59.881-8.54 84.485-80.387 102.448-132.848 6.915-20.198 12.888-37.642 19.46-46.54l2.132 1.578c-6.333 8.569-12.244 25.833-19.087 45.823-18.185 53.11-43.09 125.845-104.583 134.615-30.646 4.374-56.09-20.708-83.043-47.257-20.224-19.922-41.136-40.523-65.117-49.1-48.794-17.459-85.316 3.729-125.137 40.909-25.795 24.087-33.96 58.122-41.857 91.034-11.708 48.804-22.767 94.903-87.467 107.259-53.902 10.292-91.784-31.752-125.217-68.849-35.6-39.503-66.34-73.617-109.118-46.511-18.674 11.833-35.541 23.741-51.852 35.255-57.78 40.795-103.418 73.022-163.393 51.513-83.98-29.985-202.803-44.383-291.926 57.33"/>
                <path d="M3.493 498.571l-2.056-1.777c102.059-118.315 235.48-84.08 288.096-63.871 62.615 24.136 110.034-8.271 175.675-53.11 12.067-8.241 24.541-16.765 37.88-25.46 44.112-28.753 77.75 7.834 113.37 46.567 35.114 38.18 74.91 81.456 131.479 69.98 67.463-13.674 77.775-62.67 88.692-114.537 7.32-34.759 14.886-70.702 41.06-95.336 44.468-41.532 83.688-51.291 127.15-31.638 22.621 10.227 42.342 30.517 61.414 50.14 26.796 27.57 52.182 53.606 82.837 50.323 63.047-6.737 89.755-84.146 107.427-135.369 6.826-19.783 12.218-35.409 18.144-43.64l2.2 1.59c-5.69 7.907-11.292 24.14-17.777 42.938-17.896 51.873-44.943 130.263-109.704 137.184-32.108 3.43-57.804-23.075-85.072-51.131-18.895-19.441-38.436-39.542-60.583-49.557-42.34-19.14-80.63-9.533-124.183 31.146-25.549 24.043-33.024 59.56-40.256 93.91-10.617 50.447-21.598 102.612-90.81 116.643-58.071 11.77-98.421-32.096-134.015-70.804-36.332-39.508-67.717-73.63-109.893-46.13-13.312 8.68-25.776 17.193-37.83 25.427-66.325 45.307-114.241 78.046-178.177 53.401-52.085-20.004-184.139-53.899-285.068 63.111"/>
                <path d="M3.205 500.616l-2.12-1.802c108.305-127.572 242.759-85.572 281.388-69.662 67.989 28.08 119.061-6.41 196.359-58.627a5347.214 5347.214 0 0 1 17.81-12.002c43.602-29.216 77.904 7.426 114.227 46.209 37.245 39.77 79.462 84.843 140.212 71.894 71.923-15.333 82.078-70.529 91.9-123.904 6.66-36.2 13.55-73.63 39.593-98.222 40.893-38.377 83.44-45.713 126.467-21.794 20.617 11.458 38.84 31.101 56.463 50.098 27.168 29.278 52.809 56.938 85.14 54.587 66.264-4.814 94.04-84.888 112.418-137.875 6.423-18.528 11.501-33.164 16.81-40.751l2.274 1.597c-5.083 7.27-10.355 22.47-16.46 40.067-18.616 53.676-46.752 134.794-114.84 139.74-33.588 2.446-59.743-25.685-87.378-55.47-17.476-18.838-35.546-38.317-55.775-49.56-41.859-23.265-83.309-16.065-123.218 21.39-25.374 23.962-32.18 60.938-38.758 96.696-9.99 54.278-20.318 110.401-94.054 126.122-7.508 1.6-14.739 2.346-21.7 2.346-50.833.005-87.92-39.605-121.12-75.056-37.034-39.545-69.017-73.702-110.657-45.8-6.08 4.077-12.01 8.082-17.803 11.994-57.01 38.518-102.044 68.933-150.703 68.938-15.55.001-31.463-3.102-48.267-10.043-38.18-15.73-171.12-57.253-278.208 68.89"/>
                <path d="M2.917 502.663l-2.182-1.829c88.436-105.87 199.876-108.397 274.677-75.452 71.758 31.655 128.363-3.195 214.788-62.686 43.119-29.683 76.463 5.343 115.078 45.894 39.37 41.35 83.988 88.21 148.953 73.761 76.436-17.01 85.91-76.176 95.078-133.392 6.297-39.313 12.244-76.443 38.147-100.986 38.478-36.29 83.142-40.528 125.788-11.94 18.516 12.41 35.134 31.252 51.208 49.47 27.577 31.263 53.535 60.754 87.747 59.432 69.526-2.773 99.496-88.907 117.402-140.368 6.011-17.269 10.757-30.91 15.48-37.878l2.353 1.6c-4.514 6.658-9.207 20.143-15.146 37.213-18.147 52.148-48.517 139.428-119.979 142.277-.802.034-1.608.049-2.406.049-34.274.003-60.186-29.377-87.584-60.439-15.952-18.084-32.447-36.782-50.653-48.99-41.439-27.777-84.852-23.639-122.255 11.646-25.204 23.877-31.077 60.544-37.297 99.365-9.313 58.156-18.946 118.29-97.268 135.72-8.496 1.89-16.646 2.765-24.481 2.767-53.512.003-92.35-40.796-127.146-77.34-37.717-39.613-70.285-73.819-111.412-45.515-64.484 44.39-112.554 75.183-162.78 75.188-17.716.002-35.69-3.829-54.758-12.242-73.86-32.528-183.928-29.989-271.352 74.675"/>
                <path d="M2.63 504.706l-2.247-1.85c90.624-110.304 200.996-112.702 267.97-81.243 70 32.912 127.463 7.387 215.4-54.746 42.677-30.156 76.623 4.964 115.928 45.624 41.488 42.918 88.51 91.562 157.695 75.584 81.004-18.709 89.764-81.89 98.231-142.992 5.643-40.702 10.973-79.148 36.734-103.636 35.988-34.132 83.928-34.917 125.104-2.076 16.32 13.017 31.217 30.865 45.62 48.125 27.882 33.413 54.233 64.984 90.169 64.984.174 0 .345-.002.519-.003 72.838-.615 103.858-89.66 122.394-142.862 5.572-15.994 9.97-28.628 14.143-35l2.433 1.597c-3.975 6.074-8.326 18.557-13.831 34.364-18.786 53.925-50.228 144.18-125.116 144.814-.175.002-.352.003-.527.003-37.311.002-65.322-33.563-92.417-66.03-14.31-17.148-29.107-34.881-45.198-47.714-40.573-32.356-85.913-31.641-121.294 1.912-25.02 23.785-30.282 61.74-35.852 101.921-8.606 62.078-17.501 126.272-100.457 145.43-9.51 2.197-18.613 3.208-27.332 3.21-56.167.005-96.732-41.974-133.11-79.606-38.378-39.704-71.534-73.983-112.16-45.27-88.855 62.784-147.02 88.518-218.313 55.004C201.085 393.235 92.194 395.69 2.63 504.706"/>
                <path d="M2.343 506.75l-2.311-1.872c92.44-114.426 198.517-118.397 261.266-87.031 66.16 33.074 122.694 20.826 216.012-46.81 42.264-30.635 76.792 4.595 116.77 45.387 43.592 44.476 92.99 94.895 166.445 77.375 85.615-20.422 93.613-87.663 101.352-152.688 5.001-42.044 9.727-81.756 35.35-106.191 34.46-32.87 84.462-29.74 124.413 7.798 14.046 13.197 27.094 29.824 39.709 45.902 28.476 36.29 55.373 70.565 93.957 71.402.673.015 1.35.022 2.018.022 74.77 0 106.4-90.889 125.365-145.39 5.12-14.703 9.16-26.316 12.81-32.11l2.515 1.59c-3.47 5.505-7.461 16.977-12.516 31.5-18.13 52.094-51.897 149.098-130.257 147.365-39.993-.868-68.581-37.304-96.228-72.54-12.55-15.99-25.523-32.526-39.404-45.568-38.732-36.391-87.09-39.523-120.333-7.815-24.845 23.696-29.511 62.89-34.447 104.388-7.859 66.039-15.984 134.328-103.613 155.23-75.09 17.908-125.114-33.145-169.259-78.185-39.013-39.81-72.706-74.192-112.906-45.06-53.966 39.115-101.048 64.494-149.707 64.499-22.51.001-45.345-5.427-69.376-17.439-61.76-30.87-166.293-26.816-257.625 86.24"/>
            </g>
        </g>
    </g>
</svg>
